<?xml version="1.0" encoding="utf-8"?>
<!-- Generator: Adobe Illustrator 21.0.0, SVG Export Plug-In . SVG Version: 6.00 Build 0)  -->
<svg version="1.1" id="Capa_1" xmlns="http://www.w3.org/2000/svg" xmlns:xlink="http://www.w3.org/1999/xlink" x="0px" y="0px"
	 viewBox="0 0 123 46.8" style="enable-background:new 0 0 123 46.8;" xml:space="preserve">
<style type="text/css">
	.st0{fill:#42C67F;}
	.st1{fill:#4F595C;}
	.st2{fill:#646D71;}
	.st3{fill:#9CA4AC;}
</style>
<g>
	<g>
		<g>
			<path class="st0" d="M70.5,16.2c1,0,1.9,0.2,2.8,0.6c0.9,0.4,1.6,0.9,2.3,1.5c0.6,0.6,1.2,1.4,1.5,2.3c0.4,0.9,0.6,1.8,0.6,2.8
				v7.2h-7.1c-1,0-1.9-0.2-2.8-0.6c-0.9-0.4-1.6-0.9-2.3-1.5c-0.7-0.7-1.2-1.4-1.5-2.3c-0.4-0.9-0.6-1.8-0.6-2.8
				c0-1,0.2-1.9,0.6-2.8c0.4-0.9,0.9-1.6,1.5-2.3c0.7-0.6,1.4-1.2,2.3-1.5C68.6,16.4,69.5,16.2,70.5,16.2z M74.8,27.7v-4.3
				c0-0.6-0.1-1.2-0.3-1.7c-0.2-0.5-0.5-1-0.9-1.4c-0.4-0.4-0.9-0.7-1.4-0.9c-0.5-0.2-1.1-0.3-1.7-0.3c-0.6,0-1.2,0.1-1.7,0.3
				c-0.5,0.2-1,0.5-1.4,0.9c-0.4,0.4-0.7,0.9-0.9,1.4c-0.2,0.5-0.3,1.1-0.3,1.7s0.1,1.2,0.3,1.7c0.2,0.5,0.5,1,0.9,1.4
				c0.4,0.4,0.9,0.7,1.4,0.9c0.5,0.2,1.1,0.3,1.7,0.3H74.8z"/>
			<path class="st0" d="M85.7,16.3c1,0,1.9,0.2,2.8,0.6c0.9,0.4,1.6,0.9,2.3,1.5c0.7,0.6,1.2,1.4,1.5,2.3c0.4,0.9,0.6,1.8,0.6,2.8
				c0,1-0.2,1.9-0.6,2.8c-0.4,0.9-0.9,1.6-1.5,2.3c-0.7,0.7-1.4,1.2-2.3,1.5c-0.9,0.4-1.8,0.6-2.8,0.6h-4.3v5.7h-2.8V23.4
				c0-1,0.2-1.9,0.6-2.8c0.4-0.9,0.9-1.6,1.5-2.3c0.6-0.6,1.4-1.2,2.3-1.5C83.8,16.5,84.7,16.3,85.7,16.3z M87.4,27.4
				c0.5-0.2,1-0.5,1.4-0.9c0.4-0.4,0.7-0.9,0.9-1.4c0.2-0.5,0.3-1.1,0.3-1.7c0-0.6-0.1-1.2-0.3-1.7c-0.2-0.5-0.5-1-0.9-1.4
				c-0.4-0.4-0.9-0.7-1.4-0.9c-0.5-0.2-1.1-0.3-1.7-0.3c-0.6,0-1.2,0.1-1.7,0.3c-0.5,0.2-1,0.5-1.4,0.9c-0.4,0.4-0.7,0.9-0.9,1.4
				c-0.2,0.5-0.3,1.1-0.3,1.7v4.3h4.3C86.3,27.8,86.8,27.7,87.4,27.4z"/>
			<path class="st0" d="M100.9,16.3c1,0,1.9,0.2,2.8,0.6c0.9,0.4,1.6,0.9,2.3,1.5c0.7,0.6,1.2,1.4,1.5,2.3c0.4,0.9,0.6,1.8,0.6,2.8
				c0,1-0.2,1.9-0.6,2.8c-0.4,0.9-0.9,1.6-1.5,2.3c-0.7,0.7-1.4,1.2-2.3,1.5c-0.9,0.4-1.8,0.6-2.8,0.6h-4.3v5.7h-2.8V23.4
				c0-1,0.2-1.9,0.6-2.8c0.4-0.9,0.9-1.6,1.5-2.3c0.6-0.6,1.4-1.2,2.3-1.5C99,16.5,100,16.3,100.9,16.3z M102.6,27.4
				c0.5-0.2,1-0.5,1.4-0.9c0.4-0.4,0.7-0.9,0.9-1.4c0.2-0.5,0.3-1.1,0.3-1.7c0-0.6-0.1-1.2-0.3-1.7c-0.2-0.5-0.5-1-0.9-1.4
				c-0.4-0.4-0.9-0.7-1.4-0.9c-0.5-0.2-1.1-0.3-1.7-0.3c-0.6,0-1.2,0.1-1.7,0.3c-0.5,0.2-1,0.5-1.4,0.9c-0.4,0.4-0.7,0.9-0.9,1.4
				c-0.2,0.5-0.3,1.1-0.3,1.7v4.3h4.3C101.5,27.8,102.1,27.7,102.6,27.4z"/>
		</g>
		<g>
			<rect x="15" y="16.3" class="st1" width="1.5" height="1.5"/>
			<rect x="15" y="19.3" class="st1" width="1.5" height="7.8"/>
			<path class="st1" d="M28,19.3c0.5,0,1,0.1,1.5,0.3c0.5,0.2,0.9,0.5,1.2,0.8c0.4,0.4,0.6,0.8,0.8,1.2c0.2,0.5,0.3,1,0.3,1.5v3.9
				h-1.5v-3.9c0-0.3-0.1-0.6-0.2-0.9c-0.1-0.3-0.3-0.5-0.5-0.7c-0.2-0.2-0.5-0.4-0.8-0.5c-0.3-0.1-0.6-0.2-0.9-0.2
				c-0.3,0-0.6,0.1-0.9,0.2c-0.3,0.1-0.5,0.3-0.7,0.5c-0.2,0.2-0.4,0.5-0.5,0.7c-0.1,0.3-0.2,0.6-0.2,0.9v3.9h-1.5v-3.9
				c0-0.3-0.1-0.6-0.2-0.9c-0.1-0.3-0.3-0.5-0.5-0.7c-0.2-0.2-0.5-0.4-0.8-0.5c-0.3-0.1-0.6-0.2-0.9-0.2c-0.3,0-0.6,0.1-0.9,0.2
				c-0.3,0.1-0.5,0.3-0.7,0.5c-0.2,0.2-0.4,0.5-0.5,0.7c-0.1,0.3-0.2,0.6-0.2,0.9v3.9h-1.5v-3.9c0-0.5,0.1-1,0.3-1.5
				c0.2-0.5,0.5-0.9,0.8-1.2c0.4-0.4,0.8-0.6,1.2-0.8c0.5-0.2,1-0.3,1.5-0.3c0.6,0,1.2,0.1,1.8,0.4c0.5,0.3,1,0.7,1.3,1.2
				c0.4-0.5,0.8-0.9,1.3-1.2C26.8,19.5,27.4,19.3,28,19.3z"/>
			<path class="st1" d="M37.2,19.4c0.5,0,1,0.1,1.5,0.3c0.5,0.2,0.9,0.5,1.2,0.8c0.4,0.4,0.6,0.8,0.8,1.2c0.2,0.5,0.3,1,0.3,1.5
				c0,0.5-0.1,1-0.3,1.5c-0.2,0.5-0.5,0.9-0.8,1.2c-0.4,0.4-0.8,0.6-1.2,0.8c-0.5,0.2-1,0.3-1.5,0.3h-2.3v3.1h-1.5v-7
				c0-0.5,0.1-1,0.3-1.5c0.2-0.5,0.5-0.9,0.8-1.2c0.4-0.4,0.8-0.6,1.2-0.8C36.2,19.5,36.7,19.4,37.2,19.4z M38.1,25.4
				c0.3-0.1,0.5-0.3,0.8-0.5c0.2-0.2,0.4-0.5,0.5-0.8c0.1-0.3,0.2-0.6,0.2-0.9c0-0.3-0.1-0.6-0.2-0.9c-0.1-0.3-0.3-0.5-0.5-0.7
				c-0.2-0.2-0.5-0.4-0.8-0.5c-0.3-0.1-0.6-0.2-0.9-0.2c-0.3,0-0.6,0.1-0.9,0.2c-0.3,0.1-0.5,0.3-0.7,0.5c-0.2,0.2-0.4,0.5-0.5,0.7
				c-0.1,0.3-0.2,0.6-0.2,0.9v2.4h2.3C37.5,25.6,37.8,25.5,38.1,25.4z"/>
			<path class="st1" d="M50.2,19.3v3.9c0,0.5-0.1,1-0.3,1.5c-0.2,0.5-0.5,0.9-0.8,1.2c-0.4,0.4-0.8,0.6-1.2,0.8
				c-0.5,0.2-1,0.3-1.5,0.3c-0.5,0-1-0.1-1.5-0.3c-0.5-0.2-0.9-0.5-1.2-0.8c-0.4-0.4-0.6-0.8-0.8-1.2c-0.2-0.5-0.3-1-0.3-1.5v-3.9
				H44v3.9c0,0.3,0.1,0.6,0.2,0.9c0.1,0.3,0.3,0.5,0.5,0.8c0.2,0.2,0.5,0.4,0.7,0.5c0.3,0.1,0.6,0.2,0.9,0.2c0.3,0,0.6-0.1,0.9-0.2
				c0.3-0.1,0.5-0.3,0.8-0.5c0.2-0.2,0.4-0.5,0.5-0.8c0.1-0.3,0.2-0.6,0.2-0.9v-3.9H50.2z"/>
			<path class="st1" d="M53.1,16.2v10.9h-1.5V16.2H53.1z"/>
			<path class="st1" d="M61.5,19.3v1.5h-4.7c-0.2,0-0.4,0.1-0.6,0.2c-0.1,0.2-0.2,0.3-0.2,0.6c0,0.2,0.1,0.4,0.2,0.6
				c0.2,0.2,0.3,0.2,0.6,0.2H60c0.3,0,0.6,0.1,0.9,0.2c0.3,0.1,0.5,0.3,0.7,0.5c0.2,0.2,0.4,0.5,0.5,0.7c0.1,0.3,0.2,0.6,0.2,0.9
				c0,0.3-0.1,0.6-0.2,0.9c-0.1,0.3-0.3,0.5-0.5,0.7c-0.2,0.2-0.5,0.4-0.7,0.5c-0.3,0.1-0.6,0.2-0.9,0.2h-4.7v-1.5H60
				c0.2,0,0.4-0.1,0.6-0.2c0.1-0.1,0.2-0.3,0.2-0.6c0-0.2-0.1-0.4-0.2-0.6C60.4,24.1,60.2,24,60,24h-3.1c-0.3,0-0.6-0.1-0.9-0.2
				c-0.3-0.1-0.5-0.3-0.7-0.5c-0.2-0.2-0.4-0.5-0.5-0.7c-0.1-0.3-0.2-0.6-0.2-0.9c0-0.3,0.1-0.6,0.2-0.9c0.1-0.3,0.3-0.5,0.5-0.7
				c0.2-0.2,0.5-0.4,0.7-0.5c0.3-0.1,0.6-0.2,0.9-0.2H61.5z"/>
		</g>
	</g>
	<g>
		<g>
			<g>
				<path class="st2" d="M114.3,23.4c0,0.4,0,0.7,0,1c0,0.3,0,0.6,0,0.8c0,0.2,0,0.4,0,0.5c0,0.1,0,0.2-0.1,0.3L110,39
					c0,0.1-0.1,0.2-0.1,0.2c0,0-0.1-0.1-0.1-0.2c0-0.2,0-0.4,0-0.7c0-0.3,0-0.7,0-1.2c0-0.6,0-1.1,0-1.5c0-0.4,0-0.7,0-0.9
					c0-0.2,0-0.4,0.1-0.5c0-0.1,0.1-0.3,0.1-0.4l3.4-10.4L110,13.1c0-0.1-0.1-0.3-0.1-0.4c0-0.1,0-0.3-0.1-0.5c0-0.2,0-0.6,0-0.9
					c0-0.4,0-0.9,0-1.5c0-0.6,0-1,0-1.3c0-0.3,0-0.5,0-0.7c0-0.1,0-0.2,0.1-0.2c0,0,0.1,0.1,0.1,0.2l4.2,13.1c0,0.1,0.1,0.4,0.1,0.8
					C114.3,22,114.3,22.6,114.3,23.4z"/>
			</g>
		</g>
		<g>
			<polygon class="st3" points="112.9,21.8 113.4,23.3 113.4,23.3 			"/>
			<path class="st3" d="M114.2,25.7c0-0.1,0-0.3,0-0.5c0-0.2,0-0.5,0-0.8c0-0.3,0-0.6,0-1c0-0.7,0-1.3,0-1.8c0-0.4-0.1-0.7-0.1-0.8
				L110,7.8c0-0.1-0.1-0.2-0.1-0.2c0,0-0.1,0-0.1,0.2c0,0.1,0,0.4,0,0.7c0,0.3,0,0.8,0,1.3c0,0.6,0,1.1,0,1.5c0,0.4,0,0.7,0,0.9
				c0,0.2,0,0.4,0.1,0.5c0,0.1,0.1,0.2,0.1,0.4l2.9,8.7l0,0l0,0l0.5,1.4l0,0L114.2,25.7C114.2,25.7,114.2,25.7,114.2,25.7z"/>
		</g>
	</g>
	<g>
		<g>
			<g>
				<path class="st1" d="M8.7,23.4c0-0.4,0-0.7,0-1c0-0.3,0-0.6,0-0.8c0-0.2,0-0.4,0-0.5c0-0.1,0-0.2,0.1-0.3l4.2-13
					c0-0.1,0.1-0.2,0.1-0.2c0,0,0.1,0.1,0.1,0.2c0,0.2,0,0.4,0,0.7c0,0.3,0,0.7,0,1.2c0,0.6,0,1.1,0,1.5c0,0.4,0,0.7,0,0.9
					c0,0.2,0,0.4-0.1,0.5c0,0.1-0.1,0.3-0.1,0.4L9.6,23.5L13,33.7c0,0.1,0.1,0.3,0.1,0.4c0,0.1,0,0.3,0.1,0.5c0,0.2,0,0.6,0,0.9
					c0,0.4,0,0.9,0,1.5c0,0.6,0,1,0,1.3c0,0.3,0,0.5,0,0.7c0,0.1,0,0.2-0.1,0.2c0,0-0.1-0.1-0.1-0.2L8.8,26c0-0.1-0.1-0.4-0.1-0.8
					C8.7,24.7,8.7,24.1,8.7,23.4z"/>
			</g>
		</g>
		<g>
			<polygon class="st3" points="10.1,24.9 9.6,23.5 9.6,23.5 			"/>
			<path class="st3" d="M8.8,21.1c0,0.1,0,0.3,0,0.5c0,0.2,0,0.5,0,0.8c0,0.3,0,0.6,0,1c0,0.7,0,1.3,0,1.8c0,0.4,0.1,0.7,0.1,0.8
				L13,39c0,0.1,0.1,0.2,0.1,0.2c0,0,0.1,0,0.1-0.2c0-0.1,0-0.4,0-0.7c0-0.3,0-0.8,0-1.3c0-0.6,0-1.1,0-1.5c0-0.4,0-0.7,0-0.9
				c0-0.2,0-0.4-0.1-0.5c0-0.1-0.1-0.2-0.1-0.4l-2.9-8.7l0,0l0,0l-0.5-1.4l0,0L8.8,21.1C8.8,21.1,8.8,21.1,8.8,21.1z"/>
		</g>
	</g>
</g>
</svg>
