<svg viewBox="0 0 595 787" xmlns="http://www.w3.org/2000/svg"><g fill="#1f1a17"><path d="M60.4 0h425.2c14 1.7 27.6 7.7 38 17.3 13.9 12.5 22.1 31 22 49.7v651c.2 13.6-3.8 27.1-11.4 38.4-10.3 15.4-27.1 26.3-45.5 29-8.5 1.5-17.2 1-25.8 1.1h-394c-13.2-.2-26.5-3.5-37.7-10.8-14.4-9.2-25.2-24-29.2-40.6-1-4.2-1.5-8.4-2.2-12.7V62.9C1.2 53.8 3 44.7 7.4 36.5c10.2-20 30.7-34 53-36.5m-3.9 9.8c-13.1 2.5-25.2 9.7-33.7 19.9C14 40 9.1 53.5 9.2 67.1v652c-.1 15.2 6.1 30.2 16.8 40.9 10.7 10.9 25.7 17.3 41 17.3h411.9c16.2 0 32.1-7.3 42.9-19.4 9.5-10.5 15-24.7 14.9-38.9V67c0-10.4-2.8-20.7-8.1-29.6C518.5 20.1 499.1 8.6 479 8.7H77.1c-6.9.1-13.8-.3-20.6 1.1z"/><path d="M298.7 185.8c7-8.8 18.2-13.3 29.3-13.7l159.8.6c12.1-1.2 23.8 9 23.5 21.3v393c0 4.4.3 8.9-1.4 13-3 8.1-11.3 13.9-20 13.8-34.4.1-68.7.3-103 .4-1.4-.1-2.7.3-3.9.8-1.3-.3-2.6-.8-3.9-.8-29.1.1-58.3.3-87.4.3 4.2-4.1 9-7.6 13.3-11.7-8-.2-16 0-24.1-.1.6-3.1 1.2-6.1 1.8-9.2-.7 0-2.1 0-2.9.1-.7 4.1-1 8.2-1.3 12.3-.5-4.2.4-8.3.9-12.4h-16.5c.4 1.7.7 3.5 1.1 5.2-.4-.8-.8-1.5-1.2-2.3 0-2.3-1.2-3.4-3.5-3.2.5 2.9 1.2 5.9 1.6 8.8-.8-2.6-1.2-5.4-1.9-8.1-.7-.2-2-.6-2.7-.9.1.8.5 2.3.6 3-1.3-4-3.1-7.8-3.6-12 .5.9 1.1 1.9 1.6 2.8 1-2.7 4.1-1.3 6.2-1.5 7.6.9 15.3-.3 22.9 0 .3-.4 1-1.2 1.3-1.7-1.3 6.1-2.7 12.3-3.7 18.5 9.2-.2 18.4.4 27.5-.2 3.9-2.2 7-5.4 10.7-7.9-.1.6-.2 1.7-.2 2.3-5.3 4.4-10.6 8.8-15.7 13.4 20.6.1 41.2-.1 61.7-.2-2.1-5.2-4.1-10.5-6.3-15.7.6 0 1.9-.1 2.6-.1.6 1.7 1.3 3.5 2 5.2h7.2c1-2.2 1.4-5.1 4.3-5.6-1.5 5.6-4.2 10.7-6.3 16.1 4.5 0 9.1 0 13.7-.1l.3-15.8h2.3l-.3 15.7c4.2 0 8.4-.1 12.6 0-.6-1.4-3-3.3-.5-4.1 1.7 1.6 3.3 4.1 6 3.7 6.5.5 8.4-9.7 3.3-12.6-3.3-1.8-9.4-1-8.9 3.9 1.8.1 3.5.1 5.3.1.1.5.2 1.5.2 1.9-2.5 0-5 0-7.5-.1 0-2.1.1-4.3.1-6.4 3.9-2.6 9.5-3.5 13.3-.2 3.9 3.6 3.1 10.1-.3 13.7 4.9-.1 9.7-.2 14.6-.1-2.5-3.4-3.6-8.1-1.3-12 2.7-5 10.9-5.2 13.9-.3 2.5 3.8 1.5 8.9-1.3 12.3 6.4-.2 12.8-.1 19.2-.2.1-4.4.2-8.8.2-13.3-2.8-.1-5.6-.1-8.4-.1-.1-.5-.2-1.5-.2-2 3.6 0 7.3.1 10.9.1 0 5.1-.1 10.1-.2 15.2 11.7-.1 23.4 0 35.1-.2 8.5-.3 15.8-7.9 15.9-16.3.2-10.9-.1-21.9.1-32.8-3.5 2.7-8.6 3.6-12.5 1.3-4.5-2.5-4.9-9.8-.8-12.9 3.9-2.9 9.6-2.3 13.3.8-.1-4.1 0-8.2 0-12.3-5.4 0-10.9.1-16.3-.1.5-1.2.7-2.6 2-3.2 3.9-2.6 7.9-5 11.7-7.8-4.4-.2-8.8-.1-13.2-.1V523h15.8c0-3.7 0-7.4.1-11.1-1.4.5-2.8 1-4.2 1.4.9-2.6 4.3-4 3.9-7.1-.4-7.5-14.9-6.8-13.9 1 .1 2.4 2.6 3.4 4.3 4.6-.2.5-.6 1.6-.8 2.2-1.7-1.2-3.9-2.1-4.8-4.1-1.4-3.3-.7-7.9 2.7-9.7 4-2.3 9.1-1.6 12.9.9.3-7.2-1-14.4-.8-21.6h-5.3c0 3.4.1 6.8-.3 10.1-3.2-2.3-1.2-6.8-1.7-10.1h-5.9c-.1 3.8.4 7.8-.8 11.5-2.2-4.2-.8-9.1-1.2-13.7h16c.2-4.7-.5-9.4-.9-14h-15.1v-2.2h15.2c1.5-15.2.5-30.5.8-45.7-2.8-1.9-5.4-4-8.3-5.5-2.5-.6-5.1-.2-7.6-.3v-2.2c3.2-.2 6.9.7 9.6-1.4 2-1.5 4.9-2.5 6.2-4.6.3-12.6.1-25.2.1-37.8-5.4 2.2-10.8 4.5-16.3 6.4-.1-3.2 3.3-3.6 5.6-4.6v-7c-2.2-1-5.5-1.2-5.6-4.3 5.5 1.8 10.9 4 16.4 6v-13.4c-5.4 0-10.9.1-16.4 0l.7-2c5.2-.4 10.5 0 15.7-.2 0-3.9-.1-7.8.1-11.6-1.5.6-3 1.1-4.6 1.3 1.4-2.3 4.5-3.9 4.1-6.9-.6-7.4-14.8-6.8-14 1.1.1 2.7 3 3.6 4.8 5-1 2.2-3 .8-4.3-.1-3.9-3.1-3.1-10.7 1.8-12.4 4-1.8 8.7-1 12.1 1.6-.1-4.1-.1-8.2-.1-12.2-5.5-.1-11 .1-16.5-.2.5-1.5 1.4-2.9 2.8-3.7 3.7-2.4 7.5-4.7 11-7.3-4.4-.1-8.8-.1-13.2-.1 0-.5-.1-1.6-.1-2.1h16c.4-6.7-.9-13.4-.6-20.1h-5.3c0 3.3 0 6.6-.2 9.9-.4-.2-1.2-.7-1.6-1-.4-3-.2-6-.2-8.9h-5.9v10.4h-1.9c-.1-4.2-.1-8.4 0-12.7h15.8v-10.4h-16v-2.2h16c0-3.9 0-7.8.1-11.8-1.2.6-2.3 1.3-3.5 1.9-.1-.5-.3-1.6-.4-2.1 2-1.2 4-3 3.4-5.6-.9-5.5-8.7-5.9-12.4-3.1-3.1 2.9-1.2 7.8 2.6 8.9-.1.5-.2 1.6-.2 2.2-2-.9-4.5-1.8-5.3-4.1-1.1-3.2-.7-7.5 2.5-9.4 4.1-2.5 9.6-2 13.3 1.1-.2-15.6 0-31.2-.1-46.8.2-9.8-9.3-17.8-18.8-16.8l-160-.6c-10.3.4-20.9 4.8-26.9 13.5-2.7 3.6-3.8 7.9-5.6 11.9-.6.2-1.7.5-2.2.7.1 19.8-.1 39.5.4 59.2.1 21.9-.2 43.7.1 65.6.2.1.6.2.8.3.9-2.9 1.1-5.9 1.6-8.9l15.6-102.3c.8-4.5 1.6-9.4 5-12.7 2.1-2.3 5.2-3.3 8.2-4.1-3.4 1.4-7.2 2.7-9.3 5.9-2.6 3.9-3.1 8.8-3.9 13.3-5.5 36.5-11.1 73-16.7 109.4 15.6 3.1 30.7 8.9 44.1 17.5 2.4 1.5 4.7 3.4 6.8 5.3-15.5-11.6-33.8-19.2-52.9-22.5.1-23.2 0-46.5.1-69.7-1-20.5-.4-41.1-.7-61.6h-43.8c-.2 38.2.1 76.4-.2 114.6.3 5.4-.1 10.8.7 16.1-24 4.9-46 18.9-60.8 38.4-2 2.5-3.7 5.3-5.8 7.7 1.8-3.7 4.8-6.5 6.7-10.1.2-27 .1-54 .1-81h.4c.1 26.8-.1 53.5.1 80.2 5.2-5.1 10.1-10.6 15.8-15.2 12.4-9.9 27-17 42.4-20.4.1-5.5-.1-10.9-.7-16.4.2-3.5.6-7 .6-10.5v-98c.2-4.3-3.2-7.5-5.4-10.8-6.2-8.5-16-14.8-26.8-14.9-33.7-.1-67.4 0-101.1 0-2.3-.4-3.5 1.8-4.9 3.2 2.4.1 4.9.1 7.3.1v1.9h-10.6v5.1h9.8c0 .5.1 1.5.1 1.9h-9.9v5.7h11v2c-4.4-.1-8.9-.1-13.3 0v-16.9c1.6.1 3.2.1 4.8.2.4-1.1.9-2.3 1.3-3.4-18.9-.1-37.7 0-56.6 0-8.9-.2-17 7.8-16.8 16.7C37 326.6 37 459.3 37 592c-.4 8.5 6.5 16.5 15 17.2 6.4.4 12.8.1 19.3.2-1.1-5.9-2.3-11.7-3.4-17.6.7.1 2 .4 2.6.5l.9 5.4c2.4.5 4.8 1 7.3 1.5 1.5-2 2.6-5.1 5.7-4.4-3.2 5-6.7 9.8-10 14.7 8.2 0 16.4 0 24.6.1-.1-4.5-.2-9-.2-13.5-2.9 0-5.9.1-8.8.1v-2c3.7-.1 7.4-.1 11.1-.2l.3 15.6c14 0 27.9.1 41.9.1-2.2-5.2-4.6-10.3-6.9-15.4.7 0 2-.1 2.6-.1.8 1.7 1.5 3.4 2.2 5.1 2.5 0 5-.1 7.6-.1.5-1.6 1.1-3.3 1.6-4.9.7-.1 2-.2 2.7-.3-2 5.3-4.1 10.5-6.1 15.8 4.9 0 9.7-.1 14.6.1-.3-1.6-1.2-3.1-.8-4.7.5-1.9 2.6-2.5 4.1-3.5-2.3-2.2-4.2-4.8-5.9-7.4h2.9c1.7 2.3 3.2 4.9 5.4 6.8 1.6.8 3.5.5 5.2.7 0-2.6-.1-5.1-.1-7.7.6 0 1.8.1 2.4.1.1 5.2.2 10.4.3 15.7h14c-2.4-5.2-4.8-10.4-7.1-15.6.7 0 2 .1 2.7.1.7 1.7 1.4 3.3 2.1 5 2.5-.1 4.9-.1 7.4-.1 1-2.2 1.3-5.6 4.5-5.5-1.9 5.5-4.1 10.8-6.2 16.2 4.7.1 9.4 0 14.1.2-1.2-2.3-2.2-5.3 0-7.4 2.7-2.3 6.6-1.4 9.8-1.8 0-2.2-.1-4.5-.1-6.7.6 0 1.8-.1 2.4-.1l.3 15.9c6.4.1 12.8.1 19.2.1-6.1-5.6-12.7-10.6-18.2-16.7 4.7 2.7 8.4 6.9 13.3 9.2 8.2.5 16.5-.1 24.8.1-.2-1.6-.5-3.2-.8-4.7 1.8 6.5 3.4 13.1 5.4 19.5 1.4-1.5 1-3.4.7-5.2l.3-1.4c.3 1.7.6 3.4 1 5.1.8-.1 2.3-.4 3-.5-.5-2.4-.9-4.7-1.4-7 .4 1.1.9 2.1 1.3 3.2.2 1.2.4 2.5.6 3.8h3c.2-1.1.3-2.2.5-3.3.1-.4.2-1.3.3-1.7.3-1.9.4-3.9.7-5.8l.4-.2c-.4 3.6-.6 7.3-1.2 10.9.6.1 1.7.2 2.2.3 1.7.6 3.2 1.6 4.6 2.6l-.8.6c-4.8 2.7-10.8 2.2-15.7-.2-1.1-5.2-2.6-10.3-4-15.4-7 .1-14-.1-21.1.2 4.2 3.7 8.5 7.4 12.7 11.3-65.2-.1-130.4-.3-195.7-.5-11.7.3-22-10.3-21.5-21.9V194.6c-.2-11.1 9.5-21.1 20.6-21.2 53.3-.1 106.5 0 159.8-.1 6.1 0 12.3.9 17.8 3.6 9 4.2 15.5 12.1 20.6 20.4 13.8.1 27.5.1 41.3 0 1.7-4.4 3.4-8.2 6-11.5m196.1 123h12.1v-8c-4.1 2.6-8.2 5.1-12.1 8m3.3 50.8c0 1.9-.1 3.8-.1 5.7 2.7-1 5.4-2 8.1-2.8-2.7-1-5.4-1.9-8-2.9m2.1 49.7c2.3 1.3 4.5 2.7 6.7 4.1V405c-2.3 1.5-4.5 2.9-6.7 4.3m-5.3 125.5c4 .1 8 .1 12 .1V527l-12 7.8m1.5 14.7c-3.4 1.1-4.8 5.7-2.6 8.5 2.3 3 6.8 3 10 1.6 3.5-1.6 3.9-7 .9-9.3-2.5-1.6-5.7-1.6-8.3-.8M254.5 588c.5 1.7 1 3.5 1.5 5.3 9 0 17.9.1 26.9 0 .3-1.8.7-3.5 1.1-5.2-9.9-.1-19.7 0-29.5-.1m171.8 8.4c-3.6 1.8-4.1 6.7-2.6 10 1.6 3.7 7.3 4.2 9.7 1 1.5-2.2 1.6-5.2.9-7.8-1-3.3-5.1-4.7-8-3.2M72 599.7c.2 2.8.7 5.5 1.1 8.3 1.5-2.4 3-4.8 4.6-7.1-1.9-.5-3.8-.9-5.7-1.2m70 1.3c1.1 2.6 2.2 5.2 3.3 7.9.8-2.7 1.7-5.4 2.7-8-2 0-4 .1-6 .1m45.5.1c1.1 2.4 2.1 4.9 3.1 7.4 1.2-2.5 2.1-5 3-7.6-2.1 0-4.1.1-6.1.2m176.9 0c1 2.6 1.9 5.3 2.9 7.9.9-2.7 1.9-5.3 2.9-7.9-1.9.1-3.9 0-5.8 0m-200.2 3c-1.8 1-1.3 4.2.7 4.6 2.5.5 5.1.2 7.7.1-.1-1.8-.1-3.7-.1-5.5-2.8.3-5.7-.3-8.3.8m45-.8c-2.3.8-2.1 4.6.1 5.3 2.4.4 4.8.2 7.2.2-.1-2-.1-4-.2-6-2.4.1-4.8-.1-7.1.5z"/><path d="M356.3 178.7h2.2c-.1 4.2.3 8.4-.3 12.5-.9 6.4-12.4 6.3-13.1-.1-.5-4.2-.2-8.4-.2-12.6.6.1 1.6.3 2.2.4.3 3.9-.2 7.9.3 11.8.4 4.2 7.9 4.4 8.6.3.5-4.1.1-8.2.3-12.3zm64.1 0h2.3c-.1 4.2.3 8.4-.3 12.6-1 6.4-12.7 6.2-13.1-.5-.4-4-.3-7.9-.1-11.9.6-.1 1.7-.3 2.2-.4.1 4.1-.2 8.3.3 12.4.7 3.9 7.9 4 8.5-.1.4-3.9 0-8 .2-12.1zm12.9 0c3.5.1 7.1-.3 10.6.4 3.2.6 4.4 5.6 1.6 7.4-.7.7-1.9.9-2.3 1.8 1.9 2.3 3.8 4.6 4.9 7.4-.7 0-2-.1-2.6-.2-1.5-2.2-2.8-4.6-4.6-6.5-1.5-1.4-3.6-.7-5.4-.9v7.7c-.6-.1-1.7-.4-2.2-.5-.1-5.5-.1-11.1 0-16.6m2.2 1.9v5.6c2.5-.1 5 .2 7.4-.4 2.3-.6 2.3-4.4 0-5-2.4-.4-4.9-.2-7.4-.2zm-114 .9c3.3-4.6 12.1-4 13.4 2.1-3.1.8-3.7-3.9-6.9-3.2-7.8-.4-7.7 14 0 13.6 3.8.8 3.8-5.2 7.4-4.1-1.1 5.7-8.4 7.9-12.7 4.3-3.3-3.1-3.8-8.9-1.2-12.7zm47.5-2.8h2.3v14.9c2.8 0 5.6-.1 8.4.1.1.5.2 1.4.2 1.9H369c-.1-5.6 0-11.2 0-16.9zm17.4 1.9c.1-.5.3-1.4.3-1.9h13.5c.1.5.2 1.4.3 1.9-2 .1-4 .1-5.9.1v14.8h-2.3v-14.9c-1.9.1-3.9.1-5.9 0zm67.8 15.3c2.1-5.8 4.3-11.5 6.8-17.1h2.2c2.5 5.6 5.2 11.2 6.9 17-.6-.1-1.8-.2-2.4-.3-.6-1.7-1.3-3.3-1.9-5-2.3 0-4.6-.2-6.9 0-1.9 1.7-1.1 5.9-4.7 5.4m5-7.2h5.8c-1-2.6-1.9-5.2-2.9-7.8-1 2.6-2 5.2-2.9 7.8zm-292.9-5.3c3.6-4.9 12.3-4 14.2 2.1-3.3.5-4.4-3.8-7.6-3.3-6.1-.2-7.3 8.2-4.1 12 2.1 2 6.2 2.3 8-.3 1.1-.9 1.8-3.7 3.7-1.7-.8 2.6-2.8 4.9-5.6 5.2h-3.8c-6.3-.9-8-9.5-4.8-14zm24 1.8c2-5.6 10.1-6.7 14.1-2.6 4.4 4.5 2.4 14-4.5 14.6-1.1 0-2.2 0-3.3.1-5.7-.4-8.4-7.2-6.3-12.1m5.2-2.5c-5.2 2.4-4.4 12.1 1.6 12.9 4.3 1 8-3.4 7.1-7.6.1-4.3-4.9-7.3-8.7-5.3zm-118.8-2.2h3.5c1.7 4.8 3.4 9.6 5.2 14.4 1.6-4.7 3.3-9.4 5-14h3c.1 5.5.2 11.1.1 16.6l-1.6-1c-.7-4.3.2-8.8 0-13.1-.5.8-1 1.7-1.5 2.6-1.4 3.8-2.4 7.7-4.3 11.3h-1.8c-2-4.4-3.3-9.1-5-13.7-.4 4.5-.2 9.1-.4 13.6-.2.1-.8.2-1 .2l-1.1-.8c-.2-5.4-.1-10.8-.1-16.1zm50.3-.4c4-.1 5.3 4.1 7.4 6.7 2.3-2.5 3.8-6.4 7.6-6.7-1.8 2.9-4.1 5.3-5.9 8.1 1.4 3.4 4.6 5.9 6 9.4-.3-.1-.8-.2-1.1-.2l-1.6-.5c-1.8-2.1-3.4-4.4-5.1-6.6-2.4 2.7-3.9 7.4-8.2 7.4 1.9-3.3 5.1-5.8 6.6-9.3-1.7-2.9-3.9-5.4-5.7-8.3zm25.1.7c.5-.2 1.6-.5 2.2-.7.1 5.5.1 10.9 0 16.4l-1.2.8c-.2-.1-.8-.2-1-.2-.2-5.4-.3-10.9 0-16.3zm75.1 27.9c3.6 6.2 4.6 13.5 6.3 20.4 5.5 26.2 9.6 52.7 13.6 79.1-5.2-27.6-8.6-55.6-14.9-83.1-1.2-5.6-2.8-11.1-5-16.4zm153.6 21.9c1.8-5.1 5.5-10.3 11.1-11.5 2.5-.6 5.9-1.4 7.8.9-.6 4.4-4 7.7-4.9 12-.3 2.2-.1 4.4-.1 6.6l-5.4 2.4c.6 1.1 1.2 2.2 1.8 3.4.6 4.1.6 8.2-.2 12.2-.4-.2-1.2-.7-1.6-.9-.8-1.4-1.1-2.9-1.6-4.4-1.3-.9-2.8-1.3-4.3-1.9l-1.2-.8c-6.2-1.5-13-1.8-18.4 2.1 3.5-3.2 8.5-4.1 13.1-3.4.9.2 2.7.5 3.6.7-.3-5.8-.2-11.7.3-17.4zM38.6 249.9l1.5.3c.8 3.1.2 6.5.3 9.8 1.8.1 3.7.1 5.5.2v-9.5l2 .4c.2 3 .1 6.1.1 9.1h6.1c0-3.4-.1-6.8.1-10.3h2c.2 4.1 0 8.3.1 12.4H38.5c-.1-4.1-.4-8.3.1-12.4z"/><path d="M365.2 257.3c1.6-2.9 4.8-4.4 7.7-5.6-.3 4.3-1.9 8.2-3 12.3-1.1 4.2 1.6 7.9 4 11 .4.5 1.1 1.4 1.5 1.9-.1 1-.4 3-.5 4-4.4-1.7-9.1-4.2-10.7-9-1.4-4.8-1.5-10.3 1-14.6zm-248-2.2h.4c-.1 5.7 0 11.4 0 17.2h28.2c-.2-5.8-.7-11.5-.2-17.3h.7c-.5 2.5-.7 5.1-.7 7.7 5.3.2 10.6.1 15.9.2v-7.8h.5c-.1 2.7-.1 5.5-.2 8.2H159c-.2 1.9-.3 3.8-.5 5.6v-5.7c-4.2 0-8.4 0-12.6.1.2 1.9.3 3.7.4 5.6.1 4.7 0 9.5.1 14.2v14.4c-9.6.3-19.3.1-28.9.1-.1-4.8-.1-9.7-.1-14.5-.2-9.3-.2-18.6-.2-28m.4 17.6c-.1 8.2.2 16.4.2 24.6 9.3-.1 18.6.1 27.9-.1.1-8.2 0-16.4 0-24.5h-28.1zm309.3-4.5c8.7-1.9 17.9-.6 26 2.9 4.3 1.8 6.8 6.1 7.5 10.5-3.5-.5-7-1.5-10.5-1.9-3.4-.2-5.6-3.3-8.9-3.7-2.6-.4-5 1.1-7.2 2.1-1.1-1.2-2.1-2.3-3.2-3.5-5.5 1.8-10.9 4.8-16.9 3.6l.7 1.4-.5.6c-.4-2.5-1-5-1.6-7.5-.8-1.2-1.6-2.4-2.3-3.7.5.6 1.5 1.9 2 2.5 4.9-1.3 9.9-2.3 14.9-3.3zm-38.7 1c3.2-2.4 7.4-1.8 10.9-.6-3.7 4.5-11.5 6.4-11.1 13.4.8 4.9 4.7 8.5 7.6 12.3-.3 1.5-.6 2.9-.9 4.4-5.1-1.8-10.4-5.1-12-10.6-1.6-6.6-.1-14.7 5.5-18.9zm-347.4 4.6c3.8-2.6 9.5-2.5 13.2.3 3.2 3 1.8 7.9 2.1 11.8H38.3c.4-4.1-1.2-9.3 2.5-12.1m2.3 1.2c-3.5 1.4-2.5 5.7-2.7 8.6H54c-.2-2.6.8-6-1.5-8-2.7-1.8-6.4-1.8-9.4-.6z"/><path d="M402.6 298.8c7-2.9 11.1-10.3 11.4-17.7.7 0 2.1-.1 2.8-.1 8.5 1.2 15.8 8.2 16.3 16.9.2 2.4 0 4.9-1.1 7.1 1.6-6.2.5-13.3-4-18-3.4-3.8-8.5-5.4-13.4-5.7-.6 3.8-1.2 7.7-3.6 10.9-3 4.8-8.2 7.6-13.6 8.9.6 6.3 4.8 11.5 10.2 14.6-.2 5.1-.2 10.2-.4 15.3-.1 3.2-2 5.9-3.8 8.4-3.4 4.8-10.1 6.7-15.6 4.7.8-3.6 2.7-6.8 4.3-10.1 1.4-2.8.9-6 1-9 1.6-.8 3.3-1.4 4.9-2.4.7-1.5-.6-2.5-1.5-3.4-.6-4-.5-8-.3-12.1h2.4c-.6-2-1-4.1-1.4-6.2-5 .2-10-.8-14.2-3.7 5.8 3 13.3 4.8 19.6 1.6zm-73.1-17c3.5.6 7 1.7 10.5 2 3.4.2 5.6 3.4 9 3.7 2.5.3 4.8-1.2 7.1-2.1 1.1 1.2 2.1 2.4 3.2 3.5 4.8-1.6 9.5-4.1 14.7-3.9.5.2 1.6.5 2.1.7l1.5 4.8c.4.3 1.1.9 1.5 1.2.2 1 .5 1.9.8 2.9-.9-1-1.7-2.1-2.5-3.1-4.1 2.1-8.8 2.3-13.2 3.5-9.1 2.2-18.9 1-27.5-2.8-4.3-1.7-6.8-5.9-7.2-10.4z"/><path d="M403.1 302.1c2.5-2.8 5.8-4.8 9.1-6.4-2 3.6-4.2 7-6.4 10.4 2.3 3 4.6 5.9 6.9 8.8-4.6-.8-8.6-3.6-11.2-7.4-.8-1.9.4-4 1.6-5.4zM90.9 319h19v15.8H91c-.2-5.3-.1-10.5-.1-15.8zm23.6.1c6.3-.2 12.7-.1 19.1 0-.1 5.2-.1 10.5 0 15.7-6.3.1-12.7.1-19 0 0-5.3 0-10.5-.1-15.7zm21.8 0c6.3-.1 12.7 0 19-.1v15.8h-19c.1-5.3.1-10.5 0-15.7zm24.4-.7h9.5v15.8h-9.5v-15.8zm-122.4 3.7c6.1 0 12.1-.1 18.2.1-.2.6-.6 1.8-.8 2.5-4.2 3-8.9 5.2-12.9 8.4 4.4.3 8.7 0 13.1.2.1.5.4 1.5.5 2-6.1.1-12.2 0-18.3 0 .1-.6.3-1.7.4-2.2 4.4-3.2 9.2-5.8 13.7-8.8-4.6-.1-9.3 0-13.9 0zm52.8 16.4c6.2.1 12.5.1 18.7 0 .1 5.3 0 10.5.1 15.8-6.3.1-12.7 0-19 0 0-5.2-.2-10.5.2-15.8zm69.6-.5h9.5v15.8h-9.5V338zm-46.1.6h19v15.8h-19v-15.8zm21.8 0h19v15.8h-18.9c-.1-5.3-.1-10.5-.1-15.8zm-93.2 6.7c5.5-2.4 13.9.8 13.4 7.6-.2 8.9-14.5 10.4-17.8 2.8-1.8-3.8.2-9 4.4-10.4m.3 2.3c-4 1.5-4.5 7.6-.8 9.6 4 2.2 11.4 1.3 11.9-4.3.3-5.6-6.9-7.2-11.1-5.3zm303.3 4.2c1.6-.1 2.4.6 2.6 2.2-1.3-.2-2.1-1-2.6-2.2zm-255.9 6.4h18.9V374h-19c.1-5.3 0-10.5.1-15.8zm23.7 0h19v15.7c-6.4.1-12.7.1-19.1 0 .1-5.2.1-10.4.1-15.7zm21.8 0h18.9V374c-6.3 0-12.7.1-19-.1.1-5.2.1-10.4.1-15.7zm24.3-.6h9.5c0 7.4.1 14.8-.1 22.2-3.1 0-6.3 0-9.4-.1.1-7.4 0-14.8 0-22.1zm199.6 7.3c4.2 3.8 7.1 8.6 10 13.4 9.6 16.8 13.2 36.5 12.6 55.8-1 19.4-7.4 38.8-19.4 54.1l-.8.9c13.6-18.6 21-41.9 19.5-65-.7-21.4-7.9-42.9-21.9-59.2zm-322 5.6c5.8.1 11.6-.1 17.4 0 .1.5.4 1.6.6 2.2H38.2c0-.5.1-1.6.1-2.2zm12.2 11.7c1.4.7 2.8 1.2 4 2.3 3.3 3.3 2.2 10-2.3 11.7-4.7 2-11.8 1.3-13.8-4.1-1.7-4 .9-8.4 4.9-9.6 1.5 3.3-3.7 3.4-3.3 6.5-.5 6.8 9.8 7.8 13.4 3.6 2.4-3.1.1-7.3-3.4-8.1.1-.6.4-1.7.5-2.3zm-12.2 28.2c6-2.2 11.9-4.7 18-6.8.6 3.5-3.4 3.4-5.6 4.5v7c2.2 1 6 .9 5.6 4.2-6.1-2.1-12.1-4.3-18.1-6.5 0-.6.1-1.8.1-2.4m2.4 1.1c2.6 1.1 5.4 2 8.1 3v-5.7c-2.7 1-5.4 1.8-8.1 2.7zm127 31.3c-.7-7.5-1.5-15.3.1-22.8-2.1 23.6 4.2 47.6 17.2 67.4-9.8-12.9-15.1-28.7-17.3-44.6zM48.4 430.4c2-2.6 5.1-4 7.8-5.6 0 .7-.1 2.1-.1 2.8-2.2 1.3-4.5 2.5-6.5 4.1-1.8 1.2-1.1 3.7-1.4 5.5h8v2.2H38.4c.4-3.9-1-8.4 1.2-11.9 2.9-3 7.9-1 8.8 2.9m-8 6.9h5.9c-.4-2.9 1.2-7.5-2.3-8.9-4.9-.5-3.4 5.8-3.6 8.9zm-2 12.2c.5.1 1.5.2 2 .2v9.8h5.5c0-3-.1-6.1.1-9.1l1.2-.5c1.7 2.6.4 6.5.9 9.6H54c.1-3.5.1-7 .2-10.5.5.1 1.5.2 2.1.2v12.4c-6 .1-11.9 0-17.9.1-.1-4-.2-8.1 0-12.2zm.3 24.5c1.2-4.3 8.3-4.2 9.7-.1.7 2.4.5 5 .6 7.6 2.5 0 4.9-.1 7.4 0-.1.5-.4 1.6-.6 2.1-5.8.2-11.7 0-17.5.1.1-3.2-.2-6.5.4-9.7m2.1.9c-.5 2.2-.2 4.4-.3 6.6h6.4c0-2.2.2-4.4-.3-6.5-.8-2.5-5-2.5-5.8-.1zm63.3 5.4c13.7-7.2 29.7-9.2 44.9-6.5 3.1.4 6.1 1.5 9.3 1.9 2.9-.9 5.8-2.6 8.9-1.7 5.9.9 10.2 7.3 8.7 13.1-.6 3.4-3.3 5.8-5.9 7.9 2 19.4 3.2 40.5-7 57.9 1.5 2.9 2.5 6.3 1.4 9.5-1.5 5.6-7.8 9.1-13.4 7.5-2.7-.5-4.3-2.9-6.7-4-17.3 3.8-34.7-1.6-51.1-6.9-2.5 1.3-5.3 2.5-8.2 2-5.6-.7-10-6.2-9.4-11.8.1-3.1 2.1-5.6 4-7.9-4.6-8.6-5.3-18.9-2.5-28.2 2-7.4 6.1-14 10.9-19.8-.7-4.1.2-8.8 3.7-11.5 3.3-3.2 8.3-3.1 12.4-1.5m2.2 1.6c1.7 2.4 3.5 5.1 3.3 8.2.2 3-1.5 5.5-3 7.9 1.9 2.6 4 5.1 6.1 7.5 11.6-10.1 26.4-16 41.5-18.1-.3-3.4.6-6.7 1.8-9.8-16.4-4.1-34.5-3.7-49.7 4.3m56.1-6.4c-6.8 1.7-9.2 11.4-3.9 16 4.9 5.2 14.6 2.3 15.9-4.7 1.9-6.7-5.3-13.5-12-11.3m-67.3 5.7c-6.9 2.4-8.1 12.7-2 16.7 5.6 4.3 14.6.1 15-6.9 1-6.8-6.7-12.6-13-9.8m19 26c.3.5.8 1.4 1.1 1.9 4.4-2.4 9.9-3.8 14.4-.9 5 2.7 6.7 8.7 6.2 14 9.3-8 17.3-17.5 24-27.7-1.8-1.5-3.4-3.1-4.8-4.9-14.9 1.9-29.4 7.8-40.9 17.6m-32.7 32.6c2.5-.4 4.9-.7 7.4-.8 5.2-11.9 12.4-23.1 21.9-32-2-2.5-4-5-5.9-7.6-2.8 1-5.8 2.1-8.8 1.2-3-.6-5.1-2.9-7.2-5-10.1 12-14.8 29.8-7.4 44.2m49.9-10.8c5.5 6.9 11 13.9 16.6 20.8 4.3-2.3 9.4-1.8 13.4 1 4.5-7.5 6.4-16.2 7.2-24.8.8-10.2.3-20.4-.9-30.5-1.8 0-3.7-.1-5.5-.1-8.4 12.8-18.7 24.3-30.8 33.6m-11-20.5c-4.2 1.2-7.4 5.2-7.7 9.6-.6 5.8 4.1 11.4 9.9 11.8 6.5.8 12.7-5.3 11.9-11.8-.3-6.7-7.7-11.8-14.1-9.6m-7.9.3c-9.3 8.6-16.2 19.5-21.3 31 2 1.4 3.9 3.2 5.3 5.2 9.4-3.5 18.7-7.7 26.8-13.5-6.9-.4-13-6.6-12.1-13.7-.3-3.2 4.2-6.2 1.3-9m-15.1 38.5c.3 3.4-.4 6.8-2.2 9.7 15.4 5.2 32 10.1 48.3 6.5-1.4-4.4 0-8.7 2.3-12.3-5.3-7-10.9-13.9-16.5-20.7-9.7 7-20.5 12.6-31.9 16.8m-19.1-2.1c-3.8 5.5 1 15.1 7.9 13.8-.1-.3-.4-.8-.6-1.1-3.4-1.1-6.1-4.2-5.8-7.9-.2-3.7 2.6-6.4 5.8-7.5-.4 3.5-1.5 7.1-.7 10.6 1.1 1.9 2.9 3.5 3.1 5.9l.5.5c6-1.4 9.7-8.8 6.3-14.2-3.1-6.3-13.2-6.3-16.5-.1m72 5.2c-6.4 2.3-8 11.7-2.7 16 5.1 4.9 14.7 1.7 15.7-5.4 1.7-7.1-6.4-13.7-13-10.6z"/><path d="M158.6 485c-.6-3.9 2.2-7.2 5.8-8.3-.5 3.4-1.4 6.9-.8 10.4.8 2 2.7 3.5 3 5.7-3.8-.8-8.1-3.4-8-7.8zm-66.9 5c-.3-3.7 2.6-6.5 5.8-7.7-.4 3.6-1.6 7.2-.7 10.8 1 1.7 2.2 3.2 3.3 4.8-4.4.5-8.7-3.4-8.4-7.9zm93.4-2.4c1.9 2.5 3.8 5.1 5.7 7.6-2.4-2.1-4.2-4.7-5.7-7.6zm228.9 1.7c15 .1 30-.1 45-.2 1.5 2.8 2.9 5.5 4.4 8.3 7.4 1.7 11.2 9 13.6 15.6 3.7 10.7 4.9 23 .5 33.7-2 5-6.1 8.7-10.9 11.1.1 2.8.2 5.5.4 8.3-11.2 5.5-22.5 10.8-33.8 16.3-1.3.5-2.6 1.4-4.1 1.1-7.5-1.3-15.1-2.5-22.5-3.9-.1-3.6-.3-7.1-.5-10.7-11.3 0-22.6-.1-33.9 0-1.1 1.5-2.2 3-3.2 4.5-8-.1-16-.6-24-.8 1.2-3.8 2.8-7.5 4.4-11.1 3.2-.1 6.4-.3 9.6-.5 1.5-1.4 3-2.8 4.3-4.4-7.1-4.5-10.5-12.8-11.5-20.9-2.5 0-4.9 0-7.3.1.1-3.5.1-6.9.1-10.3 2.3 0 4.6-.1 6.9-.1.6-14.8 14.2-26.2 28.5-27.2 1.9-3.5 4.9-6.8 9.1-7.2 4.5-.9 8.5 1.6 12.1 4 3.5.7 7.1.2 10.6.2.7-2.1 1.4-4 2.2-5.9m-.7 8.2c-4.3-.1-8.6.2-12.9 0-2.4-1.6-4.6-3.6-7.5-4.1-3.9-1-8.8.8-10.1 4.8 2.7.7 5.5.9 8.2 1.4 1.8 1.3 3.7 2.3 5.9 2.6.2.3.5 1 .7 1.4l.4-.1c2.8 1.5 5 3.9 7.4 6l1.5 3c.2.1.6.2.8.2.7 1.4 1.4 2.8 2.3 4.1.4 1.2.8 2.3 1.1 3.5 5.2-.6 10.5-.4 15.8-.5 16.5 0 33-.8 49.6-.5-.4-1.2-.8-2.4-1.1-3.6-4.5 0-8.9 0-13.4-.2 4.4-.2 8.9-.1 13.3-.1-.2-.7-.6-2.2-.8-2.9h-.5c-.8-1.1-.4-3.5-2-3.8-5-.2-10.1.3-15.1-.2 5.1-.2 10.3 0 15.4-.3-1.7-2.3-3-5.7-6-6.5-.3-.5-.7-1-1-1.4-1.8-.1-3.4-.4-4.5-1.7-.5-2.5-1.9-4.7-3-7-14-.1-28.1.2-42.1.1-.9 1.9-1.7 3.8-2.4 5.8m-59.5 28.1c.6-.1 1.7-.3 2.3-.5 1.4-3.2 2.3-6.7 4.4-9.6 2.1-3.5 5.4-6 8.6-8.4.5 1.7 1.9 2.7 3 3.9 1.8-.7 3.7-1.4 5.5-2-.1-2.2.3-5-2.8-4.7 4.2-.1 8.4.1 12.5-.2-.1 1.6-.2 3.3-.2 4.9 2.6.9 5.1 2 7.4 3.5 1.1-1.1 2.1-2.2 3.1-3.4 1.8 1.6 3.5 3.3 5.1 5.1-1.2.9-2.3 1.9-3.4 2.8 1.4 2.2 2.5 4.6 3.5 7h4c-.7-2.9-2-5.6-3.5-8.2 4.8 5.2 4.2 12.7 4.3 19.2-1 7.3-5.3 14-11.5 18-4.3 3.3-9.8 3.8-14.9 4.5-.3-1.6-.5-3.2-.8-4.8-3.3-.5-6.5-1.6-9.5-3.2-.9 1.2-1.8 2.3-2.6 3.5 2.3 1.2 4.8 2 7.3 2.5l-.5 1.2c.7-.2 2.2-.5 3-.7-1.4.6-2.8 1.1-4.1 1.8 9.1 1.7 19.4 1.9 27-4.1 10.7-8.1 12.5-24 6.9-35.6-3.8-8.5-11.8-14.8-20.9-16.8-15.2-3.9-32.7 8.4-33.2 24.3m21.3-13.2c-5.6 2.2-9.6 7.3-11.4 12.9h8.4c1.7-2.9 4-5.8 7.5-6.7 5.5-1.7 11.7 1.8 13.4 7.2 2.3 6.1-1.5 13.6-7.9 15-4.8 1.3-9.7-1.4-12.2-5.4-3.1-.1-6.2-.1-9.3 0 1.9 6.9 7.4 12.9 14.5 14.4 7.7 1.9 16.2-1.8 20.3-8.5 5-7.7 3.8-18.6-2.8-25-5.3-5.1-13.7-6.8-20.5-3.9m-12-.1c-3.1 3.9-5.1 8.5-6.7 13.2h4.8c1.1-3.8 3-7.2 5.5-10.2-1.2-1.1-2.4-2.1-3.6-3m48.4 8.4c2.3 7 2.5 14.5.3 21.5 21.6.1 43.3.1 65 .1 1.6-7.4 1.5-15.2-.2-22.6-8.2.1-16.4 0-24.6 0-13.5 1-27.1 0-40.5 1m-36.7 4.5c3.3.5 7.7-1.3 9.9 2.1 2.3 2.5 1.2 6.7-1.9 8-2.4.3-4.7.1-7.1.2 2.8 3.8 8.7 4.5 12.2 1.3 4.6-3.7 4.2-11.8-.9-14.9-4-2.7-9.9-.9-12.2 3.3m-27.8 2.7v5.2h9.3c0-1.8.1-3.6.1-5.4-3.2.2-6.3.2-9.4.2m9.7-.1c0 1.8-.1 3.6-.1 5.4 8.5-.2 17-.2 25.6-.1 1.4-1.6 1-3.4-.1-5.1-8.5 0-16.9 0-25.4-.2m46.8 6.4c-.6 2.4-1.3 4.7-2.2 7 1.1.7 2.2 1.5 3.3 2.2 1.3-3.1 2.5-6.2 2.9-9.5-1.4.1-2.7.2-4 .3m-49.3.9c.5 6.3 2.7 12.8 7.5 17.3 3.2 3.1 7.8 4 11.9 5.4 0-.4.1-1.1.2-1.5-1-.3-2-.7-3-1-5.4-3.8-10.8-8.3-12.8-14.8-1.2-2-1-5.3-3.8-5.4m2.2.4c1.6 4.9 3.4 9.9 7.1 13.6.9-1.2 1.7-2.4 2.5-3.7-2.4-2.9-4-6.3-5-10-1.4.1-3 .1-4.6.1m54.1 10.1l.2-.5c-.5.8-1 1.7-1.5 2.5l-.8 1.8.1-.5c-.7.9-1.3 1.8-2 2.8-.6.7-1.9 2.2-2.5 2.9-.7.2-1.2.8-1.8 1.2-1.8 1.2-3.7 2.3-5.6 3.3v7.3c3.2 0 6.4.1 9.7-.2l.1.5c.6-.1 1.7-.4 2.2-.5-.2 3.8 0 7.6.4 11.4 6.8 1.1 13.5 2.3 20.3 3.4.1-3.4-.1-6.7-.7-10h1.1l-.8.3c.7 3.3.8 6.7.8 10 11.7-5.4 23.1-11.2 34.8-16.6 0-2.4 0-4.7.1-7.1-.2-.3-.6-1.1-.8-1.4 2.8-1.4 5.7-2.8 8.1-4.8h.2v-1.3c1.1-.6 2-1.5 2.7-2.8.1-.3.3-.8.3-1.1.5-1.2.9-2.4 1.4-3.6-19.8-.1-39.7.1-59.5-.1-2.6.3-6.6-1-6.5 3.1m-12.8.5c-2.2 2.2-4.8 4-7.6 5.3l.6 4.2c4-1.6 7.5-4.1 10.5-7.2-1.3-.8-2.4-1.5-3.5-2.3m-36.9 16.3c1.8.8 3.5 1.7 5.3 2.5 2.3 1 4.7 1.8 7.2 1.5.1-2.2.1-4.3.1-6.5-2.5-.7-5-1.5-7.5-2.3-1.7 1.7-3.4 3.2-5.1 4.8m26.8-1.1v5.1h8.6v-7.1c-2.8.8-5.6 1.5-8.6 2m-13.8-1.2c0 2.1-.1 4.2-.1 6.3h6.2c0-1.8-.1-3.5-.1-5.3-2.1-.3-4.1-.6-6-1m6.3 1.1c0 1.7.1 3.5.1 5.2h7v-5.1c-2.3 0-4.7 0-7.1-.1m-29.1 2.6c-1.2 2-1.9 4.3-2.8 6.5 6.5.2 13 .6 19.5.7 1-1.4 2-2.7 2.9-4.1-3.4-.9-6.6-2.5-9.8-4-3.2.6-6.5.5-9.8.9zM37.8 494.2c4.9-.5 9.9-.7 14.7.1 4.2 1.1 4.9 6.8 3 10.2-1.4 2.2-4.2 2.5-6.6 2.5-3.6 0-7.2.3-10.7-.3-.2-1.4.3-2 1.7-1.9 3.8-.2 7.5.2 11.3-.2 4.3-.3 4.4-8 0-8.3-4.1-.5-8.2 0-12.2-.3-.3-.4-.9-1.3-1.2-1.8zm259.1 36.3c19-3.8 36.7-13 51.3-25.7-3 3.8-7.1 6.3-11 9.1-8.3 5.9-17.6 10.4-27.2 13.6-11 3.5-22.7 6.2-34.3 5.5 7-.4 14.2-.9 21.2-2.5zM115.2 519c-.4-3.7 2.4-6.6 5.7-7.6-.3 3.5-1.6 7.1-.6 10.6.8 1.9 2.4 3.2 2.9 5.3-4.1-.5-8.5-3.7-8-8.3zM43 529.3c-6.8-.4-6.1-12.3.7-12.3 0 .5-.1 1.5-.1 2-4 .5-4.7 7.5-.5 8.2 4.1-1.5 2.1-8.2 6.1-10.1 3.8-2 8 2 7.5 5.9.4 3.6-3 8.1-6.9 6.3 1.9-1.8 5.1-3.1 4.8-6.2.6-2.7-2.6-5.9-4.9-3.5-2.1 3.2-1.5 9.7-6.7 9.7zm170.6 3.4c.6-.5 1.3-1.1 1.9-1.6 2.9 2.9 5.5 6.1 8.7 8.6 8.5 3.1 17.2 5.4 25.8 8.3-5.1 10.2-8.7 21.2-14.5 31.1-9.1-8-17.8-16.5-26.4-25 .4-.4 1.2-1.1 1.6-1.5 8.2 4.3 16.1 9.2 24.4 13.6-6.9-11.4-14.3-22.4-21.5-33.5m8.5 8.6c5.4 8.6 11 17.1 16.5 25.6 1.8-1.4 1.9-4.1 3-6-6.5-6.5-13-13.1-19.5-19.6m5.8 2.2c4.8 5.2 9.8 10.1 14.8 15 1.4-3.1 2.9-6.1 4.1-9.2-6.4-1.8-12.6-3.9-18.9-5.8m-9.1 16.4c5 5.5 10.7 10.4 16.1 15.5.9-1.6 1.8-3.3 2.8-4.9-6.3-3.7-12.6-7.3-18.9-10.6zm101.5-28.6c.5.2 1.5.6 2 .7-6.5 11.8-14.7 22.5-21.5 34.1 8.3-4.3 16.2-9.2 24.5-13.6.4.4 1.1 1.2 1.5 1.6-8.6 8.5-17.4 16.9-26.4 25-1.9-3.7-4.2-7.2-5.6-11.1-2.6-6.8-5.9-13.4-8.9-20 8.6-2.9 17.4-5.2 25.9-8.3 3.2-2.4 5.7-5.5 8.5-8.4M294.4 561c1.1 1.9 1.2 4.6 3 6 5.5-8.6 11.2-17.1 16.6-25.8-6.5 6.6-13 13.2-19.6 19.8m-5.3-11.5c1.5 3 2.8 6 4.2 9 5-5 10.1-9.9 14.8-15.1-6.3 2.1-12.7 4-19 6.1m9.3 21c.9 1.6 1.9 3.3 2.8 4.9 5.3-5.2 11-10 16-15.5-6.4 3.4-12.6 6.9-18.8 10.6zM147.2 559c-.6-3.9 2.4-6.9 5.7-8.2-.3 3.1-1.1 6.1-1 9.2.2 2.7 2.9 4.3 3.3 7-4-.7-8.3-3.4-8-8zm136.1 8.7c2.4 2.4 3 5.9 2.9 9.2-6.7 0-13.5-.5-20.2-.6-5.8-.2-11.9 1.5-17.5-.8-.3-1.7.1-3.4.9-4.9l-.2 1.2-.3 1.8c3.9-3.3 9-1.9 13.4-.8-4.3-.1-9.6-2.5-13 1.3 0 .3 0 .9.1 1.2 3.4 1.3 7.2.9 10.7.7 8.6-.7 17.3.5 25.9.4-.1-3-1-6.1-2.7-8.7zm-30.1 14.6c4.3-2 9.2-1.8 13.9-2 6.4.1 13.1-.2 19.1 2.3-10.8-2.5-22.2-2.7-33-.3zm138.1 80c1.6-1.7 4.3 1.1 2.5 2.5-1.6 1-3.6 1.3-5.5 1.5-.8-1.9 1.9-2.9 3-4zM230 668.5c5.6-2.3 13 1.2 13.4 7.6 1.2 5.9-4.6 11.6-10.5 10.5-2.2.2-3.6-2.2-5.8-2l.9-1.5-2.1 1 .8-1.5c-2.5-2.9-.6-7.1-1.4-10.5l1.2.8c1-2 2.2-4.1 5-4-3.5 4.9-3.1 11.5-.7 16.8 2.1.5 5.1 1 6.2-1.5 1.9-4 1.8-9 .2-13-1.2-3.2-4.7-2.6-7.2-2.7zm115 .8c5.6-4 14.2.9 14 7.7.6 5.8-4.9 10.1-10.3 10.1 5.8-2.4 5.9-9.4 4.6-14.6-.5-2.4-2.7-4.4-5.3-4.1-2 1-3 3.4-3.4 5.6-.5 4.2-.5 9 2.8 12.1-2.7-.1-4.3-2.2-6.1-3.7l.6-1.5c-.5.3-1.4.9-1.9 1.2 1-3.2.8-6.5.1-9.7l1.9 1.2-1.1-2.5 1.8 1c-1.5-2.4 1.1-2.4 2.3-2.8zm116.5-.6c3.2-1.1 7-1.2 9.8 1 5.1 3.5 5 12.3-.4 15.5-2.4 1.7-5.5 1.6-8.2 1.1-.6-.3-1.7-.8-2.3-1l.1-1c-.5 0-1.4.2-1.9.2l.1-1.4-1.6.4c.2-.6.7-1.9 1-2.5l-2.3.9c.3-.7.9-2 1.2-2.7l-1.4.3c0-1.3 0-2.7-.1-4l1.5.4c-.3-.7-.9-2.2-1.2-3 .5.3 1.4 1 1.9 1.3-.5-2.6 2.5-3.8 3.8-5.5m0 2.8c-1.6 4.6-1.1 9.7 1.1 14 1.7.1 3.8.9 5.2-.5 2.5-2.7 2.4-6.7 2.1-10.1-.3-2.5-1.1-5.7-3.9-6.3-2.1-.9-3.8 1.2-4.5 2.9zm-382.2-3.2c2.2.1 4.3.1 6.5 0-.8 1.5-1.2 3.1-1.1 4.7.1 4.4-.5 8.9 1 13.2-2.5.1-5.1 0-7.6 0 .8-.6 1.6-1.2 2.4-1.7-1-5.4.6-11-1.2-16.2m1.2.6c.8 5-1.1 10.7 1.4 15.2.2-3.4.1-6.8.2-10.2-.3-1.7.6-4.1-1.6-5zm8.3-.4c2.2.1 4.5-.3 6.6.2 3.5 3.2 6.4 7 10.1 10 .1-3.6.6-7.8-2.4-10.4 2 .1 3.9.2 5.9.1-4.3 5.1-1.6 12.3-2.6 18.4-.2 0-.7-.1-.9-.1l.2-1c-.4-.4-1.2-1.3-1.6-1.7-1-1.1-3.5-1.8-2.5-3.7-1.6-1.7-3.1-3.5-4.8-5.1-1.2-1.9-2.6-3.6-4.2-5.1-.9 1.4-.2 3.4-.4 5 .1 3.8-.8 8.4 2.4 11.2H89c3.5-4.9 2.1-11.3 1.7-16.9-.4-.3-1.4-.7-1.9-.9zm25.6 1.1c4-2 8.5-1.9 12.7-.5-.5 1.6-.9 3.3-1.4 5-.9-2.2-2-4.9-4.6-5.3-2.8-.7-5.6 2.5-3.7 5 2.8 1.4 6.1 1.5 8.8 2.9 2.9 2.1 2 7-1 8.5-4.1 2.6-9.3 1.4-13.6-.1.5-1.8 1-3.5 1.5-5.3.9 4.6 6.1 7.9 10.3 4.8l-.1-1.7c.4.3 1.1.9 1.5 1.2 0-.8-.1-2.4-.1-3.2-.3-.3-.9-1-1.2-1.4-3.7-.4-7.5-.9-10.3-3.5.2-.5.7-1.6.9-2.1l-1.6.6v-2.3l1.7.6c-.3-.7-.9-2-1.2-2.7l1.9.8zm16-1.2h16.3c.5 1.8.9 3.6 1.3 5.4-2-1.9-4-4.7-7.1-4.2-.1 4.5-.3 9 0 13.5-.1 1.3 1.1 2.2 1.7 3.2-2.9-.1-5.7-.1-8.6-.1.8-.5 1.7-1.1 2.5-1.6-.8-5-.4-10.1-.3-15.1-3.2-.2-5.2 2.3-7.2 4.4.5-1.9.9-3.7 1.4-5.5m6.5 1.7c-.3 4.5-.3 9.1.1 13.6l1-.1v-13.5zm13.8-1.6c2.4 0 4.8-.1 7.2-.2-.4.4-1.1 1.3-1.4 1.7.3 5.4-1 11.1 1.1 16.3-2.6-.1-5.1 0-7.7-.1l2.4-1.8c-.5-4.9-.4-9.8-.1-14.7-.3-.4-1.1-.9-1.5-1.2m2.2.8c0 4.9-1.4 10.3.9 14.8.3-3.3.2-6.7.2-10-.1-1.7.3-3.6-1.1-4.8zm9.2-.8c5.2-.1 10.4-.1 15.7 0 1.2 1.4 1.2 3.5 1.8 5.2-2-1.4-4.7-5.8-7.1-3.4.1 5.2-1.4 11.1 1.3 15.9-2.8-.1-5.7 0-8.5-.2l2.4-.9c-.1-.6-.3-1.8-.4-2.3.4.4 1.3 1.2 1.7 1.6-.4-4.7-.4-9.4-.1-14.2-3.4-2.1-6.1 1.2-8.3 3.4.4-1.6.5-3.6 1.5-5.1zm19.7 0c2.4 0 4.7-.1 7.1-.2-2.3 4.1-1.2 9.1-1.1 13.7.5 5.4 9.5 4.2 9.4-.9.1-4.3 1.4-10.1-2.9-12.7 2.2.1 4.4.1 6.7 0-4.9 4.2-.6 11.5-4.2 16.3-3 3-7.8 2.3-11.4.8-.7-.6-1.3-1.2-2-1.8.2-4.4 0-8.7.2-13.1l-1.8-2.1zm22.5-.1h16.3c.5 1.8.9 3.6 1.4 5.5-2-1.6-4.1-5.3-7.1-3.9-.3 4.3-.3 8.7-.1 13.1-.1 1.4 1 2.3 1.7 3.3-2.9-.1-5.8 0-8.6-.1.9-.6 1.8-1.1 2.7-1.7-1-5-.4-10-.4-15-3.2-.3-5.3 2.3-7.3 4.4.5-2 1-3.8 1.4-5.6m6.5 1.9c.2 4.5-1.3 9.6 1 13.8.3-4.6.1-9.2.1-13.8zm44.8-1.9h16.3c.5 1.8 1 3.5 1.5 5.3-2.1-1.5-4.2-5.2-7.1-3.7-.4 4-.2 8.1-.1 12.1-.1 1.6.7 2.9 1.6 4.2-2.7-.1-5.3-.1-8-.1.4-.4 1.3-1.2 1.8-1.6-.3-5.1 0-10.2-.1-15.2-3 .1-5.1 2.5-7.1 4.4.3-1.8.8-3.6 1.2-5.4m6.2 2.6c0 4.5-1.3 9.7 1.1 13.8.2-5.1.1-10.3 0-15.4-.3.4-.8 1.2-1.1 1.6zm14.1-2.7c4.9.2 9.9-.1 14.8.1 1.1 1.3 1 3.2 1.5 4.8-2.8-2.6-6.2-4.5-10.1-4v7.2c2.9 0 5.8-.7 7.4-3.3-.1 2.2-.1 4.5 0 6.8-1.9-2.1-4.7-2.8-7.5-2.8.2 2.5-.6 5.3.9 7.5 4.5 1.7 8.1-2.2 11-5-.7 2.2-1.3 4.3-2 6.5-5.5 0-11 .1-16.4-.1.4-.2 1.4-.6 1.8-.9-.1-5.2 0-10.4 0-15.6-.3-.2-1-.8-1.4-1.2m1.9.9c0 4.9-.7 10 .3 14.9l.9.9c.2-5.2 0-10.5.1-15.7zm24.5-.7c4-.8 8.2-.7 11.8 1.2-.5 1.8-1.1 3.7-1.6 5.5-1.1-2.4-1.5-5.8-4.5-6.4-3.2-1-5.7 2.2-6.3 5-1.2 4 0 8.1 2 11.6 2 .2 4.3.9 6.2-.4 1.8-1.1 2.2-3.4 3-5.2.6 1.6 1.1 3.2 1.7 4.8-3.8 1.7-7.9 2.2-12 1.7l.1-1.3c-.5.2-1.6.6-2.2.7l.5-1.7-1.9.8.9-1.9-2 .9.8-2.2-1.9 1c.3-.6.8-1.9 1-2.5l-1.6.5c0-2.1 0-4.1-.1-6.2l1.9.6c-.3-.7-1-2.1-1.3-2.9l2.1 1.3c-1.9-2.6 1.7-4.4 3.8-3.9zm14.3.1c2.5.2 5.8-1.2 7.7 1.1 2.9 2.8 5.4 6 8.5 8.6.3.2.9.7 1.3 1 0 1.9-.1 3.8-.2 5.7-4.5-5.2-8.9-10.5-13.8-15.3-1.3-.4-2.4-.6-3.5-1.1zm45.3-.2c2.6.1 5.3.1 7.9-.1-.6.8-1.7 1.4-1.7 2.6-.2 4.1-.3 8.2.1 12.3 0 1.4 1.4 2.4 2.8 2.1 3.6-.3 5.8-3.4 8.2-5.6-.7 2.1-.7 4.7-2.1 6.4-5.3.3-10.7 0-16 .1.8-.6 1.6-1.1 2.4-1.7-.5-4.9-.3-9.9-.2-14.8-.4-.4-1.1-1-1.4-1.3m2 .8c.2 4.9-1.3 10.5 1 15 .2-3.4.1-6.8.2-10.2-.3-1.6.5-3.8-1.2-4.8zm23.5-.6c3.1-.2 6.6-1.3 9.3.7 5.2 2.9 6 11.1 1.5 15-1.6 1.5-3.8 2-5.8 2.7 4.1-4.1 4.6-10.7 2.4-15.9-1.2-3.3-6.4-3-7.3.4-1.4 4.7-1.8 10.7 1.9 14.4l-3.1-.3.2-1.2-1.1.3c-.3-.3-.8-.9-1.1-1.2l.3-.9-1.6.2c.2-.6.6-1.8.9-2.4l-1.8.7c.7-2.6.5-5.3-.1-7.8l2 .7c-.2-.7-.7-2-1-2.7l1.9.9-.8-2 1.9.8-.6-1.6c.5.1 1.5.4 2 .6zm22.1.1c4.1-.8 8.3-.9 12.1 1-.6 1.9-1.1 3.7-1.7 5.6-.7-1.7-1.1-3.4-2.2-4.9-1.9-2.4-6.2-2.1-7.5.7-2.5 4.5-1.6 10 .6 14.3 1.7.1 3.8 1 5.3-.3 1.4-2.8 1.3-6.9-2.1-8 3.1.1 6.2 0 9.3 0-.4.5-1.3 1.4-1.7 1.8v5.9c-3.4 1.6-7.1 2.4-10.8 1.6-2.1-1.7-4.4-3.4-5.4-6l-1.2.7c1.1-3.2-.5-6.7 1.1-9.7l1.7.9-.7-2.1 1.9.9-.7-1.8c.6.2 1.7.6 2.2.8zm-4.2 4.4c.5.6.5.6 0 0zm20.6-4.7c2.3 0 4.6 0 6.9-.1-2 5.3-.9 11.2-.6 16.7.5.4 1.1.8 1.7 1.2-2.9 0-5.8 0-8.6.1.6-.7 1.8-1 2-1.9.2-4.9 0-9.8.1-14.6-.5-.5-1.2-1.1-1.5-1.4m1.7 1c.1 5 0 10 .2 15h1.2v-14.8zm13.9-.8c4.1-.7 8.4-.9 12.3 1-.5 1.9-1 3.7-1.5 5.6-1.1-2.5-1.8-6.3-5.2-6.4-3.9-.4-5.7 3.9-6 7.1-.6 3.5.8 6.8 2.6 9.7 2 .2 4.4.8 6.1-.6 1.8-1.2 2.1-3.4 2.9-5.3.5 1.7.9 3.4 1.4 5.1-3.6 1.7-7.6 2.2-11.5 1.7l.2-1.4c-.6.2-1.8.7-2.4 1l.8-1.7c-1.7 1.1-2.6-.7-3.7-1.5 0-3.7.1-7.3 0-11 .3 0 1-.2 1.4-.2l-.2-.7c.5-.4 1.5-1.1 2-1.5l1.4.6z"/><path d="M318.8 669.7l1.1 1v1.5c.3 4.6-1.3 10.1 2.2 13.9h-5.6c4.1-4.4 2-10.9 2.3-16.4zm-164.7 41.8c5 .5 10.9-1.3 15.2 2.2 4.9 3.7 3.9 12.5-1.9 14.7-4.6 1.7-9.6.6-14.3.9.8-.6 1.6-1.3 2.5-1.9-.6-5-.6-10.2 0-15.2l-1.3.3c-.1-.2-.1-.7-.2-1m5.7.9c0 5.3-.2 10.5.3 15.8 2 .3 4.5.6 5.7-1.4 2.1-3.4 1.9-7.8.8-11.4-1-2.9-4.4-2.8-6.8-3m-4.2 7.6c.2 2.4-.3 5.1 1.2 7.1.2-4.8.2-9.7 0-14.5-1.5 2.1-1 4.9-1.2 7.4zm19.7-8.6c5 .2 10 .1 15.1.1.4 1.7.8 3.4 1.3 5.1-2.7-2.8-6.2-4.7-10.2-4.3v7.2c2.9 0 6-.6 7.4-3.4-.1 2.3 0 4.5.1 6.8-2-2.1-4.7-2.7-7.5-2.7.2 2.4-.4 5.1.8 7.4 4.4 2 8.2-1.9 11-4.8-.5 2.2-1.2 4.3-1.9 6.4H175c.4-.2 1.2-.7 1.6-1 .3-5.1.7-10.3 0-15.4-.4-.2-1-1-1.3-1.4zm35 .1c3.9-.7 8-.5 11.6 1.3-.6 1.8-1.1 3.6-1.7 5.5-1-2.6-1.8-6.5-5.3-6.4-3.4-.4-5.2 3.1-5.7 5.9-.8 3.7.3 7.5 2.3 10.6 1.9.3 4 1 5.8-.1 2.1-1.1 2.6-3.6 3.3-5.6.5 1.7 1 3.4 1.4 5.1-3.7 1.8-7.8 2.2-11.8 1.6l.4-1.1c-2 .8-5.8-1.1-3.9-3.7l-1.9 1.2c-.7-3.2-1.2-6.6 0-9.7 1.5-1.7 2.9-4.5 5.7-3.5zm14.8 0c2.2 0 4.4 0 6.6-.1-1.1 2.5-1.1 5.3-1 8h7.2c-.2-2.7.7-5.9-1.5-8 2.4.2 4.8.2 7.2 0-1.6 2.6-1.1 5.7-1.2 8.6.1 3.1-.4 6.5 1.2 9.4-2.5-.1-5-.1-7.6 0 2.4-2.4 1.6-5.9 1.8-8.9h-7.3c.2 3-.7 6.7 1.8 9-2.9-.2-5.7-.1-8.6-.2.9-.7 1.7-1.4 2.7-1.8-.8-5-.7-10.2-.1-15.3l-1.4.3c.3-.2.2-.7.2-1m1.5 8.5c.2 2.3-.3 5 1.3 6.9.3-4.7.2-9.4 0-14.1-1.8 1.9-1.1 4.8-1.3 7.2zm20.7-8.6c4.9.3 9.7.2 14.6.1.4 1.7.8 3.4 1.2 5.2-2.6-2.9-6.2-4.7-10.1-4.3v7.2c2.8.1 5.4-.7 7.4-2.6v6c-2-1.9-4.7-2.6-7.5-2.6.3 2.4-.7 5.5 1 7.4 4.4 1.9 8-2.2 11-4.9-.8 2.1-1 4.7-2.4 6.4-5.5.1-11 .1-16.5 0l2.4-.9c-.6-5.7.8-11.6-1.1-17m1.1.5c.9 5.3-1 11.2 1.4 16.1.2-5 .3-10.1 0-15.1zm39.5-.3c2.6 0 5.3 0 7.9-.2-.8 1-2 2-1.8 3.5-.1 4.7-.8 9.9 1.9 14-1.5.8-3-.1-4.5-.3l.5-1.5-1.7.8c.9-4.7.5-9.6.4-14.4-1.4 4.2.4 8.8-1.1 12.9-.3-4.6-.1-9.2-.1-13.8-.4-.2-1.2-.8-1.5-1zm13.2-.1h5.9c-3.3 3.7-1.8 8.9-2.5 13.4-.4 3-3.7 5.4-6.7 4.5-.3-.2-.9-.5-1.2-.7 2.6-.2 6.3-.5 6.8-3.8.4-4.4 1.4-10-2.3-13.4zm33.2 17.7c4.5-5.4 6.6-12.3 10.2-18.3 3.4 6.1 5.7 12.9 10.1 18.4-2.4 0-4.8 0-7.2.1 0-1.8.2-3.7.5-5.4-.5.3-1.5.8-2 1.1.3-.7.9-2 1.2-2.7-2.5 0-4.9-.1-7.3-.2-1.3 2.4-2.6 5.3.1 7.2-5.2.4-10.4-.1-15.7 0 2.9-4.3 1.4-10 1.4-14.8-2.2 4.3-3.1 9.3-5.9 13.2 0 .6-.1 1.8-.1 2.4-1.3-1.5-1.2-3.4-.6-5.2-.5.2-1.5.7-2 1 .3-.7.9-2.2 1.2-2.9l-2 .6c.1-.5.5-1.4.6-1.8-1.2-1-1.5-2.2-.9-3.8l-1.5.5c.2-1.2.5-3.6.6-4.8-2.5 2.4-1.7 6.1-1.8 9.2-.1 2.4.9 4.6 2.4 6.3h-6c1.1-1.6 2.3-3.2 2.4-5.3.2-4.5.8-9.2-1.3-13.4.9 1 2.6 2.9 3.5 3.9-.2-.8-.5-2.5-.7-3.4.7.1 2.1.4 2.9.5 2 3.3 3.2 7.1 5 10.5 1.7-3.5 3-7.1 4.5-10.7 2 0 4-.1 6-.2-1 1.3-1.5 2.9-1.3 4.6 0 4.1-.2 8.2.4 12.2 1 .4 2.2.8 3.3 1.2m5.8-7.9c1 0 3.1.1 4.2.1.2-1.4.4-2.7.5-4l-1.7.6c.2-.8.7-2.4.9-3.3-1.6 2-2.9 4.3-3.9 6.6m5.1-.9c.6.6.6.6 0 0zm11.8-8.9c2.5 0 5.1 0 7.6-.1-2.9 2.3-1.5 6.3-1.9 9.5.3 2.3-.6 5.3 1.2 7.2 4.3 1.4 7.3-2.8 10.1-5.4l-1.8 6.6h-16.3c.8-.7 1.7-1.4 2.7-1.9-.8-4.5-.5-9.2-.4-13.7-.4-.8-.8-1.5-1.2-2.2m1.8 1.9c.3 4.2-1.2 9.1 1.1 12.9.2-4.3.1-8.7.1-13zm-90.7-1.8c5.5-.1 10.9 0 16.4-.1.5 1.8 1 3.6 1.4 5.4-2-1.9-3.9-4.5-7-4.3 0 5.6-1 11.4 1 16.7h-6.3c-.1-.5-.2-1.5-.3-2l1.6.6c-.9-5-.4-10.2-.4-15.3-3.3-.5-5.4 2.1-7.4 4.2.2-1.7.6-3.4 1-5.2z"/></g><path d="M56.5 9.8c6.8-1.4 13.7-1 20.5-1h401.9c20.1-.1 39.6 11.4 49.7 28.7 5.3 8.9 8.1 19.2 8.1 29.6v652c.1 14.2-5.3 28.4-14.9 38.9-10.7 12.1-26.7 19.4-42.9 19.4H67c-15.2 0-30.3-6.4-41-17.3C15.4 749.2 9.1 734.2 9.2 719V67C9.1 53.5 14 40 22.8 29.7c8.5-10.3 20.6-17.5 33.7-19.9m77.6 30.6c-.9 17.6-1.5 35.3-2.1 52.9-11.8 3.9-23.8 7.3-35.6 11.3 0 1.9.1 3.8.1 5.7h19v43.4c-9.5.1-19 0-28.5.1-.1-14.5.1-29-.1-43.5-11.2.1-22.5 0-33.8 0v62.5C42 173 32.3 183 32.5 194v397.9c-.5 11.6 9.8 22.3 21.5 21.9 65.2.2 130.4.4 195.7.5-4.1-3.9-8.4-7.5-12.7-11.3 7-.3 14.1-.1 21.1-.2 1.4 5.1 2.9 10.2 4 15.4 2.9 10.7 5.6 21.5 8.7 32.1 1.6-3 1.7-6.5 2.3-9.8h-.8c-.1 2.3-.2 4.7-1.9 6.4-1.2-5.3-2.9-10.6-3.9-15.9 1.5 1.6 2.9 3.3 4.2 5.1-1 2.1-.7 4.4-.4 6.6 1.9-3 2.1-6.6 3.1-9.9.5.8.9 1.7 1.4 2.5.1-5.8 2.5-11.2 3-16.9l.8-.6c0-5 2.3-9.7 2.4-14.7-1.3 2.9-1.8 6.1-2.1 9.3h-1.2c0-2 .1-3.9.1-5.8-.6 1.2-1.1 2.5-1.7 3.7-.1-4.8-1.5-9.4-1.5-14.1h-1.2v5.9c-.2.5-.6 1.5-.8 2.1-.3 1.9-.3 3.8-.7 5.8-1.3-1.3-.8-3.4-1-5 0-3.8-1-7.5-1.2-11.3h9.8c-.5 4.1-1.5 8.2-.9 12.4.3-4.1.6-8.3 1.3-12.3.7 0 2.1-.1 2.9-.1-.6 3-1.2 6.1-1.8 9.2 8 .1 16-.1 24.1.1-4.3 4-9.1 7.5-13.3 11.7 29.1 0 58.3-.2 87.4-.3 1.4 0 2.6.5 3.9.8 1.2-.5 2.6-.9 3.9-.8 34.3-.1 68.7-.2 103-.4 8.7.1 17-5.7 20-13.8 1.7-4.1 1.4-8.7 1.4-13v-393c.2-12.2-11.5-22.5-23.5-21.3v-63.5c-11.1 0-22.1.1-33.2 0-.2 14.7-.1 29.4-.1 44.1-8.3-13.7-15.8-27.9-23.8-41.8-.8-.1-2.5-.3-3.3-.4 2.8-2.4 6-4.5 8.2-7.5 3.5-4.7 4.5-10.9 3.3-16.5-1.4-7.3-7-13.7-14.1-16.1-7.3-2.6-15.9-.9-21.5 4.5-6.6 6-8.9 16.1-6.2 24.6 1.4 4.8 5.2 8.1 8.9 11.1l-3.6.4c-6.6 13.8-13.4 27.4-20 41.1h-13.7c-.2-26.8 0-53.6-.1-80.4-14.5 0-29-.2-43.5-.1-.1 5.3-.1 10.6-.6 15.8 3.1.1 6.2 0 9.3 0 .1 26.2.1 52.5.2 78.7-19.1.2-38.3.8-57.4.3-5.3-.7-10.6.3-15.9.2-10.3-.1-20.7.1-31 0-8.1-.4-16.1-.8-24.2.1-.1-3.6-.3-7.2-.4-10.8-6.7 0-13.4-.1-20 0-.2-19.9 0-39.9-.1-59.8h-6.9V84.2h-9c.1-6.7 0-13.4 0-20.1h-13.7v19.2c-3.3 0-6.6 0-9.8.1-.7-1.2-1.3-2.5-1.4-3.9-1.3-12.8-2.8-25.7-4.1-38.5-1.9-.5-4-.5-6.1-.6m93.2 19.8v8.9c-3.9 0-7.8 0-11.7.1.1 4.8.1 9.5 0 14.3h6.3c-.2.7-.5 2-.6 2.7 1.7-2.9 3-6.2 5.8-8.2 9.4-2.6 19.4-3 29.1-1.2-2.4-.7-4.8-1.1-7.2-1.5 0-2.1-.1-4.2-.1-6.3h-7.2v-8.7c-4.9-.1-9.6-.1-14.4-.1m48.5 76.7c4.1-1.1 7.8-3.7 12.1-4 4-.2 8.1-.2 12.1-.1 3.8.1 7.4 1.7 11.3 1.8-7.5-2.8-15.5-2.7-23.3-2.3-4.4.5-8.4 2.5-12.2 4.6m-2.7 500.3c-.9 1.2-.7 2 .6 2.3.9-1.2.7-2-.6-2.3m118.2 25.1c-1.1 1.1-3.9 2.1-3 4.1 1.9-.3 3.9-.5 5.5-1.5 1.8-1.6-.9-4.3-2.5-2.6M230 668.5c2.5.1 6-.5 7.2 2.4 1.7 4 1.8 9-.2 13-1.1 2.5-4.1 2-6.2 1.5-2.4-5.2-2.9-11.9.7-16.8-2.7-.1-4 2-5 4l-1.2-.8c.9 3.4-1.1 7.6 1.4 10.5l-.8 1.5 2.1-1-.9 1.5c2.2-.2 3.6 2.2 5.8 2 5.9 1.1 11.6-4.5 10.5-10.5-.4-6-7.9-9.6-13.4-7.3m115 .8c-1.2.5-3.7.5-2.2 2.8l-1.8-1 1.1 2.5-1.9-1.2c.7 3.2.9 6.5-.1 9.7.5-.3 1.5-.9 1.9-1.2l-.6 1.5c1.8 1.5 3.4 3.7 6.1 3.7-3.3-3.1-3.4-7.9-2.8-12.1.3-2.2 1.3-4.6 3.4-5.6 2.6-.4 4.7 1.6 5.3 4.1 1.2 5.1 1.1 12.2-4.6 14.6 5.4 0 10.9-4.4 10.3-10.1.1-6.9-8.6-11.7-14.1-7.7m116.5-.6c-1.3 1.8-4.3 2.9-3.8 5.5-.5-.3-1.4-.9-1.9-1.3.3.7.9 2.2 1.2 3l-1.5-.4c0 1.3 0 2.7.1 4l1.4-.3c-.3.7-.9 2-1.2 2.7l2.3-.9c-.2.6-.7 1.9-1 2.5l1.6-.4-.1 1.4c.5 0 1.4-.2 1.9-.2l-.1 1c.6.3 1.7.8 2.3 1 2.8.5 5.8.5 8.2-1.1 5.4-3.2 5.5-12 .4-15.5-2.8-2.2-6.5-2.2-9.8-1m-382.2-.4c1.8 5.2.3 10.8 1.1 16.1-.8.5-1.6 1.1-2.4 1.7 2.5 0 5.1.1 7.6 0-1.5-4.2-.9-8.8-1-13.2-.1-1.7.3-3.3 1.1-4.7-2.1.2-4.3.2-6.4.1m9.5.2l2 .8c.4 5.6 1.8 12-1.7 16.9h5.6c-3.3-2.8-2.3-7.4-2.4-11.2.3-1.6-.4-3.6.4-5 1.5 1.6 3 3.3 4.2 5.1 1.7 1.6 3.2 3.3 4.8 5.1-1 1.9 1.4 2.6 2.5 3.7.4.4 1.2 1.3 1.6 1.7l-.2 1c.2 0 .7.1.9.1 1-6.1-1.7-13.2 2.6-18.4-2 0-3.9 0-5.9-.1 3 2.6 2.5 6.8 2.4 10.4-3.7-3-6.6-6.8-10.1-10-2.2-.4-4.5 0-6.7-.1m25.6 1.1l.4 1.5-1.9-.8c.3.7.9 2 1.2 2.7l-1.7-.6v2.3l1.6-.6c-.2.5-.7 1.6-.9 2.1 2.8 2.6 6.7 3.1 10.3 3.5.3.3.9 1 1.2 1.4 0 .8.1 2.4.1 3.2-.4-.3-1.1-.9-1.5-1.2l.1 1.7c-4.2 3.1-9.4-.3-10.3-4.8-.6 1.8-1.1 3.5-1.5 5.3 4.3 1.5 9.5 2.6 13.6.1 3-1.6 3.9-6.5 1-8.5-2.8-1.5-6-1.6-8.8-2.9-1.9-2.5.9-5.7 3.7-5 2.7.4 3.8 3.1 4.6 5.3.5-1.7 1-3.3 1.4-5-4.1-1.6-8.6-1.6-12.6.3m16-1.2c-.5 1.8-.9 3.6-1.3 5.4 2-2 4.1-4.6 7.2-4.4-.1 5-.5 10.1.3 15.1-.8.5-1.7 1.1-2.5 1.6 2.9 0 5.7 0 8.6.1-.7-1-1.8-1.9-1.7-3.2-.3-4.5-.1-9 0-13.5 3.2-.5 5.1 2.3 7.1 4.2-.4-1.8-.9-3.6-1.3-5.4-5.5.1-11 .1-16.4.1m20.3.1l1.6 1.2c-.3 4.9-.4 9.8.1 14.7l-2.4 1.8c2.6.1 5.1.1 7.7.1-2.1-5.1-.8-10.9-1.1-16.3.4-.4 1.1-1.3 1.4-1.7-2.4.1-4.9.1-7.3.2m11.4 0c-1.1 1.5-1.2 3.5-1.7 5.2 2.3-2.1 4.9-5.5 8.3-3.4-.3 4.7-.3 9.4.1 14.2-.4-.4-1.3-1.2-1.7-1.6.1.6.3 1.8.4 2.3l-2.4.9c2.8.1 5.7.1 8.5.2-2.7-4.8-1.1-10.7-1.3-15.9 2.4-2.4 5.1 1.9 7.1 3.4-.6-1.7-.6-3.9-1.8-5.2-5-.3-10.3-.3-15.5-.1m19.7 0l1.8 2.1c-.2 4.4 0 8.7-.2 13.1.7.6 1.3 1.2 2 1.8 3.6 1.5 8.4 2.1 11.4-.8 3.6-4.8-.7-12.1 4.2-16.3-2.2.1-4.4.1-6.7 0 4.3 2.7 3 8.4 2.9 12.7 0 5.1-8.9 6.3-9.4.9-.1-4.5-1.2-9.5 1.1-13.7-2.4.1-4.8.1-7.1.2m22.5-.1c-.5 1.8-.9 3.6-1.3 5.4 2-2.1 4.1-4.7 7.3-4.4-.1 5-.6 10 .4 15-.9.5-1.8 1.1-2.7 1.7 2.9.1 5.8 0 8.6.1-.7-1-1.8-1.9-1.7-3.3-.2-4.3-.3-8.7.1-13.1 3-1.4 5.1 2.3 7.1 3.9-.4-1.8-.9-3.6-1.4-5.5-5.5.2-10.9.2-16.4.2m51.3 0c-.5 1.8-.9 3.6-1.4 5.4 2-2 4-4.3 7.1-4.4.1 5.1-.2 10.1.1 15.2-.4.4-1.3 1.2-1.8 1.6 2.7 0 5.3 0 8 .1-.9-1.3-1.7-2.6-1.6-4.2-.1-4-.2-8.1.1-12.1 2.9-1.5 5 2.3 7.1 3.7-.5-1.8-1-3.6-1.5-5.3h-16.1m20.3-.1c.4.3 1.1 1 1.5 1.3 0 5.2-.1 10.4 0 15.6l-1.8.9c5.5.2 11 .1 16.4.1.7-2.1 1.4-4.3 2-6.5-3 2.8-6.5 6.7-11 5-1.5-2.2-.7-5.1-.9-7.5 2.8 0 5.6.7 7.5 2.8-.1-2.3-.1-4.5 0-6.8-1.7 2.6-4.5 3.3-7.4 3.3-.1-2.4-.1-4.8 0-7.2 3.9-.4 7.4 1.5 10.1 4-.5-1.6-.4-3.5-1.5-4.8-5-.2-9.9.1-14.9-.2m26.4.2l.3 1c-2.1-.5-5.6 1.3-3.8 3.9l-2.1-1.3c.3.7 1 2.2 1.3 2.9l-1.9-.6c0 2.1.1 4.1.1 6.2l1.6-.5c-.3.6-.8 1.9-1 2.5l1.9-1-.8 2.2 2-.9-.9 1.9 1.9-.8-.5 1.7c.6-.2 1.6-.5 2.2-.7l-.1 1.3c4.1.6 8.2 0 12-1.7-.6-1.6-1.1-3.2-1.7-4.8-.8 1.8-1.2 4-3 5.2-1.8 1.3-4.1.6-6.2.4-2-3.5-3.2-7.6-2-11.6.6-2.8 3.1-6 6.3-5 3 .6 3.4 4 4.5 6.4.5-1.9 1-3.7 1.6-5.5-3.5-1.9-7.7-2-11.7-1.2m14.3.1c1.1.5 2.3.7 3.4 1v1.1l-1.1-1c-.4 5.5 1.8 12-2.3 16.5h5.6c-3.4-3.8-1.9-9.3-2.2-13.9 4.6 5 9.1 10 13.7 15.1 2.5-6.2-1.5-13.9 3.5-19.3h-6.6c2.6 2.9 2.8 6.7 2.1 10.3-3.1-2.6-5.6-5.8-8.5-8.6-1.8-2.4-5.1-1-7.6-1.2m45.3-.2c.4.3 1.1 1 1.4 1.3 0 4.9-.3 9.9.2 14.8-.8.5-1.6 1.1-2.4 1.7 5.3 0 10.7.2 16-.1 1.4-1.8 1.4-4.3 2.1-6.4-2.5 2.2-4.7 5.3-8.2 5.6-1.4.3-2.8-.7-2.8-2.1-.4-4.1-.3-8.2-.1-12.3 0-1.2 1.1-1.8 1.7-2.6-2.7.2-5.3.1-7.9.1m25.5.2v1.3c-.5-.1-1.5-.4-2-.6l.6 1.6-1.9-.8.8 2-1.9-.9c.2.7.7 2 1 2.7l-2-.7c.6 2.6.9 5.2.1 7.8l1.8-.7c-.2.6-.7 1.8-.9 2.4l1.6-.2-.3.9c.3.3.8.9 1.1 1.2l1.1-.3-.2 1.2 3.1.3c-3.7-3.8-3.4-9.8-1.9-14.4.9-3.4 6.1-3.7 7.3-.4 2.1 5.2 1.7 11.8-2.4 15.9 2-.7 4.2-1.1 5.8-2.7 4.5-3.9 3.7-12.1-1.5-15-2.7-1.9-6.2-.9-9.3-.6m22.1.1l.3 1.3c-.6-.2-1.7-.6-2.2-.8l.7 1.8-1.9-.9.7 2.1-1.7-.9c-1.6 3.1 0 6.5-1.1 9.7l1.2-.7c.9 2.7 3.3 4.3 5.4 6 3.7.8 7.4 0 10.8-1.6-.1-2-.1-3.9 0-5.9.4-.5 1.3-1.4 1.7-1.8-3.1.1-6.2.1-9.3 0 3.4 1.1 3.5 5.2 2.1 8-1.5 1.3-3.6.4-5.3.3-2.2-4.4-3.1-9.9-.6-14.3 1.3-2.8 5.6-3.1 7.5-.7 1.1 1.4 1.5 3.2 2.2 4.9.6-1.9 1.2-3.8 1.7-5.6-3.9-1.8-8.2-1.7-12.2-.9m16.4-.3l1.3 1.3c-.1 4.9.1 9.8-.1 14.6-.2.9-1.4 1.2-2 1.9 2.9 0 5.7 0 8.6-.1-.6-.4-1.1-.8-1.7-1.2-.2-5.5-1.3-11.4.6-16.7-2.1.2-4.4.2-6.7.2m15.6.2l.4 1.4-1.4-.6c-.5.4-1.5 1.1-2 1.5l.2.7c-.3 0-1 .2-1.4.2.1 3.6.1 7.3 0 11 1.1.8 2 2.6 3.7 1.5l-.8 1.7c.6-.2 1.8-.7 2.4-1l-.2 1.4c3.9.5 7.9 0 11.5-1.7-.4-1.7-.9-3.4-1.4-5.1-.8 1.8-1.2 4-2.9 5.3-1.8 1.4-4.1.8-6.1.6-1.8-2.9-3.2-6.2-2.6-9.7.3-3.2 2.1-7.5 6-7.1 3.4.1 4.1 3.9 5.2 6.4.5-1.9 1.1-3.7 1.5-5.6-3.7-1.8-8-1.6-12.1-.9m-102.2 10.5h.4c.6-1.3.6-2.5 0-3.8-1.3.2-.9 2.8-.4 3.8m-185.2 32.4c0 .2.1.8.1 1l1.3-.3c-.6 5-.6 10.2 0 15.2-.8.6-1.7 1.2-2.5 1.9 4.8-.3 9.8.8 14.3-.9 5.8-2.3 6.8-11 1.9-14.7-4.2-3.5-10-1.7-15.1-2.2m21.2-.1c.3.4.9 1.2 1.2 1.5.7 5.1.3 10.3 0 15.4-.4.2-1.2.7-1.6 1h16.4c.7-2.1 1.3-4.3 1.9-6.4-2.8 2.9-6.6 6.8-11 4.8-1.2-2.2-.6-5-.8-7.4 2.8 0 5.5.7 7.5 2.7-.1-2.3-.2-4.6-.1-6.8-1.4 2.8-4.5 3.4-7.4 3.4v-7.2c4-.4 7.5 1.5 10.2 4.3-.4-1.7-.8-3.4-1.3-5.1-4.9-.1-10 .1-15-.2m35 .1l.3 1.1c-2.7-1-4.2 1.8-5.7 3.5-1.2 3.1-.7 6.5 0 9.7l1.9-1.2c-1.9 2.5 1.9 4.4 3.9 3.7l-.4 1.1c4 .6 8.1.2 11.8-1.6-.5-1.7-.9-3.4-1.4-5.1-.8 2-1.2 4.5-3.3 5.6-1.8 1.1-3.9.4-5.8.1-2-3.1-3.2-6.9-2.3-10.6.5-2.8 2.3-6.3 5.7-5.9 3.5-.1 4.3 3.8 5.3 6.4.6-1.8 1.1-3.7 1.7-5.5-3.6-1.8-7.7-2-11.7-1.3m14.8 0c0 .2.1.7.1 1l1.4-.3c-.7 5-.8 10.2.1 15.3-1 .4-1.9 1.1-2.7 1.8 2.9.1 5.7 0 8.6.2-2.5-2.3-1.6-6-1.8-9h7.3c-.2 3 .6 6.5-1.8 8.9 2.5-.1 5-.1 7.6 0-1.6-2.9-1.1-6.2-1.2-9.4.1-2.9-.4-6 1.2-8.6-2.4.2-4.8.2-7.2 0 2.1 2.1 1.3 5.3 1.5 8H231c0-2.7-.1-5.5 1-8-2.5.1-4.7.2-6.9.1m22.2-.1c1.9 5.4.5 11.3 1.1 16.9l-2.4.9c5.5.1 11 .2 16.5 0 1.4-1.7 1.6-4.3 2.4-6.4-3 2.7-6.5 6.8-11 4.9-1.7-2-.7-5.1-1-7.4 2.8 0 5.4.7 7.5 2.6v-6c-2 1.9-4.6 2.7-7.4 2.6v-7.2c3.9-.4 7.5 1.3 10.1 4.3-.4-1.8-.7-3.5-1.2-5.2-4.9.2-9.7.3-14.6 0m40.6.2c.4.3 1.1.8 1.5 1.1-.1 4.6-.2 9.2.1 13.8 1.5-4.2-.3-8.8 1.1-12.9.1 4.8.5 9.6-.4 14.4l1.7-.8-.5 1.5c1.5.2 3 1.1 4.5.3-2.7-4.1-2-9.3-1.9-14-.2-1.5.9-2.5 1.8-3.5-2.7.1-5.3.1-7.9.1m13.2-.1c3.8 3.4 2.7 9 2.3 13.5-.5 3.3-4.2 3.6-6.8 3.8.3.2.9.5 1.2.7 3 .9 6.3-1.5 6.7-4.5.7-4.5-.8-9.7 2.5-13.4-2-.1-4-.1-5.9-.1m33.2 17.7c-1.1-.4-2.2-.8-3.4-1-.6-4-.4-8.1-.4-12.2-.1-1.7.3-3.3 1.3-4.6-2 .1-4 .2-6 .2-1.5 3.6-2.8 7.2-4.5 10.7-1.8-3.4-2.9-7.2-5-10.5-.7-.1-2.1-.4-2.9-.5.2.8.5 2.5.7 3.4-.9-1-2.6-2.9-3.5-3.9 2 4.2 1.5 8.9 1.3 13.4-.1 2-1.3 3.7-2.4 5.3 2-.1 4-.1 6 0-1.5-1.8-2.6-3.9-2.4-6.3.1-3.1-.8-6.8 1.8-9.2-.1 1.2-.5 3.6-.6 4.8l1.5-.5c-.6 1.5-.3 2.8.9 3.8-.1.5-.5 1.4-.6 1.8l2-.6c-.3.7-.9 2.2-1.2 2.9.5-.2 1.5-.7 2-1-.6 1.8-.6 3.7.6 5.2 0-.6.1-1.8.1-2.4 2.8-4 3.7-8.9 5.9-13.2.1 4.9 1.5 10.5-1.4 14.8 5.2-.1 10.4.3 15.7 0-2.7-1.9-1.4-4.8-.1-7.2 2.4.1 4.9.2 7.3.2-.3.7-.9 2-1.2 2.7.5-.3 1.5-.8 2-1.1-.4 1.8-.5 3.6-.5 5.4 2.4-.1 4.8-.1 7.2-.1-4.4-5.5-6.7-12.3-10.1-18.4-3.6 5.8-5.6 12.7-10.1 18.1m22.7-17.7c.4.7.9 1.4 1.3 2.1-.2 4.6-.4 9.2.4 13.7-1 .5-1.9 1.2-2.7 1.9h16.3c.6-2.2 1.3-4.4 1.8-6.6-2.8 2.5-5.8 6.7-10.1 5.4-1.8-1.8-1-4.8-1.2-7.2.3-3.2-1-7.2 1.9-9.5-2.7.3-5.2.3-7.7.2m-88.9.1c-.4 1.8-.8 3.5-1.2 5.3 2-2.1 4.2-4.8 7.4-4.2 0 5.1-.5 10.2.4 15.3l-1.6-.6c.1.5.2 1.5.3 2 2.1-.1 4.2-.1 6.3 0-2-5.3-.9-11.2-1-16.7 3.1-.2 5 2.4 7 4.3-.4-1.8-.9-3.6-1.4-5.4-5.3 0-10.7-.1-16.2 0z" fill="#fff"/><path d="M413.1 112.4h7.8c.1 2.6.1 5.3.1 7.9h-7.9c-.1-2.6-.1-5.2 0-7.9zm-.1 10.4h7.9v7.9h-7.8c-.1-2.6-.1-5.2-.1-7.9zm0 10.9h7.9c0 2.6 0 5.3-.1 7.9H413v-7.9zm0 10.8h7.9v7.9H413v-7.9zM37.1 193.9c-.1-8.9 7.9-16.8 16.8-16.7h56.6c-.4 1.1-.8 2.3-1.3 3.4-1.6-.1-3.2-.2-4.8-.2v16.9c4.4-.1 8.9-.1 13.3 0v-2h-11v-5.7h9.9c0-.5-.1-1.5-.1-1.9h-9.8v-5.1h10.6v-1.9c-2.4 0-4.9-.1-7.3-.1 1.4-1.4 2.6-3.5 4.9-3.2 33.7 0 67.4-.1 101.1 0 10.8.1 20.6 6.4 26.8 14.9 2.2 3.3 5.6 6.6 5.4 10.8v98c0 3.5-.4 7-.6 10.5-.1-.8-.4-2.4-.5-3.2-4.1-26.4-8.1-52.9-13.6-79.1-1.7-6.9-2.7-14.1-6.3-20.4-2.1-3.7-5.4-6.7-9.4-8.2-.1-.1-.3-.2-.4-.2l-.2-.1c-5-2.2-10.5-1.7-15.8-2.4l-1.4-.6c6.9-.6 8.9-10.1 4.5-14.6-3.9-4.1-12.1-3-14.1 2.6-2.1 4.9.6 11.6 6.3 12.1-6.7 1.6-13.6 1-20.4.6l-1.3-.7c2.8-.3 4.8-2.6 5.6-5.2-1.9-2-2.5.8-3.7 1.7-1.8 2.6-5.9 2.3-8 .3-3.3-3.8-2-12.2 4.1-12 3.2-.5 4.4 3.8 7.6 3.3-1.9-6.1-10.6-7-14.2-2.1-3.2 4.5-1.6 13.2 4.7 13.9l-1.4.7c-5.5.5-11.2.9-16.5-.6l1.2-.8v-16.4c-.5.2-1.6.5-2.2.7-.3 5.4-.2 10.9 0 16.3l.1 1.1c-3.4.1-6.8.2-10.1-.7-1.4-3.5-4.6-6-6-9.4 1.8-2.8 4.2-5.2 5.9-8.1-3.8.4-5.4 4.2-7.6 6.7-2.1-2.6-3.5-6.7-7.4-6.7 1.8 2.8 4 5.3 5.8 8.2-1.5 3.4-4.7 6-6.6 9.3 4.3 0 5.7-4.6 8.2-7.4 1.7 2.2 3.3 4.5 5.1 6.6l1.6.5c-5.2 1.6-10.7.8-16.1.9-6 .2-12-.6-18-.2-4.5.3-9 .2-13.4.2.5-6.1.4-12.1.3-18.2-1.1.1-2.2.2-3.2.3l-.2.5c-1.8 4.6-3.4 9.3-5 14-1.8-4.8-3.4-9.6-5.2-14.4h-3.5c0 5.4-.1 10.7 0 16.1l1.1.8c-4.6 1.7-9.8-.1-14.1 2.3-1.6 1-3 2.3-4.1 3.9-2.4 4.4-1.3 9.6-1.5 14.4-.1 120.3.1 240.6 0 361-.6 6.2 4.6 12.2 10.9 11.9h144.1c1.8 0 3.6.3 5.2.9.4.3 1.1 1 1.5 1.4 5.6 6.1 12.2 11.1 18.2 16.7-6.4 0-12.8 0-19.2-.1l-.3-15.9c-.6 0-1.8.1-2.4.1.1 2.2.1 4.5.1 6.7-3.2.3-7.1-.5-9.8 1.8-2.2 2-1.2 5.1 0 7.4-4.7-.2-9.4-.1-14.1-.2 2.1-5.4 4.3-10.7 6.2-16.2-3.2 0-3.4 3.3-4.5 5.5-2.4 0-4.9.1-7.4.1-.7-1.7-1.4-3.3-2.1-5-.7 0-2-.1-2.7-.1 2.3 5.2 4.7 10.4 7.1 15.6h-14c-.1-5.2-.2-10.4-.3-15.7-.6 0-1.8-.1-2.4-.1.1 2.5.1 5.1.1 7.7-1.7-.2-3.6 0-5.2-.7-2.2-1.9-3.7-4.4-5.4-6.8H159c1.8 2.6 3.6 5.2 5.9 7.4-1.5.9-3.6 1.5-4.1 3.5-.4 1.6.5 3.2.8 4.7-4.9-.2-9.7-.1-14.6-.1 2-5.3 4.1-10.5 6.1-15.8-.7.1-2 .2-2.7.3-.5 1.6-1.1 3.3-1.6 4.9-2.5.1-5 .1-7.6.1-.7-1.7-1.5-3.4-2.2-5.1-.6 0-2 .1-2.6.1 2.3 5.1 4.8 10.2 6.9 15.4-14 0-27.9-.1-41.9-.1l-.3-15.6c-3.7 0-7.4.1-11.1.2v2c2.9 0 5.9-.1 8.8-.1.1 4.5.2 9 .2 13.5-8.2 0-16.4 0-24.6-.1 3.3-4.9 6.8-9.7 10-14.7-3.1-.7-4.2 2.5-5.7 4.4-2.4-.5-4.8-1-7.3-1.5l-.9-5.4c-.7-.1-2-.4-2.6-.5 1.1 5.9 2.3 11.7 3.4 17.6-6.4-.1-12.9.2-19.3-.2-8.5-.7-15.4-8.7-15-17.2 0-132.3 0-265 .1-397.7m1.5 56c-.5 4.1-.1 8.2-.2 12.4h17.8c0-4.1.1-8.3-.1-12.4h-2c-.2 3.4 0 6.8-.1 10.3h-6.1c0-3 .1-6.1-.1-9.1l-2-.4v9.5c-1.8 0-3.7-.1-5.5-.2-.2-3.2.5-6.7-.3-9.8zm2.2 23.9c-3.7 2.9-2.1 8-2.5 12h17.8c-.3-3.9 1.1-8.8-2.1-11.8-3.7-2.7-9.4-2.8-13.2-.2m-2.5 48.3l.1 2.1h13.9c-4.5 3-9.3 5.6-13.7 8.8-.1.6-.3 1.7-.4 2.2h18.3c-.1-.5-.4-1.5-.5-2-4.4-.2-8.7.1-13.1-.2 4-3.2 8.7-5.5 12.9-8.4.2-.6.6-1.8.8-2.5-6.2-.1-12.3 0-18.3 0m4.9 23.2c-4.2 1.4-6.2 6.5-4.4 10.5 3.3 7.6 17.6 6.1 17.8-2.8.5-6.9-7.9-10.1-13.4-7.7m-4.9 25.2c0 .5-.1 1.7-.1 2.2h18.1c-.1-.5-.4-1.6-.6-2.2-5.8-.1-11.6.1-17.4 0m12.2 11.7c-.1.6-.4 1.7-.5 2.2 3.6.8 5.8 4.9 3.4 8.1-3.6 4.2-13.9 3.2-13.4-3.6-.4-3.1 4.8-3.2 3.3-6.5-4 1.2-6.6 5.6-4.9 9.6 1.9 5.5 9.1 6.2 13.8 4.1 4.6-1.7 5.6-8.3 2.3-11.7-1.1-.9-2.6-1.5-4-2.2m-12.2 28.2c0 .6-.1 1.8-.1 2.4 6 2.2 12 4.4 18.1 6.5.4-3.3-3.4-3.2-5.6-4.2v-7c2.2-1.1 6.2-1 5.6-4.5-6 2.2-12 4.6-18 6.8m10.1 20c-.9-3.9-5.9-5.9-8.8-2.8-2.1 3.5-.8 8-1.2 11.9h17.8v-2.2h-8c.3-1.9-.4-4.3 1.4-5.5 2-1.6 4.3-2.8 6.5-4.1 0-.7.1-2.1.1-2.8-2.7 1.5-5.8 2.9-7.8 5.5m-10 19.1c-.1 4.1-.1 8.2-.1 12.3 6 0 11.9 0 17.9-.1v-12.4c-.5-.1-1.5-.2-2.1-.2-.1 3.5 0 7-.2 10.5H48c-.5-3.1.8-7-.9-9.6l-1.2.5c-.2 3-.1 6.1-.1 9.1h-5.5v-9.8c-.4-.1-1.4-.2-1.9-.3m.3 24.5c-.6 3.2-.3 6.4-.4 9.6 5.8-.1 11.7.1 17.5-.1.1-.5.4-1.6.6-2.1-2.5-.1-4.9 0-7.4 0-.2-2.5 0-5.1-.6-7.6-1.3-4-8.4-4-9.7.2m-.9 20.2c.3.5.8 1.3 1.1 1.8 4.1.3 8.2-.2 12.2.3 4.3.3 4.3 8 0 8.3-3.8.5-7.5 0-11.3.2-1.4-.1-1.9.5-1.7 1.9 3.5.5 7.2.3 10.7.3 2.3-.1 5.2-.3 6.6-2.5 1.9-3.4 1.3-9-3-10.2-4.7-.8-9.7-.5-14.6-.1m5.2 35.1c5.2 0 4.7-6.4 6.7-9.7 2.3-2.5 5.5.8 4.9 3.5.3 3.1-2.9 4.5-4.8 6.2 3.9 1.8 7.3-2.6 6.9-6.3.5-3.9-3.7-7.9-7.5-5.9-4.1 2-2 8.6-6.1 10.1-4.1-.7-3.5-7.6.5-8.2 0-.5.1-1.5.1-2-6.8 0-7.6 11.8-.7 12.3zm200.2-352.1h8.1c0 2 0 4-.1 6-2.7 0-5.3.1-7.9.1-.1-1.9-.1-4-.1-6.1zm14.5.1h8v6.1c-2.7 0-5.3 0-8-.1v-6zm15.1 0c2.7 0 5.4 0 8-.1 0 2.1 0 4.1-.1 6.2-2.6-.1-5.3.2-7.9-.2v-5.9zm14.9 0h8v6.2c-2.7 0-5.3 0-8-.1v-6.1zm13.4 12.8c5.9-8.7 16.6-13.1 26.9-13.5l160 .6c9.6-1 19 7 18.8 16.8.1 15.6-.1 31.2.1 46.8-3.7-3.1-9.2-3.6-13.3-1.1-3.2 1.8-3.6 6.2-2.5 9.4.8 2.3 3.3 3.2 5.3 4.1 0-.5.1-1.6.2-2.2-3.8-1.1-5.7-6-2.6-8.9 3.7-2.8 11.5-2.4 12.4 3.1.6 2.6-1.4 4.4-3.4 5.6.1.5.3 1.6.4 2.1 1.2-.6 2.3-1.3 3.5-1.9-.1 3.9-.1 7.9-.1 11.8h-16v2.2h16v10.4H491v12.7h1.9v-10.4h5.9c0 3-.2 6 .2 8.9.4.2 1.2.7 1.6 1 .2-3.3.2-6.6.2-9.9h5.3c-.3 6.7.9 13.4.6 20.1h-16c0 .5.1 1.6.1 2.1 4.4 0 8.8 0 13.2.1-3.6 2.6-7.3 4.9-11 7.3-1.4.8-2.2 2.2-2.8 3.7 5.5.3 11 .1 16.5.2 0 4.1-.1 8.2.1 12.2-3.4-2.6-8.1-3.4-12.1-1.6-4.9 1.7-5.7 9.3-1.8 12.4 1.2.8 3.3 2.3 4.3.1-1.8-1.4-4.6-2.3-4.8-5-.9-7.8 13.4-8.4 14-1.1.4 3-2.8 4.6-4.1 6.9 1.6-.2 3.1-.7 4.6-1.3-.1 3.9-.1 7.7-.1 11.6-5.2.1-10.5-.2-15.7.2l-.7 2c5.4.1 10.9.1 16.4 0V361c-5.5-2-10.9-4.2-16.4-6 .1 3.1 3.4 3.3 5.6 4.3v7c-2.3 1-5.7 1.3-5.6 4.6 5.5-2 10.9-4.2 16.3-6.4 0 12.6.2 25.2-.1 37.8-1.3 2.1-4.2 3.1-6.2 4.6-2.7 2.1-6.4 1.3-9.6 1.4v2.2c2.5.1 5.1-.3 7.6.3 2.9 1.6 5.6 3.7 8.3 5.5-.3 15.2.7 30.5-.8 45.7h-15.2v2.2h15.1c.3 4.7 1 9.3.9 14h-16c.4 4.6-.9 9.5 1.2 13.7 1.3-3.7.8-7.7.8-11.5h5.9c.5 3.3-1.5 7.9 1.7 10.1.4-3.4.3-6.8.3-10.1h5.3c-.3 7.2 1 14.4.8 21.6-3.8-2.6-8.8-3.2-12.9-.9-3.4 1.8-4 6.4-2.7 9.7.9 2 3.1 2.9 4.8 4.1.2-.6.6-1.6.8-2.2-1.8-1.1-4.2-2.1-4.3-4.6-1-7.8 13.5-8.5 13.9-1 .4 3.1-3 4.4-3.9 7.1 1.4-.4 2.8-.9 4.2-1.4-.1 3.7-.1 7.4-.1 11.1h-15.8v2.1c4.4 0 8.8-.1 13.2.1-3.8 2.8-7.8 5.1-11.7 7.8-1.3.6-1.5 2.1-2 3.2 5.4.1 10.9 0 16.3.1v12.3c-3.6-3.1-9.3-3.7-13.3-.8-4.1 3.1-3.8 10.4.8 12.9 4 2.4 9 1.4 12.5-1.3-.2 10.9.1 21.9-.1 32.8-.1 8.4-7.4 16-15.9 16.3-11.7.2-23.4.1-35.1.2.1-5.1.2-10.1.2-15.2-3.6-.1-7.3-.1-10.9-.1 0 .5.1 1.5.2 2 2.8 0 5.6.1 8.4.1-.1 4.4-.2 8.8-.2 13.3-6.4.1-12.8 0-19.2.2 2.8-3.4 3.8-8.5 1.3-12.3-3-4.8-11.2-4.6-13.9.3-2.2 3.8-1.1 8.5 1.3 12-4.9-.1-9.7-.1-14.6.1 3.4-3.7 4.2-10.1.3-13.7-3.8-3.3-9.4-2.4-13.3.2 0 2.1 0 4.3-.1 6.4 2.5 0 5 0 7.5.1-.1-.5-.2-1.4-.2-1.9-1.8 0-3.5-.1-5.3-.1-.5-4.8 5.5-5.7 8.9-3.9 5.1 3 3.2 13.1-3.3 12.6-2.8.4-4.3-2.1-6-3.7-2.4.8 0 2.7.5 4.1-4.2-.1-8.4 0-12.6 0l.3-15.7h-2.3c-.1 5.2-.2 10.5-.3 15.8-4.6 0-9.1 0-13.7.1 2.1-5.4 4.7-10.5 6.3-16.1-2.9.4-3.3 3.4-4.3 5.6h-7.2c-.7-1.7-1.3-3.5-2-5.2-.7 0-2 .1-2.6.1 2.2 5.2 4.2 10.4 6.3 15.7-20.6 0-41.2.2-61.7.2 5.1-4.6 10.4-9 15.7-13.4.1-.6.2-1.7.2-2.3.5-.4 1.5-1.2 1.9-1.6 3.6-2.6 8.2-1.8 12.3-1.8h144.1c3.7.1 7.6-1.2 9.8-4.3 2.1-2.7 2.2-6.3 2.2-9.7V211.6c.1-2.6-.3-5.1-1.6-7.4-2-3.2-5.6-5.3-9.4-5.2-45.3-.1-90.7 0-136 0-6 .1-12 .1-17.9 1.3-3 .7-6.1 1.7-8.2 4.1-3.4 3.3-4.2 8.3-5 12.7l-15.6 102.3c-.5 3-.7 6-1.6 8.9-.2-.1-.6-.2-.8-.3-.3-21.8-.1-43.7-.1-65.6-.6-19.7-.3-39.5-.4-59.2.6-.2 1.7-.5 2.2-.7 2.3-4.5 3.4-8.9 6.1-12.4m55.2-11.4c-.1 4.1.3 8.2-.3 12.3-.7 4.1-8.2 3.9-8.6-.3-.5-3.9 0-7.9-.3-11.8-.5-.1-1.6-.3-2.2-.4.1 4.2-.3 8.4.2 12.6.7 6.4 12.2 6.4 13.1.1.5-4.1.2-8.3.3-12.5h-2.2m64.1 0c-.1 4.1.3 8.2-.3 12.2s-7.8 4-8.5.1c-.5-4.1-.1-8.3-.3-12.4-.5.1-1.6.3-2.2.4-.1 4-.2 7.9.1 11.9.4 6.7 12.1 6.9 13.1.5.6-4.2.2-8.4.3-12.6-.5-.1-1.6-.1-2.2-.1m12.9 0c0 5.5-.1 11.1 0 16.6.6.1 1.7.4 2.2.5v-7.7c1.8.2 4-.5 5.4.9 1.9 1.9 3.2 4.3 4.6 6.5.7 0 2 .1 2.6.2-1.1-2.8-3-5.1-4.9-7.4.3-.9 1.6-1.1 2.3-1.8 2.8-1.8 1.6-6.9-1.6-7.4-3.5-.7-7.1-.3-10.6-.4m-111.8 2.8c-2.6 3.8-2.1 9.5 1.2 12.7 4.3 3.6 11.7 1.4 12.7-4.3-3.7-1.1-3.6 4.9-7.4 4.1-7.7.4-7.9-14.1 0-13.6 3.2-.6 3.7 4.1 6.9 3.2-1.3-6-10.1-6.7-13.4-2.1m47.5-2.8c0 5.6-.1 11.3.1 16.9 3.6-.1 7.2 0 10.9 0-.1-.5-.2-1.4-.2-1.9-2.8-.2-5.6-.1-8.4-.1v-14.9H369m17.4 1.9c2 .1 3.9.1 5.9.1v14.9h2.3v-14.8c2 0 3.9-.1 5.9-.1-.1-.5-.2-1.4-.3-1.9h-13.5c0 .4-.2 1.3-.3 1.8m67.8 15.3c3.6.5 2.9-3.7 4.7-5.3 2.3-.2 4.6-.1 6.9 0 .6 1.6 1.2 3.3 1.9 5 .6.1 1.8.2 2.4.3-1.8-5.9-4.4-11.5-6.9-17H461c-2.5 5.5-4.7 11.2-6.8 17z" fill="#fff"/><path d="M435.5 180.6c2.5 0 5-.2 7.4.3 2.4.6 2.4 4.3 0 5-2.4.5-4.9.3-7.4.4v-5.7zm23.7 8.1c1-2.6 1.9-5.2 2.9-7.7 1 2.6 1.9 5.2 2.9 7.8-2-.1-3.9-.1-5.8-.1zm-263.7-6c3.8-2 8.8 1 8.8 5.3.9 4.2-2.8 8.5-7.1 7.6-6.1-.8-7-10.5-1.7-12.9zM78.8 197.1c.2-4.5 0-9.1.4-13.6 1.7 4.6 3 9.3 5 13.7H86c1.8-3.6 2.8-7.6 4.3-11.3 1.5 3.9.9 8.2 1.2 12.4H78.8zm170.1.3h43.8c.3 20.5-.3 41.1.7 61.6-.1 23.2 0 46.5-.1 69.7 19 3.3 37.3 11 52.9 22.5.2.1.6.4.7.5.5 1.2 1.3 1.9 2.6 2.2 3.7 3.6 7.4 7.1 10.9 10.9 14 16.4 21.2 37.8 21.9 59.2 1.5 23.1-5.9 46.3-19.5 65-4.7 5.4-9.2 11-14.5 15.8-14.6 12.7-32.3 21.8-51.3 25.7-7 1.5-14.1 2.1-21.3 2.5h-4.3c-14.5-.4-28.9-3.1-42.2-8.9.6-1 .9-2.7 2.7-1.7l74.2.3c4.3 0 8.6.2 12.8-.3-1.1-.7-2.4-1.2-3.8-1.1-27.7-.1-55.4-.2-83.1-.4-2.4-.7-3.9 2.3-6.2 1.7-5.5-3-10.9-6.1-16-9.7-7-5.2-13.1-11.4-19-17.8-2-2.5-3.8-5.1-5.7-7.6l-.2-.2c-13.1-19.7-19.3-43.8-17.2-67.4 1.1-7.4 2.2-14.7 4.6-21.8 2.8-8 6.1-15.9 10.6-23.1l-2 .4c-.2-22.8-.4-45.7.1-68.5-10.7.4-21.3.2-32 .2-30 0-60 .1-90 0-.1-8 .1-16-.1-24h58.3c0 4.8.1 9.7.1 14.5 9.7-.1 19.3.2 28.9-.1v-14.4c14.4 0 28.9.1 43.3 0 0 27 .2 54-.1 81-1.9 3.6-4.9 6.4-6.7 10.1 2.1-2.5 3.8-5.2 5.8-7.7 14.8-19.5 36.8-33.5 60.8-38.4-.8-5.3-.4-10.7-.7-16.1.4-38.2 0-76.4.3-114.6m29.7 136.7c2.5-1.1 5-2.2 7.8-2.6.3 4.8-5.8 5.1-9.3 4.7 0 3.6.4 7.3-.2 10.8-1.5 3.2-3.2 6.7-6.5 8.4-1.9-4.7-5.4-11-11.3-10.2-2.1 1.5-3.9 4-3.2 6.7-1.5 1.1-2.9 2.2-4.4 3.3 1.4 2-1.4 2.7-2.4 3.9 2-.6 4.3-1.6 3.8-4.2 2.2-1.5 5-2.9 3.8-6 1.2-1.9 2.9-3.9 5.5-2.9 6 2.6 7.5 9.5 9.9 14.9-1.4 1.4-1.4 3-.5 4.7-1 .5-2 1-3.1 1.5.1.4.2 1.3.2 1.7-1.6.5-2.2-1.7-3.1-2.6-1.5.1-3.1.1-4.6.2 1.6.8 3.2 1.6 4.8 2.3.2 2-1 3.1-2.6 3.8.3 3.7 2.6 6.9 2.5 10.7-1.8-.4-3.1-1.9-4.6-2.8-1.2.1-2.4.3-3.6.5 1.1-2.4 1.6-5 1.6-7.6-3-.6-6.1-.9-8.9-1.9-1.8-1.3-1.3-3.9-1.5-5.8.9-1.7 2.5-2.8 3.8-4.2l-3.3-1.2c.6.8 1.1 1.5 1.7 2.3-1 1-2 2.1-3 3.1.1 1.7.2 3.4.3 5.2-3.5 2.4-7.2 4.5-10.5 7.2-.4 14.6 0 29.3-.2 44 1.1-.1 2.2-.1 3.3-.2.7-2.3 2.7-3.6 4.8-4.5 1.3 1.6 3.3 1.7 5.2 1.5 2.2-4.2 5.2-8 7-12.4 1.7-.3 3.4-.5 5.1-.8 2-3.1 3.8-6.5 3.1-10.4-.4-.1-1.1-.4-1.4-.6-2.6 2.8-5 6-6.4 9.6 1.5-1 2.5-2.6 3.5-4.1 1 .2 2.1.4 3.1.6l-2.4 4.2c-1.6.2-3.2.3-4.7.7-2.4 4.2-4.8 8.5-7.4 12.7-.7 0-2.1-.1-2.7-.1-.3-.5-1-1.4-1.4-1.8-3.3.8-4.9 3.9-7.9 5.2-.2-12.8 0-25.6-.2-38.4 0-1.6-.1-3.3.4-4.9 3.1-2.5 6.5-4.7 9.9-6.7 3.3 1.2 6.7 2 10.1 2.6 0 2.3-.6 4.5-1.7 6.5.2.3.6 1 .8 1.3 1.2-.3 2.4-.6 3.6-.8 1.5 1 4 4.5 5.5 1.8-.3-3.2-1.7-6.1-2.9-9.1l1.8-2.1c1.8.4 3.6.5 5.3-.1-1.1-.3-3.4-.9-4.6-1.2.7-.1 2.1-.5 2.8-.6 1.1.4 2.2.9 3.3 1.3-.7-1.4-1.6-2.8-2.2-4.3.8-.3 2.4-.8 3.2-1.1-.7-.8-1.4-1.5-2-2.2 3-2.2 0-4.6-.2-7.2 3-2.4 5.2-5.8 6.6-9.3.5-3.2.2-6.5.3-9.7 2.8.1 5.5-1 8.2-1.6.5-1.6.8-3.4.5-5.1 2 .5 3.3 2.1 4.2 3.8 1.5 3 3.1 6 4.4 9.2-2 4.3-3.9 8.8-7.5 12.1-3.7 3.1-6.6 7-8.3 11.5-.4 1.6.5 3.3.9 4.9-1.9 2.4-4 4.8-6.9 5.8.9 3.4 4.4 2.7 7.1 2.8.4 2.8-4.6 2.5-5.1 5.4-.9 1.3.5 2.4 1.2 3.3l.7-1.4h-1.4c-.3-4.5 5.9-4.5 6.6-8.7-2.7.7-5.6.9-8.2-.3 2.1-1.7 3.9-4.6 7-4.3-.1-2.3-.8-4.4-1.2-6.7 1.3-4.4 4.1-8.4 7.7-11.4 4.7-4.2 7.3-10.1 9.2-16-1-1.4-1.7-2.9-2.3-4.5-.3.4-.9 1.3-1.2 1.8-1.8-3-3.2-7.6-7.3-7.9-3.1.8-6.8.8-7.8 4m12.9 22.6c-2.2 1.5-1.1 4.5-1.3 6.8 3.5-1.5 5.4-5 6.9-8.3-2 .4-3.9.8-5.6 1.5m-34.1 7.5c.2 1.3.9 1.6 2.2.7-.3-1.3-1-1.6-2.2-.7m-3.3 7.1c1.4-1.4 1.6-4.5 3.8-4.6 1.3 1.2 2.7 2.3 4.6 2.2-2-1.2-3.9-2.4-5.8-3.8-1.4 1.8-2.5 3.9-2.6 6.2m-5.1 8.8c.8 2.9 2.1 5.7 3.3 8.5 2.1.1 4.3.2 6.4.4-1.5 1.2-3 2.3-4.6 3.4.3 2.2.8 4.4 1.3 6.5-2-1.2-3.9-2.4-5.9-3.6-1.8 1.3-3.7 2.6-5.6 3.8.6-2.2 1.3-4.4 1.9-6.7-1.7-1-3.3-2.2-4.8-3.4 2.1-.2 4.3-.4 6.5-.5.6-1.9 1.2-3.9 1.5-5.9-.9 1.7-1.6 3.5-2.3 5.4-2.8.2-5.6.2-8.4.1 2.2 1.7 4.5 3.3 6.8 4.9-.9 2.6-1.8 5.3-2.7 8 2.4-1.7 4.9-3.3 7.4-4.9l7.2 4.8c-.9-2.6-2.1-5.2-2.2-8.1 2-1.8 4.3-3.1 6.4-4.7-2.7.1-5.4.4-8.1-.1-1.8-1.8-2-4.5-2.8-6.7-.3-.3-.9-.9-1.3-1.2m30.3 5.1c-.5.4-1.4 1.4-1.8 1.8 1.5 5.2-2.1 10-3.2 14.9-1.1 3-.3 6.9-3.1 9-.2-1.5-.4-2.9-.6-4.4-.9-.5-1.8-1.1-2.6-1.7.7-2.9 1.2-5.9-.4-8.6-.4.2-1.1.6-1.5.9 3.2 1.6 1.5 5.1 1.2 7.8.7.8 1.6 1.5 2.5 2.2.6 2 1.2 3.9 1.7 5.9-1.3 2.3-2.4 4.7-3.3 7.1 3.1-2.1 4.9-5.8 4.8-9.5 1.8-4.4 1.8-9.4 3.8-13.7 1.6-3.6 1.5-7.8 3.8-11-.4-.1-1-.5-1.3-.7m-109.5 39.6c1.4 1.4 3.5.9 5.2 1.1 67.4.1 134.7.3 202.1.4 1.2.1 2.3-.3 3.3-1.1-4.4-.6-8.9-.3-13.4-.3-62-.1-124-.2-186-.4-3.7 0-7.5-.3-11.2.3m-.6 9.5c0 .4 0 1.1-.1 1.4 70.5.1 141 .4 211.5.3l-.9-1.1c-10.9-.5-21.8-.1-32.7-.3-59.3-.1-118.5-.1-177.8-.3m1.2 11.7c53.5.4 107.1.2 160.6.4 16.2-.1 32.3.3 48.5-.1-.8-1.8-2.9-1-4.4-1.2-66.7-.1-133.3-.2-200-.4-1.6.2-4-.7-4.7 1.3m1.7 9.2c.3.3 1 .8 1.3 1.1 15.9.4 31.8.1 47.6.2 51.9 0 103.8.4 155.7.2-.3-.3-.9-.8-1.2-1.1-14.5-.4-29-.1-43.5-.2-53.3 0-106.6-.4-159.9-.2m4.7 12.5c14.7.3 29.4.1 44.2.2 50.8 0 101.6.4 152.4.1-.8-1.7-2.8-1.1-4.3-1.3-63.4-.1-126.8-.3-190.1-.3-1.1-.1-1.8.3-2.2 1.3m6.2 9.5c0 .4.1 1.1.1 1.5 61.5 0 123.1.4 184.6.2l-.9-1.1c-4.9-.5-9.9-.1-14.8-.2-56.3-.1-112.6-.2-169-.4m6.4 12.6c54.8.4 109.7.2 164.5.5 2.1 0 4.3 0 6.4-.5-1.4-.6-2.8-1-4.4-.9-54-.1-108-.2-162-.4-1.4.3-3.8-.6-4.5 1.3m8.5 10.8c50.7.5 101.5.3 152.2.5v-1.3c-49.7-.2-99.4-.2-149.1-.4-1.2 0-2.6-.1-3.1 1.2m12 9.8c1.1 1.8 3.4 1 5.1 1.2 40.7-.1 81.5.5 122.2.2-1-1.4-2.8-1.2-4.3-1.2-25.7 0-51.4-.2-77-.2-15.3.1-30.7-.5-46 0zm170.4-288.9c4.3-6.2 13.3-8.6 19.9-4.7 6 3.4 7.9 10.7 8.4 17.1.7 10.8-.4 21.6-1.3 32.4-3.8-4.4-10-5.2-15.5-5.4-1.1-5.5 1.6-11.3-.6-16.7-.6-1.1-1.2-2.2-1.8-3.4l5.4-2.4c0-2.2-.1-4.4.1-6.6.9-4.3 4.3-7.6 4.9-12-1.9-2.2-5.3-1.5-7.8-.9-5.6 1.2-9.2 6.4-11.1 11.5-.6 5.8-.6 11.6-.3 17.4-.9-.2-2.7-.5-3.6-.7-1.7-8.4-1.8-18.1 3.3-25.6z" fill="#fff"/><path d="M363.8 250.7c5.4-3.9 12.2-3.6 18.4-2.1l1.2.8c1.5 1.5 3.2 3 4 5 .9 2.6 3.5 4.2 3.9 7.1-7 1.5-13.6 6.6-15.5 13.7 3-5 6.6-10.1 12.4-11.9 6.4-2.9 13.6-.5 19.1 3.1l1.1 1.1c9.9-1 19.8-1.7 29.7-2 7.2.2 15.2.5 21 5.4 6.1 5.4 6 15.8.1 21.3-6.8 6.7-17.2 7.1-26.1 5.6-.5-8.7-7.8-15.8-16.3-16.9-.6-.3-1.8-1-2.4-1.3l-.7-1.4c5.9 1.2 11.4-1.8 16.9-3.6 1 1.2 2.1 2.3 3.2 3.5 2.3-1 4.6-2.5 7.2-2.1 3.3.4 5.5 3.5 8.9 3.7 3.6.4 7 1.4 10.5 1.9-.6-4.5-3.1-8.8-7.5-10.5-8.1-3.5-17.4-4.8-26-2.9-5 1-10 2-14.9 3.4-.5-.6-1.5-1.9-2-2.5.7 1.2 1.5 2.4 2.3 3.7.6 2.5 1.3 4.9 1.6 7.5l.1.8c-.3 7.4-4.4 14.8-11.4 17.7-6.4 3.2-13.8 1.5-19.9-1.5 4.2 2.9 9.2 3.9 14.2 3.7.4 2.1.9 4.1 1.4 6.2h-2.4c-.1 4-.3 8.1.3 12.1.9 1 2.2 1.9 1.5 3.4-1.6.9-3.2 1.6-4.9 2.4-.1 3 .5 6.2-1 9-1.6 3.3-3.5 6.5-4.3 10.1 5.5 2 12.2.1 15.6-4.7 1.8-2.5 3.7-5.2 3.8-8.4.2-5.1.2-10.2.4-15.3-5.4-3.1-9.5-8.3-10.2-14.6 5.4-1.3 10.6-4.1 13.6-8.9 2.3-3.1 3-7.1 3.6-10.9 4.9.3 10 1.9 13.4 5.7 4.6 4.7 5.7 11.9 4 18-3.3 8.9-13.8 14.4-22.9 11.1 2.2 8.8 2.2 18.8-2.2 27-3.3 6.2-11.1 10-18 7.5-6.3-2-9.5-8.5-10.5-14.6-2-12.9 0-26 .6-39 1.1-.4 2.5-.6 3.2-1.7-.5.2-1.7.7-2.2 1-12.7-.1-25.3 2.5-38 1-4.9-.6-10.1-1.9-13.5-5.6-5.5-5.5-5-15.2.5-20.5 7-7 17.8-7.1 27-5.6-.3 6.1 3.3 11.8 8.2 15.2 3.3 2.3 7.4 2.8 11.3 3.6-.4.2-1.2.6-1.5.8-5.2-.2-9.9 2.2-14.7 3.9-1.1-1.2-2.1-2.4-3.2-3.5-2.2 1-4.5 2.4-7.1 2.1-3.4-.3-5.6-3.5-9-3.7-3.6-.4-7-1.4-10.5-2 .5 4.4 2.9 8.7 7.1 10.5 8.5 3.8 18.4 5 27.5 2.8 4.4-1.2 9.1-1.4 13.2-3.5.9 1 1.7 2 2.5 3.1-.3-1-.5-1.9-.8-2.9-.4-.3-1.1-.9-1.5-1.2l-1.5-4.8c-.6-3.3-.3-6.6-.2-9.9-.5-.2-1.4-.6-1.9-.9-2.4-3.1-5.1-6.8-4-11 1.1-4.1 2.7-8 3-12.3-3 1.2-6.1 2.7-7.7 5.6-2.5 4.4-2.5 9.9-1 14.6 1.6 4.8 6.3 7.3 10.7 9-.1.6-.2 1.7-.3 2.2-5.5-.5-11.3-2.5-14.5-7.3-4.1-5.1-4-12.1-2.1-18.1l.6-1.2.1-.1c1.7-2.4 3.4-4.4 5.4-6m24.4 18.5c-5.7 4.2-7.2 12.4-5.4 18.9 1.5 5.6 6.8 8.8 12 10.6.3-1.5.6-2.9.9-4.4-2.9-3.8-6.8-7.4-7.6-12.3-.4-7 7.4-8.9 11.1-13.4-3.5-1.2-7.8-1.8-11 .6m14.9 32.9c-1.2 1.4-2.4 3.5-1.6 5.4 2.6 3.8 6.6 6.7 11.2 7.4-2.3-3-4.6-5.9-6.9-8.8 2.1-3.5 4.4-6.9 6.4-10.4-3.3 1.7-6.6 3.6-9.1 6.4zm-285.5-47c9.3 0 18.7.2 28-.1-.5 5.8 0 11.5.2 17.3-9.4.1-18.8 0-28.2 0 0-5.7-.1-11.4 0-17.2z" fill="#fff"/><path d="M146.3 255c5.1.1 10.1.2 15.2.1v7.8c-5.3-.1-10.6 0-15.9-.2 0-2.6.2-5.2.7-7.7zm-.6 8.4c4.2-.1 8.4-.1 12.6-.1v5.7c-4.1.1-8.2 0-12.2 0 0-1.9-.2-3.8-.4-5.6zm-28.1 9.3h28.2v24.5c-9.3.2-18.6 0-27.9.1-.1-8.2-.4-16.4-.3-24.6zM43.1 275c3-1.2 6.7-1.1 9.5.7 2.3 1.9 1.3 5.3 1.5 8H40.5c.1-3.1-.9-7.3 2.6-8.7zm451.7 33.8c3.9-2.8 8-5.3 12.1-8v8h-12.1zM59 307.9c40.4 0 80.9.2 121.3-.1-.3 23-.2 46.1 0 69.1-1.8 4.5-4 9-6.3 13.2-38.3.1-76.6 0-114.9 0-.1-27.4-.1-54.8-.1-82.2M90.9 319v15.8h18.9V319H90.9m23.6.1c.1 5.2.1 10.5 0 15.7 6.3.1 12.7.1 19 0 0-5.2-.1-10.5 0-15.7-6.3-.1-12.6-.2-19 0m21.8 0c.1 5.2 0 10.5 0 15.7h19V319c-6.3 0-12.6-.1-19 .1m24.4-.7v15.8h9.5v-15.8h-9.5m-69.6 20.1c-.4 5.3-.1 10.6-.2 15.9 6.3 0 12.7.1 19 0-.1-5.3 0-10.5-.1-15.8-6.2 0-12.5 0-18.7-.1m69.6-.5v15.8h9.5V338h-9.5m-46.1.6v15.8h19v-15.8h-19m21.8 0v15.8h18.9v-15.8h-18.9m-45.5 19.6V374h19v-15.8h-19m23.7 0c0 5.2.1 10.5 0 15.7 6.4.2 12.7.1 19.1 0-.1-5.2-.1-10.5 0-15.7h-19.1m21.8 0v15.7c6.3.2 12.7.1 19 .1v-15.8h-19m24.3-.6v22c3.1.1 6.3.1 9.4.1.2-7.4 0-14.8.1-22.2-3.2.1-6.3.1-9.5.1zm-117.2-10c4.2-2 11.4-.3 11.1 5.4-.4 5.6-7.8 6.5-11.9 4.3-3.7-2.1-3.2-8.2.8-9.7zm247.3 10.1c1.8-.5 3.6-1.1 5.4-1.6-1.5 2.3-3 4.6-5.2 6.4-.1-1.6-.2-3.2-.2-4.8zm207.3 1.9c2.7 1 5.4 2 8 2.9-2.7.9-5.4 1.8-8.1 2.8 0-1.9 0-3.8.1-5.7zM59 390.8c38.3 0 76.6-.1 115 0-.9 2.4-1.9 4.9-2.8 7.3-37.4-.4-74.9-.1-112.3-.2.1-2.3.1-4.7.1-7.1zm441.2 18.5c2.2-1.4 4.5-2.8 6.7-4.2v8.4c-2.2-1.4-4.5-2.8-6.7-4.2zm-459.5 2.2l8.1-2.7v5.7c-2.7-1-5.5-1.9-8.1-3zm-.3 25.8c.2-3.1-1.3-9.4 3.7-8.9 3.5 1.4 1.9 6 2.3 8.9h-6zm.4 37.6c.9-2.4 5-2.3 5.8.1.5 2.1.3 4.3.3 6.5h-6.4c0-2.3-.2-4.5.3-6.6zm121.6.6c6.7-2.3 13.9 4.5 12 11.3-1.3 7-11 9.9-15.9 4.7-5.3-4.6-2.9-14.3 3.9-16m-3.8 9.5c-.1 4.5 4.2 7.1 8.1 7.8-.3-2.2-2.2-3.7-3-5.7-.6-3.5.3-6.9.8-10.4-3.7 1-6.5 4.4-5.9 8.3zm-63.5-3.8c6.3-2.8 14 3 13 9.8-.4 7-9.4 11.2-15 6.9-6.1-4-4.9-14.4 2-16.7m-3.4 8.8c-.3 4.6 4 8.4 8.4 7.9-1.1-1.6-2.3-3.1-3.3-4.8-.8-3.6.3-7.2.7-10.8-3.2 1.1-6.1 3.9-5.8 7.7zm321.6 7.5c.7-2 1.5-3.9 2.3-5.8 14.1.1 28.1-.2 42.1-.1 1.1 2.3 2.5 4.5 3 7 1.2 1.4 2.8 1.7 4.5 1.7-3.3 1-6.9 1-10.3 1-11.3-.1-22.6.4-33.9 1-8 0-16.1-.2-24.1 0-2.2-.3-4.2-1.3-5.9-2.6-2.7-.6-5.5-.8-8.2-1.4 1.4-4 6.2-5.8 10.1-4.8 2.9.5 5.1 2.5 7.5 4.1 4.3.1 8.6-.1 12.9-.1zm-59.5 28.1c.5-16 18-28.3 33.2-24.2 9.1 2 17 8.3 20.9 16.8 5.6 11.6 3.7 27.5-6.9 35.6-7.6 5.9-18 5.8-27 4.1 1.3-.7 2.7-1.2 4.1-1.8-.7.2-2.2.5-3 .7l.5-1.2c-2.5-.5-5-1.4-7.3-2.5.9-1.2 1.8-2.3 2.6-3.5 3 1.6 6.2 2.7 9.5 3.2.3 1.6.5 3.2.8 4.8 5.1-.7 10.6-1.2 14.9-4.5 6.2-4 10.6-10.7 11.5-18 0-6.5.5-14-4.3-19.2 1.6 2.5 2.8 5.2 3.5 8.2h-4c-1-2.4-2.2-4.8-3.5-7 1.1-1 2.3-1.9 3.4-2.8-1.6-1.8-3.3-3.5-5.1-5.1-1 1.1-2.1 2.2-3.1 3.4-2.3-1.5-4.8-2.6-7.4-3.5 0-1.6.1-3.3.2-4.9-4.2.2-8.4.1-12.5.2 3.1-.3 2.7 2.5 2.8 4.7-1.9.6-3.7 1.3-5.5 2-1.1-1.2-2.5-2.2-3-3.9-3.3 2.4-6.6 4.9-8.6 8.4-2.1 2.9-2.9 6.4-4.4 9.6-.6.1-1.7.3-2.3.4z" fill="#fff"/><path d="M435.8 502.2c10.1-1 20.4-.1 30.5-.6 3 .8 4.2 4.2 6 6.5-5.1.3-10.3.1-15.4.3 5 .5 10.1 0 15.1.2 1.6.2 1.3 2.7 2 3.8-14.3-.5-28.7-.1-43-.3-8 .1-16.1-.3-24.1.3l-1.5-3c-2.4-2.1-4.5-4.5-7.4-6 4.6-1.1 9.3-.7 14-.7 8 .2 15.9-.2 23.8-.5zm-315.5 6.3c6.4-2.2 13.8 2.9 14.1 9.6.8 6.5-5.4 12.6-11.9 11.8-5.8-.4-10.6-6-9.9-11.8.2-4.4 3.5-8.4 7.7-9.6m-5.1 10.5c-.5 4.6 3.8 7.9 8 8.3-.5-2-2.1-3.4-2.9-5.3-1-3.5.3-7.1.6-10.6-3.2.9-6.1 3.9-5.7 7.6zm259.9-6.6c6.8-2.9 15.2-1.2 20.4 4.1 6.6 6.3 7.8 17.3 2.8 25-4.1 6.8-12.6 10.5-20.3 8.5-7.1-1.5-12.6-7.5-14.5-14.4 3.1-.1 6.2-.1 9.3 0 2.5 4 7.4 6.7 12.2 5.4 6.4-1.4 10.2-9 7.9-15-1.7-5.4-7.9-8.9-13.4-7.2-3.4.9-5.8 3.7-7.5 6.7h-8.4c1.9-5.8 5.9-10.9 11.5-13.1zm-12-.1c1.2 1 2.4 2 3.6 2.9-2.5 3-4.4 6.5-5.5 10.2h-4.8c1.6-4.7 3.7-9.2 6.7-13.1zm44.6.4c5.8.4 11.5 0 17.3.1 16.5-.2 33 .5 49.5-.4.2.7.6 2.2.8 2.9-4.4 0-8.9-.1-13.3.1 4.5.2 8.9.1 13.4.2.4 1.2.8 2.4 1.1 3.6-16.5-.3-33 .6-49.6.5-5.3.1-10.5-.1-15.8.5-.4-1.2-.8-2.3-1.1-3.5-.8-1.2-1.6-2.6-2.3-4zm3.8 8c13.5-1 27 0 40.5-1 8.2-.1 16.4 0 24.6 0 1.7 7.4 1.8 15.2.2 22.6-21.7 0-43.3.1-65-.1 2.1-7 2-14.6-.3-21.5z" fill="#fff"/><path d="M374.8 525.2c2.3-4.2 8.1-6.1 12.2-3.3 5.1 3.1 5.6 11.2.9 14.9-3.5 3.2-9.4 2.4-12.2-1.3 2.4-.1 4.7.1 7.1-.2 3.1-1.3 4.1-5.5 1.9-8-2.1-3.4-6.6-1.5-9.9-2.1zm120.1 9.6l12-7.8v7.9c-4 0-8 .1-12-.1zM347 527.9c3.1 0 6.2 0 9.3-.1 0 1.8 0 3.6-.1 5.4-3.1-.1-6.2-.1-9.3 0 .1-1.8.1-3.6.1-5.3z" fill="#fff"/><path d="M356.7 527.8c8.5.2 16.9.2 25.4.2 1.1 1.6 1.5 3.5.1 5.1-8.5 0-17 0-25.6.1.1-1.9.1-3.7.1-5.4zm46.8 6.4l3.9-.3c-.3 3.3-1.5 6.5-2.9 9.5-1.1-.7-2.2-1.5-3.3-2.2 1-2.3 1.8-4.6 2.3-7zm-49.3.9c2.8.2 2.6 3.4 3.6 5.2 2 6.6 7.4 11.1 12.8 14.8 1 .3 2 .7 3 1 0 .4-.1 1.2-.2 1.5-4.1-1.4-8.6-2.3-11.9-5.4-4.5-4.3-6.7-10.8-7.3-17.1z" fill="#fff"/><path d="M356.4 535.5h4.7c1 3.6 2.6 7 5 10-.8 1.2-1.7 2.4-2.5 3.7-3.8-3.8-5.5-8.9-7.2-13.7zm-278.2 9.7c3.3-6.2 13.3-6.2 16.5.1 3.3 5.4-.3 12.8-6.3 14.2l-.5-.5c-.2-2.4-2-4-3.1-5.9-.8-3.6.3-7.1.7-10.6-3.2 1.1-6.1 3.8-5.8 7.5-.3 3.8 2.3 6.8 5.8 7.9.1.3.4.8.6 1.1-6.9 1.3-11.7-8.3-7.9-13.8zm143.9-3.9c6.5 6.5 13 13.1 19.5 19.6-1.1 1.9-1.2 4.6-3 6-5.5-8.5-11.1-17-16.5-25.6zm72.3 19.7c6.5-6.6 13.1-13.1 19.6-19.8-5.4 8.7-11.1 17.2-16.6 25.8-1.8-1.4-1.9-4.1-3-6zm-66.5-17.5c6.3 1.9 12.5 4 18.9 5.8-1.2 3.1-2.7 6.2-4.1 9.2-5-4.9-10.1-9.8-14.8-15zm61.2 6c6.3-2.1 12.7-4 19-6-4.8 5.2-9.9 10.1-14.8 15.1-1.3-3.1-2.7-6.1-4.2-9.1zm121.4-3.9c-.1-4 3.9-2.8 6.5-2.9 19.8.1 39.7 0 59.5.1-.5 1.2-.9 2.4-1.4 3.6-21.7-.3-43.3-.2-65 .3zm-12.8.5c1.2.8 2.3 1.5 3.4 2.3-3 3.1-6.5 5.6-10.5 7.2l-.6-4.2c2.9-1.3 5.5-3.1 7.7-5.3zm11.4 1.5c19.2-1.2 38.6-.6 57.8-.8 2.6 0 5.2.2 7.8.6-.6 1.3-1.5 2.3-2.7 2.8-21.3-.2-42.7-.2-64.1.4l.3-1.2zm87.3 1.9c2.7-.8 5.9-.8 8.2.9 3 2.2 2.6 7.6-.9 9.3-3.2 1.4-7.7 1.4-10-1.6-2.1-2.9-.7-7.5 2.7-8.6zm-346.2.9c6.6-3.1 14.7 3.5 13 10.6-1 7.1-10.6 10.3-15.7 5.4-5.3-4.3-3.7-13.7 2.7-16m-3 8.6c-.3 4.6 4.1 7.3 8 8.1-.4-2.7-3.1-4.3-3.3-7-.2-3.1.7-6.2 1-9.2-3.4 1.2-6.4 4.2-5.7 8.1zm120.5-7c1-.9 2-1.7 3.1-2.5 2.5 5.2 7.5 8.5 9.8 13.9l.1.1c.8 1.4 1.8 2.8 2.7 4.2 1.7 2.6 2.6 5.7 2.6 8.8-8.7 0-17.3-1.1-25.9-.4-3.6.2-7.3.6-10.7-.7 0-.3 0-.9-.1-1.2 3.4-3.9 8.7-1.5 13-1.3-4.4-1.1-9.5-2.5-13.4.8l.3-1.8c1.8-4.3 6.4-6 9.2-9.4 2.9-3.7 6-7.2 9.3-10.5zm138.8-.4c18.8-1.2 37.7-.6 56.5-.9 3-.1 6 .1 8.9.7-2.4 2.1-5.2 3.5-8.1 4.8-14.3-.3-28.5-.1-42.8-.1-5.7-.1-11.4-1.2-17-1.7.6-.6 1.9-2 2.5-2.8zm-9.9 7.5c1.9-1 3.7-2.2 5.6-3.3.8-.2 2.5-.5 3.3-.7.1 3.7 0 7.5.8 11.1-3.2.2-6.4.2-9.7.2v-7.3zm9.8-3.4c4.2.1 8.4.6 12.6 1.4-2.9 2.4-5.8 4.8-8.3 7.7 3.2-2.4 6.2-5.1 9.3-7.7 2.8 4.3 5.7 8.7 8.4 13.1-6.3-.5-12.4-2.3-18.8-2 6.3 1 12.7 1.9 19 2.8.6 3.3.8 6.7.7 10-6.8-1.1-13.5-2.3-20.3-3.4-.3-3.8-.6-7.6-.4-11.4-.6.1-1.7.3-2.2.5.1-3.7 0-7.3 0-11z" fill="#fff"/><path d="M421 557c11-.2 22.1-.1 33.1-.1 3.5-.1 7 .3 10.5.9-.1 2.3-.1 4.7-.1 7.1-11.7 5.4-23.1 11.2-34.8 16.6.1-3.4 0-6.8-.8-10l.8-.3c10.6-4.4 21.6-8 32-13-11.1 3.4-21.5 8.6-32.5 12.2-2.7-4.6-5.7-8.9-8.2-13.4zm-60.2 5.4c1.7-1.6 3.4-3.1 5.2-4.7 2.5.8 4.9 1.6 7.5 2.3-.1 2.1-.1 4.3-.1 6.5-2.5.3-4.9-.5-7.2-1.5-1.9-.9-3.7-1.8-5.4-2.6zm-142-2.5c6.4 3.4 12.6 7 18.8 10.7-.9 1.6-1.9 3.2-2.8 4.9-5.3-5.3-11-10.2-16-15.6zm79.6 10.6c6.2-3.7 12.4-7.2 18.7-10.6-5 5.5-10.7 10.3-16 15.5-.8-1.6-1.7-3.3-2.7-4.9zm89.2-9.2c2.9-.5 5.8-1.1 8.6-2v7.1h-8.6c.1-1.7.1-3.4 0-5.1zm-13.8-1.2c2 .3 4 .6 6 1 0 1.8.1 3.5.1 5.3h-6.2c0-2.1 0-4.2.1-6.3zm6.3 1.1c2.4.1 4.8.1 7.2.1v5.1h-7c-.1-1.7-.2-3.5-.2-5.2z" fill="#fff"/><path d="M351 563.8c3.3-.5 6.7-.3 10-.9 3.2 1.5 6.4 3.1 9.8 4-1 1.3-2 2.7-2.9 4.1-6.5-.1-13-.5-19.5-.7.7-2.2 1.4-4.4 2.6-6.5zm-97.8 18.5c10.8-2.4 22.2-2.2 33 .3-.2.4-.8 1.1-1 1.4-.3.4-1 1.2-1.3 1.7-7.6-.2-15.3 1-22.9 0-2.1.2-5.2-1.2-6.2 1.5-.5-.9-1.1-1.9-1.6-2.8-.3-.2-1-.7-1.3-.9l.1-.3c.2-.2.8-.7 1.2-.9zm1.3 5.7h29.4c-.4 1.8-.7 3.5-1.1 5.2h-26.9c-.4-1.7-.9-3.4-1.4-5.2zm1.6 5.4c.7.2 2 .6 2.7.9.8 2.7 1.1 5.4 1.9 8.1-.3-3-1-5.9-1.6-8.8 2.4-.2 3.6.9 3.5 3.2 1.4 5.1-1.1 10.4.4 15.4.3 1.8.7 3.7-.7 5.2-2-6.5-3.5-13-5.4-19.5-.1-.4-.3-1-.4-1.4.1-.9-.2-2.4-.4-3.1m5.2 10c-.8.7-.9 3.2.5 3.2.7-.8.9-3.2-.5-3.2zm1.6-9.7h5.4c.1 5 .1 10.1-.9 15.1-1.5-3.1-2.4-6.5-3.4-9.8-.5-1.8-.8-3.5-1.1-5.3zm163.4 2.7c3-1.5 7 0 8 3.2.8 2.5.6 5.5-.9 7.8-2.4 3.2-8.1 2.7-9.7-1-1.5-3.4-1-8.3 2.6-10zM72 599.7l5.7 1.2c-1.6 2.3-3.1 4.7-4.6 7.1-.4-2.8-.9-5.6-1.1-8.3zm70 1.3c2-.1 4-.1 6-.1-1 2.6-2 5.3-2.7 8-1.1-2.6-2.2-5.2-3.3-7.9zm45.5.1c2-.1 4-.2 6-.2-.9 2.6-1.8 5.1-3 7.6-.9-2.5-1.9-5-3-7.4zm81.5-.8h1c0 3.9-.2 7.9 1.5 11.4-.2 1.1-.4 2.2-.5 3.3h-3c-.2-1.3-.4-2.5-.6-3.8 1.3-3.4 1.4-7.2 1.6-10.9zm95.4.8h5.9c-1.1 2.6-2.1 5.2-2.9 7.9-1.1-2.6-2.1-5.2-3-7.9zm-200.2 3c2.6-1.2 5.5-.6 8.3-.8 0 1.8.1 3.7.1 5.5-2.6.1-5.2.3-7.7-.1-2-.4-2.6-3.5-.7-4.6zm45-.8c2.3-.6 4.8-.4 7.1-.5.1 2 .1 4 .2 6-2.4 0-4.8.3-7.2-.2-2.2-.7-2.4-4.5-.1-5.3zm54.3 7.4c.2-2.6.5-5.2.9-7.8.6 1.8 1.2 3.6 1.8 5.3.5 2.3.9 4.7 1.4 7-.8.1-2.3.4-3 .5-.5-1.7-.8-3.4-1.1-5zm9.4-6.7c.5-.3 1.4-.9 1.9-1.2.3 4.3 1.1 8.5 1.7 12.8-.6-.1-1.9-.2-2.5-.3s-1.7-.2-2.2-.3c.5-3.7.7-7.3 1.1-11zm-4.9 22.8c1.8.9 3.5 1.8 5.3 2.7.5-.5 1.5-1.5 2-1.9.1 3.4-3.6 5-3.9 8.4-1.6-2.9-2.5-6.1-3.4-9.2zm193.5 44.7c.7-1.7 2.4-3.8 4.5-2.9 2.8.6 3.7 3.8 3.9 6.3.2 3.4.4 7.5-2.1 10.1-1.4 1.4-3.5.6-5.2.5-2.2-4.2-2.7-9.4-1.1-14zm-301.7 40.9c2.4.2 5.8.2 6.8 2.9 1.1 3.7 1.3 8-.8 11.4-1.2 2-3.7 1.7-5.7 1.4-.5-5.2-.3-10.5-.3-15.7zm180.3 8.9c1-2.3 2.3-4.6 3.9-6.6-.2.8-.7 2.4-.9 3.3l1.7-.6c-.2 1.3-.4 2.7-.5 4-1.1 0-3.2-.1-4.2-.1z" fill="#fff"/><path d="M134.1 40.4c2.1 0 4.2.1 6.3.1 1.4 12.8 2.8 25.7 4.1 38.5.1 1.4.7 2.7 1.4 3.9 3.3-.1 6.6 0 9.8-.1V63.6h13.7v20.1h9v12.7h6.9c.1 19.9-.1 39.9.1 59.8 6.7-.1 13.3-.1 20 0 .1 3.6.2 7.2.4 10.8 8-.9 16.1-.6 24.2-.1 10.3.1 20.7 0 31 0 5.3.2 10.6-.9 15.9-.2 19.1.5 38.3-.1 57.4-.3-.2-26.2-.1-52.5-.2-78.7-3.1 0-6.2.1-9.3 0 .5-5.2.5-10.5.6-15.8 14.5-.1 29 .1 43.5.1.1 26.8-.1 53.6.1 80.4 4.6-.1 9.1 0 13.7 0 6.6-13.7 13.4-27.4 20-41.1l3.6-.4c-3.7-3-7.5-6.4-8.9-11.1-2.7-8.5-.5-18.5 6.2-24.6 5.6-5.3 14.2-7.1 21.5-4.5 7.1 2.4 12.7 8.7 14.1 16.1 1.2 5.7.1 11.9-3.3 16.5-2.2 3-5.4 5.1-8.2 7.5.8.1 2.5.3 3.3.4 8 13.9 15.4 28.1 23.8 41.8 0-14.7-.1-29.4.1-44.1 11.1.1 22.1 0 33.2 0v63.5l-159.8-.6c-11 .3-22.3 4.9-29.3 13.7-2.6 3.2-4.3 7.1-6.1 10.9-13.8.1-27.5.1-41.3 0-5.1-8.3-11.6-16.2-20.6-20.4-5.5-2.7-11.7-3.6-17.8-3.6-53.3.1-106.5-.1-159.8.1V110c11.2 0 22.5.1 33.8 0 .2 14.5 0 29 .1 43.5 9.5-.1 19 0 28.5-.1V110h-19c0-1.9-.1-3.8-.1-5.7 11.8-3.9 23.7-7.4 35.6-11.3.4-17.3 1-35 1.8-52.6m279 72c-.1 2.6-.1 5.3-.1 7.9h7.9c0-2.6 0-5.3-.1-7.9h-7.7m-.1 10.4v7.9h7.8v-7.9H413m0 10.9c0 2.7 0 5.3.1 7.9h7.8c0-2.6.1-5.3.1-7.9h-8m0 10.8v7.9h7.9v-7.9H413m-169.8 32.7c0 2.1 0 4.1.1 6.2 2.6 0 5.3 0 7.9-.1 0-2 0-4 .1-6-2.7-.1-5.4-.1-8.1-.1m14.5.1v6.1c2.7 0 5.3 0 8 .1v-6.1c-2.6-.2-5.3-.2-8-.1m15.1 0c0 2 0 3.9.1 5.9 2.6.4 5.2.2 7.9.2 0-2.1 0-4.1.1-6.2-2.7 0-5.4 0-8.1.1m14.9 0v6.1c2.7 0 5.3.1 8 .1v-6.2c-2.7-.1-5.3-.1-8 0z" fill="#01337c"/><path d="M227.3 60.2h14.2v8.7h7.2c0 2.1.1 4.2.1 6.3 2.4.4 4.9.8 7.2 1.5-9.6-1.8-19.6-1.4-29.1 1.2-2.8 2-4.1 5.4-5.8 8.2.2-.7.5-2 .6-2.7h-6.3V69.1c3.9-.1 7.8-.1 11.7-.1.3-2.8.3-5.8.2-8.8zm-57.5 364.6c3.7-.6 7.5-.3 11.2-.4 62 .1 124 .2 186 .4 4.5.1 8.9-.2 13.4.3-1 .8-2 1.1-3.3 1.1-67.4-.1-134.7-.3-202.1-.4-1.8-.1-3.9.4-5.2-1zm-.6 9.5c59.3.2 118.5.2 177.8.4 10.9.2 21.9-.2 32.7.3l.9 1.1c-70.5.1-141-.2-211.5-.3 0-.4.1-1.2.1-1.5zm1.2 11.7c.8-2 3.1-1.1 4.7-1.3 66.7.2 133.3.3 200 .4 1.5.2 3.6-.6 4.4 1.2-16.1.5-32.3 0-48.5.1-53.6-.2-107.1 0-160.6-.4zm1.7 9.2c53.3-.3 106.6.2 159.9.2 14.5.1 29-.1 43.5.2.3.3.9.8 1.2 1.1-51.9.2-103.8-.2-155.7-.2-15.9-.1-31.8.1-47.6-.2-.3-.3-1-.8-1.3-1.1zm4.7 12.5c.4-1 1.1-1.4 2.1-1.3 63.4.1 126.8.3 190.1.3 1.5.1 3.5-.4 4.3 1.3-50.8.3-101.6-.2-152.4-.1-14.6-.1-29.4.1-44.1-.2zm6.2 9.5c56.3.1 112.6.2 169 .4 4.9.1 9.9-.3 14.8.2l.9 1.1c-61.5.2-123.1-.2-184.6-.2 0-.4 0-1.1-.1-1.5zm6.4 12.6c.7-2 3-1 4.6-1.3 54 .2 108 .3 162 .4 1.5-.1 3 .3 4.4.9-2.1.5-4.2.5-6.4.5-54.9-.2-109.7-.1-164.6-.5zm8.5 10.8c.5-1.4 1.9-1.3 3.1-1.2 49.7.2 99.4.2 149.1.4v1.3c-50.8-.1-101.5 0-152.2-.5zm12 9.8c15.3-.5 30.7 0 46-.1 25.7.1 51.3.2 77 .2 1.5 0 3.3-.2 4.3 1.2-40.7.4-81.5-.2-122.2-.2-1.7-.1-4 .7-5.1-1.1zm-.1 2.6c5.1 3.6 10.5 6.7 16 9.7 2.3.7 3.8-2.3 6.2-1.7 27.7.1 55.4.3 83.1.4 1.4-.1 2.7.3 3.8 1.1-4.3.5-8.6.3-12.8.3l-74.2-.3c-1.8-1-2.1.7-2.7 1.7 13.3 5.8 27.8 8.5 42.2 8.9-7.1.5-14.2-.6-21.1-1.8-14.6-3.2-28.9-8.9-40.5-18.3z" fill="#01337c"/><path d="M275.8 136.9c3.8-2.1 7.8-4.2 12.2-4.6 7.8-.3 15.9-.4 23.3 2.3-3.8 0-7.4-1.6-11.3-1.8-4-.1-8.1-.2-12.1.1-4.3.3-7.9 3-12.1 4zM90.6 180.3c1.1-.1 2.2-.2 3.2-.3.1 6.1.2 12.2-.3 18.2 4.5 0 9 .1 13.4-.2 6-.4 12 .4 18 .2 5.4-.2 10.8.6 16.1-.9.3.1.8.2 1.1.2 3.3.9 6.7.8 10.1.7l-.1-1.1c.2.1.8.2 1 .2 5.4 1.5 11.1 1 16.5.6l1.4-.7h3.8l1.3.7c6.8.4 13.7 1 20.4-.6 1.1-.1 2.2-.1 3.3-.1l1.4.6c5.3.7 10.8.2 15.8 2.4-4.3-.9-8.7-1.3-13.1-1.3H71.8c-2.8 0-5.5.2-8.2.8 4.4-2.4 9.6-.6 14.1-2.3.2-.1.7-.2 1-.2l-.1 1.1h12.7c-.3-4.1.3-8.4-1.2-12.4.5-.9 1-1.7 1.5-2.6.2 4.4-.7 8.8 0 13.1l1.6 1c.1-5.5 0-11.1-.1-16.6h-3zm126.7 20c.1.1.3.2.4.2-.1 0-.3-.1-.4-.2zM58 218c.2-4.8-.9-10 1.5-14.4-1.5 7.4-.7 15-.8 22.5.1 19-.3 38.1.2 57.1.2 8 0 16 .1 24 30 .1 60 .1 90 0 10.6 0 21.3.2 32-.2-.4 22.8-.3 45.7-.1 68.5l2-.4c-4.6 7.2-7.9 15.1-10.6 23.1l-1.1-.1c.9-2.4 1.9-4.9 2.8-7.3-38.3-.1-76.7-.1-115 0 0 2.4 0 4.8-.1 7.2-.3 5.3-.2 10.7-.2 16v164c0 3.3.4 7 3 9.3 2.6 2.9 6.7 3 10.2 3 44.4-.1 88.7 0 133.1 0 4 0 8-.2 11.9.4.3.3 1 .9 1.3 1.2-1.7-.6-3.5-.9-5.2-.9H68.9c-6.3.3-11.5-5.7-10.9-11.9.1-120.5 0-240.8 0-361.1m1 89.9v82.2c38.3-.1 76.6 0 114.9 0 2.3-4.2 4.6-8.7 6.3-13.2-.2-23-.3-46 0-69.1-40.3.2-80.8.1-121.2.1zm429.4-104.2c1.3 2.2 1.6 4.8 1.6 7.4V577c0 3.3 0 6.9-2.2 9.7-2.2 3.1-6.1 4.4-9.8 4.3H333.9c-4.1.1-8.7-.8-12.3 1.8 1.4-1.5 3.1-2.8 5.3-2.5h143c4.1 0 8.2.3 12.2-.5 4.7-1.2 7.3-6.1 7-10.7V212c.1-2.8-.1-5.6-.7-8.3zm-97.2 40.6c2.2 5.4-.5 11.2.6 16.7 5.5.1 11.7 1 15.5 5.4-5.5-3.6-12.7-6-19.1-3.1-5.9 1.8-9.5 6.9-12.4 11.9 2-7.1 8.5-12.2 15.5-13.7-.3-2.9-2.9-4.5-3.9-7.1-.9-2-2.5-3.5-4-5 1.4.6 3 1 4.3 1.9.6 1.5.8 3 1.6 4.4.4.2 1.2.7 1.6.9.9-4.1.9-8.2.3-12.3zm-32.6 12.3l.1-.1s-.1 0-.1.1zm-2.6 8.8c.2-2.6.2-5.5 2-7.7-1.9 5.9-1.9 13 2.1 18.1 3.2 4.8 9 6.8 14.5 7.3.1-.6.2-1.7.3-2.2.1-1 .4-3 .5-4-.4-.5-1.1-1.4-1.5-1.9.5.2 1.4.6 1.9.9-.1 3.3-.5 6.6.2 9.9-.5-.2-1.6-.5-2.1-.7.4-.2 1.2-.6 1.5-.8-3.9-.8-8-1.3-11.3-3.6-4.8-3.5-8.5-9.2-8.1-15.3zm-77.4 68.7c1-3.2 4.7-3.2 7.4-4.2 4.1.3 5.5 4.9 7.3 7.9.3-.4.9-1.3 1.2-1.8.6 1.6 1.3 3.1 2.3 4.5-1.9 5.9-4.5 11.8-9.2 16-3.5 3-6.3 6.9-7.7 11.4.4 2.2 1.1 4.4 1.2 6.7-3.1-.3-4.8 2.6-7 4.3 2.6 1.3 5.5 1 8.2.3-.7 4.3-6.9 4.2-6.6 8.7h1.4l-.7 1.4c-.7-.9-2.1-2-1.2-3.3.5-2.9 5.5-2.6 5.1-5.4-2.7-.1-6.2.6-7.1-2.8 2.9-1.1 5-3.5 6.9-5.8-.3-1.6-1.3-3.2-.9-4.9 1.8-4.5 4.6-8.4 8.3-11.5 3.6-3.3 5.5-7.8 7.5-12.1-1.3-3.1-2.9-6.1-4.4-9.2-.9-1.8-2.2-3.3-4.2-3.8.3 1.7.1 3.4-.5 5.1-2.7.6-5.4 1.7-8.2 1.6 0 3.2.2 6.5-.3 9.7-1.5 3.5-3.6 6.9-6.6 9.3.3 2.5 3.2 4.9.2 7.2.7.7 1.3 1.5 2 2.2-.8.3-2.4.9-3.2 1.1.6 1.5 1.5 2.8 2.2 4.3-1.1-.4-2.2-.9-3.3-1.3-.7.2-2.1.5-2.8.6 1.2.3 3.4.9 4.6 1.2-1.7.6-3.5.5-5.3.1l-1.8 2.1c1.2 2.9 2.6 5.9 2.9 9.1-1.5 2.8-4-.8-5.5-1.8-1.2.3-2.4.6-3.6.8-.2-.3-.6-1-.8-1.3 1.1-2 1.6-4.2 1.7-6.5-3.4-.6-6.9-1.4-10.1-2.6-3.5 2-6.8 4.2-9.9 6.7-.5 1.6-.4 3.2-.4 4.9.2 12.8-.1 25.6.2 38.4 2.9-1.2 4.6-4.4 7.9-5.2.4.5 1.1 1.4 1.4 1.8.7 0 2.1.1 2.7.1 2.6-4.2 5-8.4 7.4-12.7 1.5-.4 3.1-.5 4.7-.7l2.4-4.2c-1-.2-2.1-.4-3.1-.6-1 1.5-1.9 3.1-3.5 4.1 1.4-3.6 3.8-6.8 6.4-9.6.4.1 1.1.4 1.4.6.6 3.8-1.1 7.3-3.1 10.4-1.7.2-3.4.5-5.1.8-1.7 4.5-4.7 8.2-7 12.4-1.9.2-3.9.1-5.2-1.5-2.1.9-4.1 2.2-4.8 4.5-1.1.1-2.2.1-3.3.2.2-14.7-.2-29.3.2-44 3.3-2.7 7-4.8 10.5-7.2-.1-1.7-.2-3.5-.3-5.2 1-1 2-2.1 3-3.1-.6-.8-1.1-1.5-1.7-2.3l3.3 1.2c-1.3 1.4-2.8 2.5-3.8 4.2.2 1.9-.3 4.5 1.5 5.8 2.9 1 6 1.2 8.9 1.9.1 2.6-.5 5.2-1.6 7.6 1.2-.3 2.4-.4 3.6-.5 1.6.9 2.8 2.3 4.6 2.8.1-3.8-2.2-7-2.5-10.7 1.6-.8 2.8-1.9 2.6-3.8-1.6-.7-3.2-1.5-4.8-2.3 1.5-.1 3.1-.1 4.6-.2.9.9 1.4 3.1 3.1 2.6-.1-.4-.2-1.3-.2-1.7 1-.5 2-1 3.1-1.5-.9-1.7-1-3.3.5-4.7-2.4-5.4-4-12.3-9.9-14.9-2.6-1.1-4.2.9-5.5 2.9 1.2 3.2-1.6 4.5-3.8 6 .5 2.6-1.8 3.6-3.8 4.2 1-1.2 3.9-1.9 2.4-3.9 1.4-1.1 2.9-2.2 4.4-3.3-.6-2.7 1.2-5.2 3.2-6.7 5.9-.7 9.5 5.5 11.3 10.2 3.3-1.7 5-5.2 6.5-8.4.6-3.6.3-7.2.2-10.8 3.5.5 9.6.1 9.3-4.7-2.4.6-4.9 1.7-7.4 2.8z" fill="#828386"/><path d="M291.5 356.7c1.8-.7 3.7-1.1 5.6-1.5-1.4 3.3-3.4 6.8-6.9 8.3.2-2.3-.9-5.3 1.3-6.8m-.7 1c0 1.6.1 3.2.2 4.8 2.2-1.7 3.8-4 5.2-6.4-1.8.5-3.6 1-5.4 1.6zm-33.4 6.5c1.2-.9 1.9-.6 2.2.7-1.3.9-2 .6-2.2-.7zm-3.3 7.1c.1-2.4 1.3-4.4 2.6-6.2 1.9 1.3 3.8 2.5 5.8 3.8-1.9.1-3.3-1-4.6-2.2-2.3.1-2.4 3.2-3.8 4.6zm-5.1 8.8c.3.3 1 .8 1.4 1.1.8 2.3 1.1 4.9 2.8 6.7 2.7.5 5.4.2 8.1.1-2.1 1.6-4.5 2.9-6.4 4.7.1 2.8 1.3 5.4 2.2 8.1l-7.2-4.8c-2.5 1.6-4.9 3.2-7.4 4.9.9-2.7 1.8-5.4 2.7-8-2.3-1.6-4.6-3.2-6.8-4.9 2.8.2 5.6.2 8.4-.1.7-1.8 1.4-3.7 2.3-5.4-.3 2-.9 4-1.5 5.9-2.2.2-4.3.3-6.5.5 1.5 1.2 3.1 2.4 4.8 3.4-.6 2.2-1.2 4.4-1.9 6.7 1.9-1.2 3.7-2.5 5.6-3.8 2 1.2 3.9 2.4 5.9 3.6-.5-2.2-1-4.3-1.3-6.5 1.6-1 3.1-2.2 4.6-3.4-2.1-.2-4.3-.3-6.4-.4-1.3-2.7-2.6-5.4-3.4-8.4zm30.3 5.1l1.2.8c-2.3 3.2-2.1 7.5-3.8 11-2 4.4-2 9.3-3.8 13.7.1 3.7-1.7 7.4-4.8 9.5.9-2.5 2.1-4.8 3.3-7.1-.5-2-1.1-4-1.7-5.9-.9-.7-1.7-1.4-2.5-2.2.3-2.7 2-6.2-1.2-7.8.4-.2 1.1-.6 1.5-.9 1.6 2.7 1.1 5.7.4 8.6.8.6 1.7 1.2 2.6 1.7.2 1.4.4 2.9.6 4.4 2.8-2.1 2.1-6 3.1-9 1.1-5 4.7-9.7 3.2-14.9.6-.5 1.5-1.5 1.9-1.9zm186 115.1c.3.5.7.9 1 1.4-10.2.5-20.4-.4-30.5.6-7.9.2-15.9.7-23.8.6-4.7.1-9.4-.4-14 .7l-.4.1c-.2-.3-.5-1-.7-1.4 8-.2 16.1 0 24.1 0 11.3-.7 22.6-1.2 33.9-1 3.6 0 7.1 0 10.4-1zm-58.4 12.2c8-.7 16.1-.2 24.1-.3 14.3.1 28.7-.3 43 .3h.5c-16.5.9-33 .2-49.5.4-5.8-.1-11.5.3-17.3-.1-.2-.1-.6-.3-.8-.3zm3.7 32.6l-.2.5-.3 1.1c21.7-.5 43.3-.7 65-.3-.1.3-.2.8-.3 1.1-2.6-.4-5.2-.6-7.8-.6-19.3.2-38.6-.4-57.8.8.4-.9.9-1.8 1.4-2.6zM267.7 552c-2-2.1 3.7-5.7 3.1-2.5-1.1.9-2.1 1.7-3.1 2.5zm140.8-3.2l-.1.5-.3 1.2c21.4-.6 42.7-.6 64.1-.4v1.3h-.2c-2.9-.6-5.9-.8-8.9-.7-18.8.3-37.7-.4-56.5.9.5-.9 1.2-1.8 1.9-2.8zm-6.3 7c.6-.4 1.1-1 1.8-1.2 5.7.5 11.3 1.5 17 1.7 14.3-.1 28.6-.2 42.8.1.2.4.6 1.1.8 1.4-3.5-.6-7-1-10.5-.9-11 .1-22.1-.1-33.1.1 2.6 4.5 5.6 8.8 8.3 13.3 11-3.6 21.4-8.8 32.5-12.2-10.4 5-21.4 8.6-32 13h-1.1c-6.4-.9-12.7-1.7-19-2.8 6.3-.4 12.5 1.4 18.8 2-2.7-4.5-5.6-8.8-8.4-13.1-3.1 2.6-6.1 5.3-9.3 7.7 2.5-2.9 5.4-5.2 8.3-7.7-4.2-.8-8.4-1.3-12.6-1.4 0 3.7.1 7.3 0 11l-.1-.5c-.8-3.6-.7-7.4-.8-11.1-.9.1-2.6.4-3.4.6zm-121.7 7.6l.1.1c-.1 0-.1-.1-.1-.1zm-28.9 20c.1 0 .2-.1.2-.2l-.1.3zm16.7 10.3h1.3c.2 3.8 1.2 7.5 1.2 11.3.2 1.7-.3 3.7 1 5-.1.4-.2 1.3-.3 1.7-1.8-3.6-1.5-7.6-1.5-11.4h-1c-.2 3.7-.3 7.5-1.6 11.1-.4-1.1-.9-2.1-1.3-3.2-.6-1.8-1.2-3.6-1.8-5.3-.4 2.6-.6 5.2-.9 7.8l-.3 1.4c-1.5-5 1-10.3-.4-15.4.4.8.8 1.5 1.2 2.3 1 3.3 1.9 6.7 3.4 9.8 1.1-5 1-10 1-15.1zm5.1 2.6h1.2c0 4.7 1.4 9.3 1.5 14.1.6-1.2 1.1-2.5 1.7-3.7 0 1.9-.1 3.9-.1 5.8h1.2c.3-3.2.8-6.4 2.1-9.3-.1 5-2.4 9.7-2.4 14.7-1.5-1-3-2-4.6-2.6.6.1 1.9.2 2.5.3-.6-4.2-1.4-8.5-1.7-12.8-.5.3-1.4.9-1.9 1.2l-.4.2c.2-.5.6-1.6.8-2.1 0-1.9 0-3.8.1-5.8z" fill="#828386"/><path d="M261.3 603.4c1.4 0 1.3 2.5.5 3.2-1.5 0-1.4-2.5-.5-3.2zm.8 14.9c4.8 2.4 10.8 2.9 15.7.2-.5 5.7-2.9 11.1-3 16.9-.5-.9-.9-1.7-1.4-2.5-1 3.3-1.2 6.9-3.1 9.9-.2-2.2-.5-4.5.4-6.6-1.3-1.8-2.7-3.5-4.2-5.1 1 5.4 2.7 10.6 3.9 15.9 1.7-1.7 1.8-4.1 1.9-6.4h.8c-.6 3.3-.8 6.8-2.3 9.8-3.1-10.6-5.8-21.4-8.7-32.1m5.9 8.5c.9 3.1 1.8 6.3 3.4 9.1.2-3.4 4-5 3.9-8.4-.5.5-1.5 1.5-2 1.9-1.8-.8-3.6-1.7-5.3-2.6z" fill="#828386"/><path d="M273.1 637.2c1.3.3 1.5 1.1.6 2.3-1.2-.3-1.4-1-.6-2.3zm57.5 30.8h6.6c-5 5.4-1 13.2-3.5 19.3-4.6-5-9.1-10.1-13.7-15.1v-2.6c4.9 4.8 9.4 10.1 13.8 15.3.1-1.9.1-3.8.2-5.7-.3-.2-.9-.7-1.3-1 .7-3.6.4-7.3-2.1-10.2zm-250.1.9c2.2.9 1.3 3.3 1.5 5.1-.1 3.4 0 6.8-.2 10.2-2.4-4.6-.5-10.3-1.3-15.3zm72.4.4c1.4 1.2 1 3.1 1.1 4.8 0 3.3 0 6.7-.2 10-2.3-4.6-.8-10-.9-14.8zm108.9 1.7c.3-.4.8-1.2 1.1-1.6.1 5.1.2 10.3 0 15.4-2.4-4-1.1-9.2-1.1-13.8zm16-1.8l1.2.1c0 5.2.1 10.5-.1 15.7l-.9-.9c-.9-4.9-.2-9.9-.2-14.9zm86.1 0c1.8 1 1 3.2 1.2 4.8-.1 3.4.1 6.8-.2 10.2-2.4-4.6-.9-10.1-1-15zm63.7.2l1.4.2v14.8h-1.2c-.2-5-.1-10-.2-15zm-290.7.7h1.1v13.5l-1 .1c-.5-4.5-.4-9-.1-13.6zm73.9.2l1.2-.1c-.1 4.6.1 9.2-.1 13.8-2.4-4.1-.8-9.2-1.1-13.7zm194.5 2.8c.5.6.5.6 0 0zm-66 6c-.6-1-1-3.5.4-3.8.7 1.2.7 2.5 0 3.8zm-90.9 32.8l1.4 1c.3 5 .2 10.1 0 15.1-2.4-4.9-.5-10.8-1.4-16.1zm-92.8 8.1c.1-2.5-.3-5.3 1.3-7.4.2 4.8.2 9.6 0 14.5-1.6-2-1.1-4.7-1.3-7.1zm71 0c.2-2.4-.4-5.3 1.3-7.2.2 4.7.2 9.4 0 14.1-1.7-1.9-1.1-4.6-1.3-6.9zm132.2-6.6l1.2-.1c0 4.3.1 8.6-.1 13-2.3-3.8-.8-8.6-1.1-12.9zm-13.6 7c.6.6.6.6 0 0z" fill="#828386"/><path d="M63.7 199.7c2.7-.5 5.5-.7 8.2-.8H204c4.4 0 8.8.4 13.1 1.3l.2.1c.1.1.3.2.4.2 4 1.5 7.4 4.5 9.4 8.2 2.2 5.3 3.8 10.8 5 16.4 6.4 27.4 9.7 55.4 14.9 83.1.1.8.4 2.4.5 3.2.6 5.4.8 10.9.7 16.4-15.5 3.3-30.1 10.5-42.4 20.4-5.7 4.6-10.6 10.1-15.8 15.2-.3-26.7 0-53.5-.1-80.2h-.4c-14.4.1-28.9 0-43.3 0-.1-4.7 0-9.5-.1-14.2 4.1 0 8.2.1 12.2 0 .3-1.9.4-3.8.5-5.6h2.8c.1-2.7.1-5.5.2-8.2h-.5c-5.1.1-10.1 0-15.2-.1h-.7c-9.3.3-18.7.1-28 .1h-.4v28H58.7c-.5-19-.1-38.1-.2-57.1.2-7.5-.6-15.1.8-22.5 1.4-1.6 2.8-2.9 4.4-3.9z" fill="#e1791a"/><path d="M325.1 199.8c5.9-1.2 12-1.2 17.9-1.3h136c3.8-.1 7.4 2 9.4 5.2.6 2.7.8 5.5.9 8.3v367.1c.3 4.6-2.4 9.5-7 10.7-4 .8-8.2.4-12.2.5h-143c-2.2-.3-3.9 1-5.3 2.5-.5.4-1.5 1.2-1.9 1.6-3.7 2.5-6.8 5.8-10.7 7.9-9.2.6-18.4 0-27.5.2 1-6.2 2.4-12.3 3.7-18.5.2-.4.8-1.1 1-1.4-6-2.5-12.7-2.2-19.1-2.3-4.6.2-9.6 0-13.9 2-.3.2-1 .7-1.3.9-.1 0-.2.1-.2.2l.2.1c.3.2 1 .7 1.3.9.5 4.2 2.3 8 3.6 12 .1.3.3 1 .4 1.4.3 1.6.5 3.1.8 4.7-8.3-.2-16.6.4-24.8-.1-4.9-2.3-8.6-6.6-13.3-9.2-.4-.3-1.1-1-1.5-1.4-.3-.3-1-.9-1.3-1.2-3.9-.6-7.9-.4-11.9-.4H72.3c-3.6 0-7.7-.1-10.2-3-2.6-2.4-3-6-3-9.3.1-54.7 0-109.3 0-164 0-5.3-.1-10.7.2-16 37.4.1 74.9-.2 112.3.2l1.1.1c-2.4 7.1-3.5 14.5-4.6 21.8-1.6 7.5-.8 15.2-.1 22.8 2.2 15.9 7.6 31.7 17.3 44.6l.2.2c1.4 2.8 3.3 5.5 5.7 7.6 5.9 6.4 12 12.6 19 17.8 11.6 9.4 25.9 15.1 40.4 18.2 7 1.2 14.1 2.4 21.1 1.8h4.3c11.6.7 23.3-2 34.3-5.5 9.6-3.2 18.9-7.8 27.2-13.6 3.9-2.7 8-5.3 11-9.1 5.3-4.8 9.9-10.4 14.5-15.8l.8-.9c12-15.4 18.4-34.8 19.4-54.1.7-19.2-3-38.9-12.6-55.8-2.9-4.8-5.8-9.7-10-13.4-3.5-3.8-7.2-7.3-10.9-10.9-.2-1.5-1-2.3-2.6-2.2-.2-.1-.6-.4-.7-.5-2.1-1.9-4.4-3.8-6.8-5.3-13.4-8.6-28.5-14.4-44.1-17.5 5.5-36.5 11.2-73 16.7-109.4.8-4.5 1.3-9.3 3.9-13.3 1.8-3.2 5.5-4.5 9-5.9m55.2 21.7c-5.2 7.5-5 17.2-3.5 25.8-4.6-.7-9.6.2-13.1 3.4-2 1.6-3.7 3.6-5.1 5.8l-.1.1-.6 1.2c-1.8 2.1-1.8 5-2 7.7-9.1-1.5-20-1.4-27 5.6-5.5 5.3-6 15-.5 20.5 3.5 3.7 8.6 5.1 13.5 5.6 12.7 1.5 25.3-1.1 38-1 .6-.2 1.7-.7 2.2-1-.7 1.1-2.1 1.3-3.2 1.7-.6 13-2.6 26.1-.6 39 1 6.1 4.2 12.6 10.5 14.6 6.9 2.5 14.7-1.3 18-7.5 4.4-8.2 4.4-18.2 2.2-27 9.1 3.3 19.6-2.1 22.9-11.1 1-2.2 1.3-4.7 1.1-7.1 8.9 1.5 19.4 1 26.1-5.6 5.8-5.6 5.9-15.9-.1-21.3-5.8-4.9-13.8-5.1-21-5.4-9.9.3-19.8.9-29.7 2l-1.1-1.1c1-10.8 2.1-21.6 1.3-32.4-.5-6.4-2.4-13.7-8.4-17.1-6.5-4-15.5-1.5-19.8 4.6M104.1 480.3c-4.1-1.6-9.1-1.7-12.5 1.4-3.5 2.7-4.3 7.3-3.7 11.5-4.8 5.8-8.8 12.4-10.9 19.8-2.7 9.3-2.1 19.6 2.5 28.2-1.9 2.3-3.9 4.8-4 7.9-.6 5.6 3.8 11.1 9.4 11.8 2.9.6 5.7-.7 8.2-2 16.4 5.3 33.8 10.7 51.1 6.9 2.4 1 4 3.5 6.7 4 5.6 1.7 11.9-1.9 13.4-7.5 1.1-3.2.1-6.6-1.4-9.5 10.2-17.4 8.9-38.6 7-57.9 2.6-2 5.4-4.4 5.9-7.9 1.4-5.8-2.8-12.2-8.7-13.1-3.1-.8-6 .9-8.9 1.7-3.1-.4-6.1-1.5-9.3-1.9-15.1-2.6-31.2-.6-44.8 6.6m309.9 9c-.8 1.9-1.6 3.8-2.3 5.7-3.5 0-7.1.6-10.6-.2-3.6-2.4-7.6-4.8-12.1-4-4.2.4-7.2 3.7-9.1 7.2-14.3 1-27.8 12.4-28.5 27.2-2.3 0-4.6 0-6.9.1 0 3.4 0 6.9-.1 10.3 2.4 0 4.9-.1 7.3-.1 1 8 4.3 16.4 11.5 20.9-1.3 1.6-2.8 3-4.3 4.4-3.2.2-6.4.4-9.6.5-1.6 3.7-3.2 7.3-4.4 11.1 8 .1 16 .7 24 .8 1.1-1.5 2.1-3 3.2-4.5 11.3-.2 22.6-.1 33.9 0 .2 3.6.4 7.1.5 10.7 7.5 1.4 15 2.7 22.5 3.9 1.5.3 2.8-.5 4.1-1.1 11.2-5.5 22.5-10.8 33.8-16.3-.1-2.8-.2-5.5-.4-8.3 4.7-2.4 8.9-6.1 10.9-11.1 4.3-10.7 3.1-23-.5-33.7-2.4-6.5-6.2-13.8-13.6-15.6-1.5-2.8-2.9-5.6-4.4-8.3-14.9.3-29.9.5-44.9.4m-200.4 43.4c7.2 11.1 14.7 22.1 21.5 33.5-8.2-4.3-16.1-9.2-24.4-13.6-.4.4-1.2 1.1-1.6 1.5 8.6 8.5 17.3 17 26.4 25 5.8-9.9 9.3-20.9 14.5-31.1-8.6-2.9-17.4-5.1-25.8-8.3-3.2-2.5-5.8-5.7-8.7-8.6-.6.6-1.3 1.1-1.9 1.6m106.7-1.4c-2.8 2.8-5.4 6-8.6 8.4-8.5 3.1-17.3 5.4-25.9 8.3 3 6.6 6.3 13.2 8.9 20 1.5 3.9 3.8 7.4 5.6 11.1 9-8.1 17.8-16.5 26.4-25-.4-.4-1.1-1.2-1.5-1.6-8.2 4.4-16.2 9.4-24.5 13.6 6.8-11.6 15-22.3 21.5-34.1-.4-.1-1.4-.5-1.9-.7M267.7 552c-3.3 3.3-6.3 6.8-9.3 10.4-2.8 3.5-7.4 5.1-9.2 9.4l.2-1.2c-.9 1.5-1.2 3.2-.9 4.9 5.6 2.3 11.7.6 17.5.8 6.7.1 13.5.6 20.2.6.2-3.3-.4-6.8-2.9-9.2-.9-1.4-1.9-2.8-2.7-4.2l-.1-.1c-2.2-5.4-7.3-8.7-9.8-13.9.7-3.2-5 .4-3 2.5z" fill="#e1791a"/><path d="M413.9 280.2l.5-.6c.6.3 1.8 1 2.4 1.3-.7 0-2.1.1-2.8.1zM106.3 481.9c15.2-8 33.3-8.4 49.7-4.3-1.2 3.2-2.1 6.4-1.8 9.8-15.1 2.1-29.9 8-41.5 18.1-2.1-2.4-4.2-5-6.1-7.5 1.5-2.4 3.2-4.9 3-7.9.2-3.2-1.7-5.8-3.3-8.2zm7.8 25.3c11.5-9.8 26-15.7 40.9-17.6 1.4 1.8 3.1 3.4 4.8 4.9-6.7 10.2-14.7 19.7-24 27.7.6-5.3-1.2-11.3-6.2-14-4.5-2.9-10.1-1.5-14.4.9-.2-.5-.8-1.4-1.1-1.9zm-32.7 32.6c-7.4-14.5-2.7-32.3 7.5-44.1 2 2.1 4.2 4.4 7.2 5 3 .8 6-.2 8.8-1.2 1.9 2.5 3.9 5 5.9 7.6-9.5 8.9-16.7 20.1-21.9 32-2.6.1-5 .3-7.5.7zm49.9-10.8c12.1-9.3 22.4-20.8 30.7-33.5 1.8 0 3.7.1 5.5.1 1.2 10.1 1.7 20.3.9 30.5-.8 8.6-2.7 17.3-7.2 24.8-3.9-2.8-9.1-3.3-13.4-1-5.5-7-11-13.9-16.5-20.9z" fill="#e1791a"/><path d="M112.4 508.8c2.9 2.8-1.6 5.8-1.2 9.1-.8 7.1 5.2 13.2 12.1 13.7-8.2 5.8-17.4 10-26.8 13.5-1.4-2.1-3.3-3.8-5.3-5.2 4.9-11.6 11.9-22.5 21.2-31.1zm-15.1 38.5c11.3-4.2 22.2-9.7 32-16.9 5.6 6.9 11.1 13.7 16.5 20.7-2.4 3.7-3.7 8-2.3 12.3-16.3 3.5-32.9-1.4-48.3-6.5 1.8-2.9 2.4-6.2 2.1-9.6z" fill="#e1791a"/></svg>