<?xml version="1.0" encoding="UTF-8" ?>
<!DOCTYPE svg PUBLIC "-//W3C//DTD SVG 1.1//EN" "http://www.w3.org/Graphics/SVG/1.1/DTD/svg11.dtd">
<svg width="400pt" height="400pt" viewBox="0 0 400 400" version="1.1" xmlns="http://www.w3.org/2000/svg">
<g id="#ffffffff">
<path fill="#ffffff" opacity="1.00" d=" M 0.00 0.00 L 179.88 0.00 C 165.57 8.91 150.67 16.89 136.52 26.03 L 136.11 26.26 C 129.30 29.52 123.09 33.89 116.48 37.54 C 105.17 44.51 93.41 50.77 82.31 58.06 L 82.00 58.23 C 80.32 58.95 78.72 59.86 77.28 61.00 L 76.90 61.22 C 59.71 70.78 43.00 81.22 25.95 91.04 C 21.15 94.12 16.02 96.68 11.35 99.96 L 10.98 100.17 C 7.27 101.83 3.89 104.12 0.36 106.11 C 0.55 114.68 0.57 123.26 0.42 131.84 C 0.25 189.91 0.39 247.98 0.34 306.06 C 0.48 334.77 0.08 363.51 0.54 392.21 C 0.57 394.64 0.50 397.06 0.46 399.49 C 1.85 399.46 3.25 399.46 4.65 399.49 L 5.61 400.00 L 0.00 400.00 L 0.00 0.00 Z" />
<path fill="#ffffff" opacity="1.00" d=" M 68.03 93.87 C 72.29 91.44 77.45 92.24 82.08 92.84 C 107.94 97.71 133.68 105.61 155.92 120.01 C 185.34 114.03 216.27 114.31 245.28 122.33 C 249.63 120.59 253.52 117.91 257.62 115.67 C 271.02 108.44 285.14 102.37 299.99 98.84 C 308.78 96.62 317.84 93.24 327.01 94.90 C 332.69 95.92 336.06 101.25 337.52 106.42 C 343.21 126.30 344.68 147.40 341.64 167.87 C 341.46 170.02 340.60 172.66 342.47 174.34 C 355.25 189.76 364.68 208.51 366.59 228.65 C 321.25 211.23 276.09 193.37 230.77 175.90 C 220.70 195.61 210.73 215.37 200.82 235.15 C 189.98 216.01 179.84 196.45 169.48 177.04 C 165.76 177.97 162.25 179.52 158.67 180.86 C 148.32 184.87 137.83 188.56 127.59 192.85 L 130.44 193.26 C 128.73 193.55 126.97 192.87 125.32 193.50 C 95.07 204.76 65.01 216.55 34.69 227.64 C 37.03 207.91 46.02 189.48 58.53 174.22 C 55.87 152.21 56.43 129.83 60.04 107.96 C 61.46 102.77 63.19 96.89 68.03 93.87 M 105.37 112.48 C 107.04 118.29 108.39 124.31 107.47 130.38 C 97.22 134.33 87.73 139.92 78.51 145.83 C 78.43 147.95 78.39 150.08 78.40 152.21 C 84.63 148.96 90.38 144.87 96.69 141.77 C 108.21 135.41 120.40 130.28 133.07 126.72 C 124.00 121.69 114.62 117.19 105.37 112.48 M 267.67 126.48 C 274.09 128.63 280.63 130.49 286.82 133.26 C 299.39 138.35 310.95 145.53 322.70 152.19 C 322.69 150.04 322.64 147.89 322.54 145.75 C 313.33 139.82 303.74 134.44 293.60 130.26 C 292.53 124.21 294.34 118.32 295.50 112.45 C 286.25 117.18 277.12 122.18 267.67 126.48 Z" />
<path fill="#ffffff" opacity="1.00" d=" M 34.75 233.44 C 83.71 225.57 132.77 218.26 181.75 210.53 C 185.35 218.37 189.54 225.92 193.00 233.82 C 191.03 234.49 190.13 236.27 189.43 238.09 C 190.88 241.29 194.22 242.43 197.52 242.48 C 197.46 247.63 197.50 252.78 197.45 257.93 C 186.79 259.63 176.23 261.92 165.56 263.53 C 171.69 263.96 177.84 263.75 183.99 263.80 C 201.14 263.68 218.29 263.95 235.43 263.68 C 224.50 261.49 213.51 259.52 202.53 257.56 C 202.56 252.52 202.52 247.47 202.58 242.43 C 206.22 242.60 209.28 240.52 210.47 237.11 C 210.09 234.87 208.49 233.51 206.44 232.79 C 210.03 225.76 214.28 219.08 217.81 212.01 C 242.95 215.52 268.02 219.64 293.13 223.40 C 317.06 227.11 341.04 230.58 364.94 234.49 C 330.69 253.32 297.27 273.77 261.90 290.49 C 242.10 299.44 220.97 306.95 198.97 306.79 C 174.97 307.00 152.01 298.49 130.52 288.56 C 97.34 272.50 65.93 253.03 34.75 233.44 Z" />
<path fill="#ffffff" opacity="1.00" d=" M 307.15 348.10 C 338.05 329.64 369.24 311.66 400.00 293.00 L 400.00 400.00 L 218.16 400.00 C 220.81 399.14 223.25 397.76 225.51 396.14 L 225.97 395.88 C 253.17 380.19 280.04 363.94 307.15 348.10 Z" />
</g>
<g id="#838280ff">
<path fill="#838280" opacity="1.00" d=" M 179.88 0.00 L 224.14 0.00 C 206.49 9.85 189.29 20.51 171.81 30.67 C 114.63 64.31 57.66 98.30 0.42 131.84 C 0.57 123.26 0.55 114.68 0.36 106.11 C 3.89 104.12 7.27 101.83 10.98 100.17 C 11.04 100.14 11.14 100.10 11.20 100.07 L 11.35 99.96 C 16.02 96.68 21.15 94.12 25.95 91.04 C 43.00 81.22 59.71 70.78 76.90 61.22 C 76.96 61.20 77.07 61.15 77.12 61.12 L 77.28 61.00 C 78.72 59.86 80.32 58.95 82.00 58.23 C 82.05 58.21 82.15 58.16 82.20 58.14 L 82.31 58.06 C 93.41 50.77 105.17 44.51 116.48 37.54 C 123.09 33.89 129.30 29.52 136.11 26.26 C 136.17 26.23 136.30 26.18 136.36 26.15 L 136.52 26.03 C 150.67 16.89 165.57 8.91 179.88 0.00 Z" />
<path fill="#838280" opacity="1.00" d=" M 373.98 0.00 L 400.00 0.00 L 400.00 44.28 C 391.31 29.53 382.52 14.84 373.98 0.00 Z" />
<path fill="#838280" opacity="1.00" d=" M 251.78 353.78 C 301.23 324.72 350.41 295.21 400.00 266.41 L 400.00 293.00 C 369.24 311.66 338.05 329.64 307.15 348.10 C 280.04 363.94 253.17 380.19 225.97 395.88 L 225.87 395.42 L 225.47 395.60 L 225.51 396.14 C 223.25 397.76 220.81 399.14 218.16 400.00 L 5.61 400.00 L 4.65 399.49 C 15.07 398.75 25.54 399.35 35.99 399.16 C 81.33 399.18 126.68 399.12 172.02 399.19 C 176.06 399.29 179.22 396.47 182.56 394.63 C 205.70 381.13 228.67 367.33 251.78 353.78 Z" />
<path fill="#838280" opacity="1.00" d=" M 0.54 392.21 C 2.21 394.45 3.85 396.77 4.65 399.49 C 3.25 399.46 1.85 399.46 0.46 399.49 C 0.50 397.06 0.57 394.64 0.54 392.21 Z" />
</g>
<g id="#1b2c58ff">
<path fill="#1b2c58" opacity="1.00" d=" M 224.14 0.00 L 373.98 0.00 C 382.52 14.84 391.31 29.53 400.00 44.28 L 400.00 266.41 C 350.41 295.21 301.23 324.72 251.78 353.78 C 228.67 367.33 205.70 381.13 182.56 394.63 C 179.22 396.47 176.06 399.29 172.02 399.19 C 126.68 399.12 81.33 399.18 35.99 399.16 C 25.54 399.35 15.07 398.75 4.65 399.49 C 3.85 396.77 2.21 394.45 0.54 392.21 C 0.08 363.51 0.48 334.77 0.34 306.06 C 0.39 247.98 0.25 189.91 0.42 131.84 C 57.66 98.30 114.63 64.31 171.81 30.67 C 189.29 20.51 206.49 9.85 224.14 0.00 M 68.03 93.87 C 63.19 96.89 61.46 102.77 60.04 107.96 C 56.43 129.83 55.87 152.21 58.53 174.22 C 46.02 189.48 37.03 207.91 34.69 227.64 C 65.01 216.55 95.07 204.76 125.32 193.50 C 126.97 192.87 128.73 193.55 130.44 193.26 L 127.59 192.85 C 137.83 188.56 148.32 184.87 158.67 180.86 C 162.25 179.52 165.76 177.97 169.48 177.04 C 179.84 196.45 189.98 216.01 200.82 235.15 C 210.73 215.37 220.70 195.61 230.77 175.90 C 276.09 193.37 321.25 211.23 366.59 228.65 C 364.68 208.51 355.25 189.76 342.47 174.34 C 340.60 172.66 341.46 170.02 341.64 167.87 C 344.68 147.40 343.21 126.30 337.52 106.42 C 336.06 101.25 332.69 95.92 327.01 94.90 C 317.84 93.24 308.78 96.62 299.99 98.84 C 285.14 102.37 271.02 108.44 257.62 115.67 C 253.52 117.91 249.63 120.59 245.28 122.33 C 216.27 114.31 185.34 114.03 155.92 120.01 C 133.68 105.61 107.94 97.71 82.08 92.84 C 77.45 92.24 72.29 91.44 68.03 93.87 M 34.75 233.44 C 65.93 253.03 97.34 272.50 130.52 288.56 C 152.01 298.49 174.97 307.00 198.97 306.79 C 220.97 306.95 242.10 299.44 261.90 290.49 C 297.27 273.77 330.69 253.32 364.94 234.49 C 341.04 230.58 317.06 227.11 293.13 223.40 C 268.02 219.64 242.95 215.52 217.81 212.01 C 214.28 219.08 210.03 225.76 206.44 232.79 C 208.49 233.51 210.09 234.87 210.47 237.11 C 209.28 240.52 206.22 242.60 202.58 242.43 C 202.52 247.47 202.56 252.52 202.53 257.56 C 213.51 259.52 224.50 261.49 235.43 263.68 C 218.29 263.95 201.14 263.68 183.99 263.80 C 177.84 263.75 171.69 263.96 165.56 263.53 C 176.23 261.92 186.79 259.63 197.45 257.93 C 197.50 252.78 197.46 247.63 197.52 242.48 C 194.22 242.43 190.88 241.29 189.43 238.09 C 190.13 236.27 191.03 234.49 193.00 233.82 C 189.54 225.92 185.35 218.37 181.75 210.53 C 132.77 218.26 83.71 225.57 34.75 233.44 Z" />
<path fill="#1b2c58" opacity="1.00" d=" M 136.11 26.26 L 136.52 26.03 L 136.36 26.15 C 136.30 26.18 136.17 26.23 136.11 26.26 Z" />
<path fill="#1b2c58" opacity="1.00" d=" M 82.00 58.23 L 82.31 58.06 L 82.20 58.14 C 82.15 58.16 82.05 58.21 82.00 58.23 Z" />
<path fill="#1b2c58" opacity="1.00" d=" M 76.90 61.22 L 77.28 61.00 L 77.12 61.12 C 77.07 61.15 76.96 61.20 76.90 61.22 Z" />
<path fill="#1b2c58" opacity="1.00" d=" M 10.98 100.17 L 11.35 99.96 L 11.20 100.07 C 11.14 100.10 11.04 100.14 10.98 100.17 Z" />
<path fill="#1b2c58" opacity="1.00" d=" M 105.37 112.48 C 114.62 117.19 124.00 121.69 133.07 126.72 C 120.40 130.28 108.21 135.41 96.69 141.77 C 90.38 144.87 84.63 148.96 78.40 152.21 C 78.39 150.08 78.43 147.95 78.51 145.83 C 87.73 139.92 97.22 134.33 107.47 130.38 C 108.39 124.31 107.04 118.29 105.37 112.48 Z" />
<path fill="#1b2c58" opacity="1.00" d=" M 267.67 126.48 C 277.12 122.18 286.25 117.18 295.50 112.45 C 294.34 118.32 292.53 124.21 293.60 130.26 C 303.74 134.44 313.33 139.82 322.54 145.75 C 322.64 147.89 322.69 150.04 322.70 152.19 C 310.95 145.53 299.39 138.35 286.82 133.26 C 280.63 130.49 274.09 128.63 267.67 126.48 Z" />
<path fill="#1b2c58" opacity="1.00" d=" M 225.47 395.60 L 225.87 395.42 L 225.97 395.88 L 225.51 396.14 L 225.47 395.60 Z" />
</g>
</svg>
